<?xml version="1.0" encoding="utf-8"?>
<!-- Generator: Adobe Illustrator 16.0.3, SVG Export Plug-In . SVG Version: 6.00 Build 0)  -->
<!DOCTYPE svg PUBLIC "-//W3C//DTD SVG 1.1//EN" "http://www.w3.org/Graphics/SVG/1.1/DTD/svg11.dtd">
<svg version="1.1" id="Capa_1" xmlns="http://www.w3.org/2000/svg" xmlns:xlink="http://www.w3.org/1999/xlink" x="0px" y="0px"
	 width="600px" height="600px" viewBox="0 0 600 600" enable-background="new 0 0 600 600" xml:space="preserve">
<g>
	<g>
		<path opacity="0.09" fill="#017ABF" d="M523.42,481.51c0,10.25-91.209,18.551-203.691,18.551
			c-112.491,0-203.691-8.301-203.691-18.551c0-10.236,91.2-18.551,203.691-18.551C432.211,462.959,523.42,471.273,523.42,481.51z"/>
		<path fill="#DAE5FF" d="M130.048,481.496l376.806,0.088c10.148,0.014,18.385-8.217,18.385-18.371l0.047-246.284
			c0.01-10.148-8.219-18.376-18.365-18.376l-376.797-0.091c-10.146,0-18.383,8.22-18.383,18.358l-0.067,246.288
			C111.672,473.266,119.901,481.488,130.048,481.496z"/>
		<path fill="#CBD7FF" d="M117.865,333.637c0,6.758,5.48,12.25,12.25,12.25c6.762,0,12.242-5.492,12.25-12.242
			c0-6.77-5.488-12.252-12.243-12.252C123.353,321.393,117.865,326.865,117.865,333.637z"/>
		<path fill="#E0F1FF" d="M119.884,333.637c0,5.654,4.567,10.229,10.231,10.229c5.639,0,10.223-4.574,10.223-10.221
			c0.008-5.658-4.575-10.234-10.223-10.242C124.467,323.402,119.884,327.986,119.884,333.637z"/>
		<polygon fill="#000746" points="148.097,464.951 509.34,465.037 509.408,215.102 148.172,215.002 		"/>
		<path fill="#000720" d="M480.811,311.674h-59.375c-4.342,0-7.859-3.52-7.859-7.861v-59.356c0-4.35,3.518-7.86,7.859-7.86h59.375
			c4.332,0,7.852,3.51,7.852,7.86v59.356C488.662,308.154,485.143,311.674,480.811,311.674z"/>
		<g>
			<path fill="#FFC400" d="M451.123,250.078c-10.299,0-18.662,8.336-18.662,18.645c0,8.672,5.941,15.946,13.961,18.042
				l-3.871-12.126c-0.301-0.955,0.227-1.985,1.189-2.296c0.947-0.302,1.994,0.235,2.297,1.189l4.398,13.81
				c0.227,0.016,0.443,0.042,0.68,0.042c0.225,0,0.449-0.026,0.67-0.042l4.414-13.8c0.311-0.963,1.342-1.5,2.297-1.191
				c0.957,0.303,1.49,1.34,1.184,2.288l-3.865,12.126c8.02-2.081,13.951-9.344,13.961-18.034
				C469.775,258.424,461.428,250.078,451.123,250.078z"/>
		</g>
		<path fill="#FFC400" d="M458.73,293.472h-15.225c-0.662,0-1.197-0.534-1.197-1.188v-0.813c0-0.646,0.535-1.18,1.197-1.18h15.225
			c0.654,0,1.191,0.534,1.191,1.18v0.813C459.922,292.938,459.385,293.472,458.73,293.472z"/>
		<path fill="#FFC400" d="M457.627,298.183h-13.016c-0.652,0-1.189-0.537-1.189-1.19v-0.804c0-0.646,0.537-1.183,1.189-1.183h13.016
			c0.65,0,1.188,0.537,1.188,1.183v0.804C458.814,297.646,458.277,298.183,457.627,298.183z"/>
		<path fill="#000720" d="M238.877,386.266h-59.375c-4.332,0-7.851-3.529-7.851-7.869v-59.357c0-4.342,3.519-7.859,7.851-7.859
			h59.375c4.341,0,7.86,3.518,7.86,7.859v59.357C246.737,382.736,243.218,386.266,238.877,386.266z"/>
		<path fill="#3BFAFF" d="M210.111,351.375c0.394-0.654,0.184-1.49-0.461-1.887c-0.653-0.393-1.492-0.184-1.877,0.463
			c-0.059,0.092-5.647,9.176-14.353,13.02c-0.688,0.301-0.998,1.113-0.696,1.809c0.226,0.512,0.738,0.816,1.257,0.816
			c0.184,0,0.376-0.043,0.552-0.117C204.012,361.275,209.86,351.77,210.111,351.375z M212.189,357.986
			c4.483-5.541,3.628-10.156,1.534-12.436c-0.629-0.682-1.944-1.795-4.157-1.777c-2.388,0.057-4.868,1.602-7.365,4.592
			c-5.891,7.055-10.407,9.318-10.508,9.379c-0.678,0.316-0.972,1.139-0.645,1.828c0.327,0.674,1.141,0.971,1.828,0.635
			c0.201-0.102,5.061-2.471,11.429-10.09c2.446-2.932,4.248-3.58,5.329-3.602c1.089,0.006,1.751,0.545,2.086,0.896
			c0.302,0.314,2.799,3.35-1.659,8.854c-5.153,6.361-11.99,11.113-12.058,11.164c-0.62,0.426-0.779,1.289-0.344,1.902
			c0.26,0.381,0.696,0.584,1.115,0.584c0.276,0,0.552-0.074,0.788-0.242C199.847,369.48,206.777,364.674,212.189,357.986z
			 M210.606,369.119c-4.399-2.025-7.566,0.998-8.631,2.867c-0.376,0.664-0.142,1.492,0.511,1.871
			c0.226,0.115,0.452,0.176,0.679,0.176c0.478,0,0.93-0.248,1.19-0.68c0.192-0.328,1.969-3.188,5.111-1.752
			c0.688,0.326,1.509,0.008,1.819-0.66C211.595,370.254,211.293,369.43,210.606,369.119z M194.844,333.217
			c0.377,0,0.771-0.162,1.039-0.479c0.025-0.027,2.799-3.244,7.391-5.189c6.091-2.568,12.275-1.682,18.417,2.645
			c0.621,0.426,1.466,0.293,1.902-0.336c0.437-0.621,0.294-1.469-0.326-1.893c-16.617-11.719-29.336,2.854-29.479,3.004
			c-0.477,0.564-0.409,1.434,0.16,1.924C194.208,333.105,194.526,333.217,194.844,333.217z M216.899,367.723
			c-1.225-0.621-1.961-1.393-2.255-2.365c-0.528-1.773,0.553-3.693,0.595-3.746c0.386-0.66,0.168-1.498-0.486-1.877
			c-0.645-0.383-1.482-0.162-1.869,0.473c-0.076,0.123-1.734,2.963-0.862,5.895c0.502,1.74,1.733,3.113,3.669,4.064
			c0.185,0.094,0.403,0.146,0.596,0.146c0.511,0,0.989-0.277,1.223-0.762C217.854,368.887,217.578,368.059,216.899,367.723z
			 M224.967,338.604c-2.824-4.775-6.787-7.758-11.462-8.637c-5.489-1.043-10.533,0.996-13.407,3.25
			c-4.398,3.436-8.706,7.514-8.756,7.549c-0.545,0.52-0.57,1.383-0.042,1.924c0.26,0.297,0.629,0.439,0.989,0.439
			c0.335,0,0.67-0.131,0.938-0.379c0.042-0.033,4.266-4.029,8.556-7.373c2.304-1.799,6.611-3.594,11.211-2.732
			c3.938,0.754,7.182,3.219,9.619,7.35c0.386,0.635,1.215,0.863,1.877,0.473C225.136,340.088,225.354,339.246,224.967,338.604z
			 M227.465,343.33c-0.319-0.703-1.123-1.006-1.818-0.688c-0.68,0.311-0.989,1.113-0.68,1.801c0.025,0.061,2.438,5.498,0.21,10.082
			c-0.327,0.674-0.042,1.498,0.636,1.824c0.201,0.092,0.394,0.145,0.603,0.145c0.495,0,0.989-0.285,1.224-0.77
			C230.415,349.992,227.582,343.598,227.465,343.33z M223.016,364.521c-0.033-0.008-3.779-1.717-2.682-7.523
			c1.265-6.654,1.643-13.418-4.131-17.859c-5.221-4.031-11.647-2.453-17.169,4.217c-4.634,5.586-8.798,8.178-8.849,8.195
			c-0.645,0.395-0.847,1.23-0.46,1.885c0.393,0.637,1.232,0.844,1.885,0.453c0.176-0.109,4.567-2.807,9.519-8.783
			c2.153-2.59,7.768-8.154,13.415-3.803c3.796,2.932,4.643,7.055,3.102,15.184c-1.19,6.354,2.278,9.668,4.281,10.549
			c0.176,0.066,0.361,0.111,0.545,0.111c0.52,0,1.031-0.314,1.257-0.824C224.03,365.627,223.703,364.822,223.016,364.521z"/>
		<path fill="#000720" d="M337.023,386.266h-59.359c-4.339,0-7.867-3.529-7.867-7.869v-59.357c0-4.342,3.528-7.859,7.867-7.859
			h59.359c4.34,0,7.859,3.518,7.859,7.859v59.357C344.883,382.736,341.363,386.266,337.023,386.266z"/>
		<path fill="#C14DFF" d="M309.271,332.738h-3.561c-0.344-1.439-0.914-2.791-1.67-4.029l2.523-2.521l0,0l-4.684-4.686l-2.522,2.521
			c-1.232-0.744-2.59-1.314-4.031-1.668v-3.566H288.7v3.566c-1.433,0.354-2.791,0.924-4.022,1.668l-2.53-2.521l0,0l-4.676,4.686l0,0
			l2.514,2.521c-0.737,1.238-1.316,2.59-1.659,4.029h-3.569v6.617h3.569c0.343,1.455,0.922,2.801,1.659,4.035l-2.514,2.523
			l4.676,4.688h0.007l2.522-2.531c1.232,0.762,2.589,1.324,4.022,1.688v3.551h6.627l0,0v-3.551c1.441-0.363,2.799-0.926,4.031-1.688
			l2.522,2.531l0,0l4.684-4.688l-2.523-2.523c0.756-1.234,1.326-2.58,1.67-4.035h3.561V332.738z M296.694,343.121
			c-8.044,4.504-16.255-3.686-11.748-11.74c0.561-1.006,1.399-1.844,2.405-2.398c8.036-4.506,16.238,3.697,11.731,11.748
			C298.529,341.711,297.691,342.566,296.694,343.121z"/>
		<path fill="#00FFEA" d="M334.854,326.912h-2.18c-0.209-0.877-0.57-1.697-1.021-2.451l1.533-1.543l0,0l-2.85-2.865l-1.541,1.551
			c-0.754-0.469-1.584-0.805-2.455-1.023v-2.172h-4.047v2.172c-0.881,0.219-1.709,0.555-2.455,1.023l-1.551-1.551l0,0l-2.848,2.865
			l0,0l1.531,1.543c-0.451,0.754-0.803,1.574-1.004,2.451h-2.188v4.043h2.188c0.201,0.877,0.553,1.709,1.004,2.463l-1.531,1.531
			l2.848,2.857l0,0l1.551-1.541c0.746,0.471,1.574,0.814,2.455,1.029v2.172h4.047l0,0v-2.172c0.871-0.215,1.701-0.559,2.455-1.029
			l1.541,1.541l0,0l2.85-2.857l-1.533-1.531c0.451-0.754,0.813-1.586,1.021-2.463h2.18V326.912z M327.16,333.25
			c-4.91,2.748-9.912-2.264-7.156-7.172c0.336-0.605,0.855-1.117,1.459-1.449c4.91-2.76,9.904,2.246,7.172,7.162
			C328.283,332.402,327.773,332.906,327.16,333.25z"/>
		<path fill="#E70F40" d="M326.65,350.404h-1.533c-0.152-0.621-0.412-1.207-0.73-1.734l1.09-1.09l0,0l-2.01-2.002l-1.09,1.074
			c-0.527-0.322-1.115-0.563-1.734-0.709v-1.541h-2.85v1.541c-0.613,0.146-1.197,0.387-1.727,0.709l-1.088-1.074l0,0l-2.012,2.002
			l0,0l1.09,1.09c-0.328,0.527-0.588,1.113-0.723,1.734h-1.541v2.836h1.541c0.135,0.629,0.395,1.215,0.723,1.748l-1.09,1.08
			l2.012,2.012l0,0l1.088-1.092c0.529,0.324,1.113,0.58,1.727,0.729v1.533h2.85l0,0v-1.533c0.619-0.148,1.207-0.404,1.734-0.729
			l1.09,1.092l0,0l2.01-2.012l-1.09-1.08c0.318-0.533,0.578-1.119,0.73-1.748h1.533V350.404z M321.229,354.859
			c-3.453,1.943-6.988-1.576-5.045-5.043c0.244-0.43,0.588-0.789,1.021-1.031c3.461-1.926,6.998,1.592,5.045,5.055
			C322.016,354.266,321.654,354.623,321.229,354.859z"/>
		<path fill="#FFC400" d="M311.492,366.289h-2.514c-0.244-1.031-0.645-1.979-1.182-2.855l1.775-1.779l0,0l-3.293-3.291l-1.783,1.775
			c-0.863-0.537-1.82-0.932-2.832-1.174v-2.523h-4.66v2.523c-1.023,0.242-1.978,0.637-2.85,1.174l-1.784-1.775l0,0l-3.293,3.291l0,0
			l1.784,1.779c-0.536,0.877-0.938,1.824-1.19,2.855h-2.514v4.658h2.514c0.251,1.023,0.654,1.977,1.19,2.838l-1.784,1.779
			l3.293,3.303l0,0l1.784-1.777c0.872,0.527,1.826,0.928,2.85,1.17v2.518h4.66l0,0v-2.518c1.012-0.242,1.969-0.643,2.832-1.17
			l1.783,1.777l0,0l3.293-3.303l-1.775-1.779c0.537-0.861,0.938-1.814,1.182-2.838h2.514V366.289z M302.617,373.588
			c-5.664,3.182-11.437-2.598-8.27-8.27c0.395-0.709,0.989-1.291,1.685-1.688c5.673-3.166,11.455,2.607,8.271,8.281
			C303.916,372.615,303.33,373.193,302.617,373.588z"/>
		<path fill="#00DEEA" d="M337.777,375.918h-1.869c-0.184-0.764-0.469-1.475-0.879-2.119l1.332-1.316l0,0l-2.447-2.447l-1.332,1.316
			c-0.637-0.389-1.34-0.688-2.096-0.871v-1.869h-3.459v1.869c-0.764,0.184-1.475,0.482-2.111,0.871l-1.316-1.316l0,0l-2.447,2.447
			l0,0l1.316,1.316c-0.395,0.645-0.695,1.355-0.873,2.119h-1.867v3.451h1.867c0.178,0.754,0.479,1.465,0.873,2.102l-1.316,1.334
			l2.447,2.438l0,0l1.316-1.324c0.637,0.402,1.348,0.695,2.111,0.879v1.869h3.459l0,0v-1.869c0.756-0.184,1.459-0.477,2.096-0.879
			l1.332,1.324l0,0l2.447-2.438l-1.332-1.334c0.41-0.637,0.695-1.348,0.879-2.102h1.869V375.918z M331.199,381.338
			c-4.215,2.348-8.496-1.938-6.141-6.143c0.293-0.527,0.719-0.965,1.248-1.248c4.205-2.363,8.488,1.928,6.133,6.135
			C332.154,380.602,331.719,381.047,331.199,381.338z"/>
		<path fill="#000720" d="M367.162,291.036H192.75c-15.042,0-27.241-12.183-27.241-27.216l0,0c0-15.049,12.199-27.224,27.241-27.224
			h174.412c15.041,0,27.232,12.174,27.232,27.224l0,0C394.395,278.853,382.203,291.036,367.162,291.036z"/>
		<path fill="#001273" d="M218.105,276.381l-11.664-8.112c-0.711-0.487-1.558-0.537-2.32-0.293l-3.369-2.354
			c3.133-5.784,1.558-13.13-3.98-16.987c-5.932-4.121-14.118-2.663-18.258,3.285c-4.123,5.942-2.656,14.128,3.276,18.258
			c5.539,3.838,12.98,2.774,17.32-2.168l3.26,2.262c-0.042,0.888,0.302,1.759,1.081,2.305l11.664,8.111
			c1.173,0.829,2.824,0.527,3.654-0.647C219.597,278.853,219.295,277.217,218.105,276.381z M183.44,267.817
			c-4.642-3.226-5.79-9.619-2.564-14.254c3.235-4.633,9.62-5.781,14.261-2.563c4.626,3.225,5.773,9.625,2.557,14.261
			C194.468,269.885,188.066,271.033,183.44,267.817z"/>
		<path opacity="0.1" fill="#FFFFFF" d="M263.604,215.036c-30.401,30.518-75.807,75.765-115.474,115.224l-0.033,134.691
			l39.767,0.012l250.003-249.885L263.604,215.036z M468.275,215.094L218.272,464.963l26.371,0.008l250.01-249.869L468.275,215.094z
			 M294.557,464.979l10.994,0.018l203.84-203.75v-11.001L294.557,464.979z"/>
		<path fill="#F8F1FF" d="M516.867,320.83c3.082,0,5.596,2.516,5.596,5.607l-0.008,16.691c0,3.084-2.506,5.588-5.598,5.588
			c-3.084,0-5.588-2.504-5.588-5.588l0.008-16.699C511.277,323.346,513.783,320.822,516.867,320.83z"/>
		<path fill="#CBD7FF" d="M516.857,348.07L516.857,348.07c2.725,0,4.953-2.221,4.953-4.941l0.008-16.691
			c0-2.723-2.229-4.953-4.951-4.953l0,0c-2.717,0-4.953,2.23-4.953,4.945v16.699C511.914,345.85,514.135,348.07,516.857,348.07z"/>
		<path fill="#A2C2E6" d="M512.752,342.451c0,2.277,1.852,4.113,4.105,4.113c2.279,0,4.113-1.836,4.121-4.113
			c0-2.254-1.842-4.105-4.111-4.105C514.604,338.346,512.752,340.182,512.752,342.451z"/>
		<path fill="#000746" d="M513.313,342.451c0,1.971,1.584,3.566,3.545,3.566c1.979,0,3.57-1.596,3.57-3.566
			c0-1.963-1.592-3.555-3.561-3.555C514.896,338.896,513.313,340.488,513.313,342.451z"/>
		<path fill="#000717" d="M514.797,342.451c0,1.146,0.922,2.066,2.061,2.066c1.146,0,2.07-0.92,2.07-2.066
			c0-1.141-0.924-2.064-2.061-2.064C515.719,340.387,514.797,341.311,514.797,342.451z"/>
		<path opacity="0.2" fill="#F8F1FF" d="M516.641,341.426c0,0.738,0.602,1.344,1.355,1.344c0.746,0,1.359-0.605,1.359-1.344
			c0-0.754-0.613-1.355-1.359-1.355C517.242,340.07,516.641,340.672,516.641,341.426z"/>
		<path opacity="0.2" fill="#F8F1FF" d="M515.928,340.48c0,0.527,0.42,0.945,0.93,0.945c0.529,0,0.939-0.418,0.939-0.945
			c0-0.512-0.41-0.93-0.939-0.93C516.348,339.551,515.928,339.969,515.928,340.48z"/>
		<path opacity="0.2" fill="#F8F1FF" d="M514.99,344.135c0,0.52,0.418,0.938,0.938,0.938c0.518,0,0.93-0.41,0.93-0.938
			c0-0.51-0.412-0.939-0.93-0.939C515.408,343.195,514.99,343.625,514.99,344.135z"/>
	</g>
	<g>
		<g>
			<path fill="#FF8A00" d="M544.793,406.16c0,0,4.818,7.881,3.326,20.938c0,0-35.836,0.119-58.227-38.01l6.016-5.301
				C495.908,383.787,515.383,412.352,544.793,406.16z"/>
			<polygon fill="#FF6200" points="543.377,406.365 528.07,422.654 540.748,427.098 			"/>
			<path fill="#FFCDA9" d="M492.691,382.434c0,0-0.26-3.5-0.787-4.633c0,0-1.826-6.09-2.178-7.027c0,0-1.475-0.271-1.451,1.541
				c0.008,1.814,0.613,4.074,0.613,4.074s-2.02-1.955-2.783-3.576c-0.77-1.607-2.387-4.738-3.416-5.146
				c-1.031-0.432-1.059,0.709-1.059,0.709s2.48,4.818,3.018,5.855c0.453,0.916-0.043,0.85-0.043,0.85s-3.303-5.314-4.037-6.186
				c-0.715-0.877-1.342-0.988-1.842-0.141c0,0,2.428,4.197,2.779,4.834c0.344,0.635,1.842,2.479,1.154,2.865
				c0,0-3.107-4.443-3.684-5.168c-0.588-0.715-1.293-0.73-1.502,0.189l3.973,6.346c0,0,0.277,0.439-0.074,0.5
				c-0.32,0.049-2.814-2-3.084-2.275c-0.277-0.27-1.191-1.066-1.676-0.264c0,0-0.145,0.303,0.703,1.047s4.297,4.678,4.297,4.678
				s2.33,2.682,5.984,4.146c3.703,1.477,4.816,0.453,2.732,1.133l0.963-1.836L492.691,382.434z"/>
			<polygon fill="#3BFAFF" points="486.959,385.863 493.053,380.725 495.908,383.787 489.893,389.088 			"/>
		</g>
		<g>
			<g>
				<path fill="#FFCDA9" d="M540.092,376.176c0,0-4.592,7.268-6.125,17.975c0,0,3.639,3.059,11.279,3.059v9.91l9.109-5.326v-6.879
					l-2.146-0.379l1.451-2.889c0,0,3.057-0.211,4.113-3.348c1.057-3.131-2.541-2.361-3.418-1.984l-1.266,1.984
					c0,0,0.344-4.475,3.051-5.631l-0.947-4.387C555.193,378.281,548.305,379.813,540.092,376.176z"/>
				<path fill="#131C4C" d="M564.627,379.428c0,0,4.158-6.965-3.418-11.186c-0.838,4.123-3.695,7.34-6.721,10.246l1.373,2.236
					c0,0-2.588,2.719-2.771,7.574l1.266-1.984c0,0,2.025-1.072,3.107,0.404c1.082,1.465-1.063,4.307-3.803,4.928l-1.451,2.889
					l2.146,0.379v2.303c0,0,1.373-0.576,2.229-2.682C556.584,394.535,567.193,392.086,564.627,379.428z"/>
				<polygon fill="#131C4C" points="555.426,379.145 548.598,380.314 549.502,378.867 540.748,379.145 541.729,377.172 
					533.967,374.291 543.586,369.537 540.748,362.375 561.209,368.242 562.961,376.176 557.967,379.453 				"/>
				<polygon fill="#FF907D" points="542.096,381.359 542.096,387.076 539.404,387.076 				"/>
				<path fill="#FFFFFF" d="M536.063,387.076c-0.477,2.416,0.813,4.906,3.193,5.826c2.387,0.91,5.01-0.059,6.275-2.18
					L536.063,387.076z"/>
			</g>
			<path opacity="0.09" fill="#017ABF" d="M584.848,579.563c0,7.912-15.512,14.33-34.648,14.33c-19.131,0-34.648-6.418-34.648-14.33
				c0-7.934,15.518-14.352,34.648-14.352C569.336,565.211,584.848,571.629,584.848,579.563z"/>
			<polygon fill="#000F1F" points="537.438,576.295 537.438,580.369 520.543,580.369 531.998,576.295 			"/>
			<polygon fill="#000F1F" points="577.791,576.295 577.791,580.369 567.578,585.055 562.994,585.055 571.549,576.295 			"/>
			<path fill="#001F5E" d="M531.998,467.451v108.844h5.439c0,0,9.08-25.385,7.633-50.426l6.166-37.738l20.313,88.164h6.174
				c0,0,5.355-32.543-2.186-52.24l-2.891-56.604H531.998z"/>
			<path fill="#00143E" d="M531.998,467.451c0,0,9.93,7.752,40.992,6.82l-0.344-6.82l-23.461-4.344"/>
			<polygon fill="#00143E" points="551.236,488.131 544.266,474.271 545.07,525.869 			"/>
			<polygon fill="#00143E" points="531.789,476.326 573.016,483.908 572.99,475.654 			"/>
			<path fill="#FFC400" d="M573.67,475.654l-41.881,0.672c0,0-1.256-37.389,8.975-64.838c1.309-3.506,3.049-10.52,11.396-9.654
				c7.576,0.777,12.021,12.902,12.861,25.264c0.914,13.287,4.818,20.705,6.66,29.83C573.324,465.045,573.67,475.654,573.67,475.654z
				"/>
		</g>
		<path fill="#FBFFFF" d="M555.861,402.988l-0.797-4.748c0,0-7.773,0.658-11.939,6.039l0.252,2.086
			C543.377,406.365,550.443,403.844,555.861,402.988z"/>
		<g>
			<path fill="#FF8A00" d="M542.189,412.623c0,0,4.936-5.504,9-4.766c7.926,1.432,8.438,10.057,4.672,14.98
				c-4.305,5.65-30.734,25.084-30.734,25.084s-18.902-8.02-45.154-25.436l5.07-6.244l36.029,13.928L542.189,412.623z"/>
			<polygon fill="#FFC400" points="476.738,420.066 479.973,422.486 485.193,416.373 481.975,413.939 			"/>
		</g>
	</g>
	<g>
		<path opacity="0.09" fill="#017ABF" d="M194.895,576.961c0,3.668-7.181,6.645-16.045,6.645c-8.865,0-16.047-2.977-16.047-6.645
			c0-3.664,7.182-6.646,16.047-6.646C187.714,570.314,194.895,573.297,194.895,576.961z"/>
		<path opacity="0.09" fill="#017ABF" d="M133.978,573.203c0,4.994-17.026,9.051-38.008,9.051c-20.972,0-37.999-4.057-37.999-9.051
			c0-5.002,17.026-9.047,37.999-9.047C116.951,564.156,133.978,568.201,133.978,573.203z"/>
		<path fill="#E70F40" d="M123.194,572.676H69.105c-5.689,0-10.306-4.605-10.306-10.295v-54.09c0-5.697,4.616-10.309,10.306-10.309
			h54.088c5.681,0,10.307,4.611,10.307,10.309v54.09C133.5,568.07,128.875,572.676,123.194,572.676z"/>
		<path fill="#A2052C" d="M127.651,535.33c0,17.395-14.102,31.498-31.506,31.498c-17.386,0-31.505-14.104-31.505-31.498
			c0-17.4,14.119-31.504,31.505-31.504C113.55,503.826,127.651,517.93,127.651,535.33z"/>
		<path fill="#E70F40" d="M95.266,553.01l15.469-10.742c4.826-3.355,4.826-10.512,0-13.875l-15.469-10.74
			c-5.597-3.898-13.264,0.115-13.264,6.936v21.482C82.001,552.893,89.669,556.906,95.266,553.01z"/>
		<path fill="#FFC400" d="M178.807,578.936l-59.25-17.84c-7.499-2.254-11.747-10.172-9.485-17.664l17.839-59.236
			c2.254-7.502,10.164-11.752,17.664-9.49l59.24,17.834c7.509,2.256,11.748,10.162,9.494,17.662l-17.847,59.252
			C194.216,576.934,186.297,581.193,178.807,578.936z"/>
		<path fill="#FFEC00" d="M197.97,522.42c0.796-2.539,0.52-5.137-0.537-7.344c0-0.014,0-0.014,0-0.014
			c-0.008,0-0.008-0.008-0.008-0.008c-0.092-0.203-0.201-0.402-0.31-0.605c-0.026-0.023-0.026-0.031-0.033-0.057
			c-1.223-2.121-3.185-3.84-5.707-4.637l-43.271-13.605c-2.899-0.924-5.891-0.404-8.312,1.08c-0.143,0.068-0.294,0.125-0.411,0.227
			c-0.034,0.023-0.042,0.059-0.067,0.08c-1.759,1.234-3.167,2.996-3.872,5.205l-7.826,24.904c-0.016,0.066-0.016,0.115-0.042,0.203
			c-0.009,0.023-0.017,0.059-0.017,0.088c-1.475,5.223,1.44,10.727,6.653,12.355l43.278,13.615
			c5.203,1.645,10.759-1.191,12.536-6.318c0.009-0.035,0.016-0.066,0.033-0.102c0.025-0.057,0.059-0.109,0.084-0.176L197.97,522.42z
			 M171.039,524.613l23.429-6.736c0.276,1.082,0.276,2.262-0.084,3.408l-6.837,21.746L171.039,524.613z M190.245,513.354
			c0.829,0.25,1.558,0.67,2.178,1.197l-28.984,8.336l-19.75-23.252c1.056-0.248,2.188-0.248,3.285,0.102L190.245,513.354z
			 M139.047,503.869c0.276-0.891,0.746-1.668,1.34-2.324l15.687,18.467l-23.873,5.609L139.047,503.869z M178.623,550.32l-43.27-13.6
			c-3-0.953-4.785-3.938-4.349-6.947l27.811-6.535l2.547,3.01c0.235,0.277,0.537,0.479,0.864,0.58
			c0.352,0.107,0.728,0.115,1.097,0.006l3.696-1.063l19.13,21.35C184.781,549.836,181.614,551.268,178.623,550.32z"/>
	</g>
	<g>
		<g>
			<path opacity="0.09" fill="#017ABF" d="M263.504,580.369c0,7.926-15.518,14.344-34.648,14.344
				c-19.129,0-34.647-6.418-34.647-14.344c0-7.91,15.519-14.33,34.647-14.33C247.986,566.039,263.504,572.459,263.504,580.369z"/>
			<polygon fill="#000F1F" points="246.293,576.295 246.293,580.369 263.193,580.369 251.74,576.295 			"/>
			<polygon fill="#000F1F" points="205.947,576.295 205.947,580.369 216.161,585.055 220.745,585.055 212.189,576.295 			"/>
			<path fill="#001F5E" d="M251.74,467.451v108.844h-5.447c0,0-9.075-25.385-7.617-50.426l-6.167-37.738l-20.32,88.164h-6.175
				c0,0-5.354-32.543,2.179-52.24l2.907-56.604H251.74z"/>
			<path fill="#00143E" d="M251.74,467.451c0,0-9.93,7.752-40.992,6.82l0.352-6.82l23.453-4.344"/>
			<polygon fill="#00143E" points="232.509,488.131 239.472,474.271 238.676,525.869 			"/>
			<path fill="#131637" d="M238.718,366.607c-0.46-0.777-0.838-1.592-1.174-2.398c-4.348-0.133-12.166,0.51-13.44,6.807
				c0,0-8.035,6.711,2.112,19.475l4.307,2.371l6.201-5.121l8.488-11.814c0,0,0.997-0.035,2.22-0.387
				C243.888,373.311,240.855,370.193,238.718,366.607z"/>
			<path fill="#131637" d="M232.643,371.057c0,4.498,3.645,8.146,8.137,8.146c4.508,0,8.136-3.648,8.136-8.146
				c0-4.502-3.628-8.129-8.136-8.129C236.288,362.928,232.643,366.555,232.643,371.057z"/>
			<path fill="#131637" d="M224.356,389.162c0,0.775,0.62,1.41,1.399,1.41c0.788,0,1.416-0.635,1.416-1.41
				c0-0.777-0.628-1.412-1.416-1.412C224.977,387.75,224.356,388.385,224.356,389.162z"/>
			<path fill="#FF907D" d="M245.924,378.369c0,0,2.875,2.59,3.411,9.119h-5.84L245.924,378.369z"/>
			<path fill="#FFCDA9" d="M229.257,387.873v2.617c0,0,2.506-1.518,3.143-5.23c0,0-4.55-0.939-3.788-4.258
				c0.645-2.756,4.106-1.836,5.212,0.547v3.166c0,0,1.777-0.049,2.095-6.111l2.079-2.678h7.214c0,0,2.64,6.049,1.827,13.465h-4.885
				c0,0,1.047,1.92,4.441,2.621c-0.311,1.418-0.746,2.867-1.382,4.301h-7.19v5.244l-4.113,1.861l-3.562,1.131l-3.016-1.385
				l-1.115-3.854v-8.82C226.216,390.49,227.859,390.404,229.257,387.873z"/>
			<path fill="#131637" d="M225.755,389.986c0,0.996,0.813,1.801,1.802,1.801c0.996,0,1.801-0.805,1.801-1.801
				c0-0.986-0.805-1.803-1.801-1.803C226.568,388.184,225.755,389,225.755,389.986z"/>
			<path fill="#131637" d="M228.361,389.986c0,0.736,0.604,1.348,1.35,1.348c0.745,0,1.349-0.611,1.349-1.348
				c0-0.744-0.604-1.352-1.349-1.352C228.965,388.635,228.361,389.242,228.361,389.986z"/>
			<path fill="#131637" d="M227.558,388.453c0,0.736,0.611,1.338,1.34,1.338c0.755,0,1.357-0.602,1.357-1.338
				c0-0.756-0.603-1.361-1.357-1.361C228.168,387.092,227.558,387.697,227.558,388.453z"/>
			<path fill="#131637" d="M233.003,376.484c0,1.695,1.375,3.063,3.067,3.063c1.692,0,3.067-1.367,3.067-3.063
				c0-1.699-1.375-3.064-3.067-3.064C234.377,373.42,233.003,374.785,233.003,376.484z"/>
			<path fill="#131637" d="M237.36,373.42c0,1.682,1.374,3.064,3.076,3.064c1.684,0,3.059-1.383,3.059-3.064
				c0-1.703-1.375-3.078-3.059-3.078C238.734,370.342,237.36,371.717,237.36,373.42z"/>
			<path fill="#14AFFF" d="M245.681,405.135c0,0,12.736,15.225,17.48,18.719c10.892-4.006,17.981-13.674,17.981-13.674l12.024,5.783
				c0,0-9.452,14.494-28.262,24.08c-12.536-1.854-20.254-13.844-20.254-13.844L245.681,405.135z"/>
			<path fill="#0091F4" d="M247.667,408.084l-0.729,3.83l-2.145,11.354l-0.143,2.932c0,0,4.072,6.297,11.069,10.457L247.667,408.084
				z"/>
			<path fill="#E70F40" d="M211.1,467.451c0,0,22.264,6.047,40.64,0c0,0-2.338-38.795-3.394-56.443
				c-0.285-4.811-4.273-8.561-9.092-8.561l-15.794-0.33c-0.335,0-3,0.871-4.349,2.432c-2.531,2.924-4.601,5.723-4.885,9.594
				L211.1,467.451C211.838,466.771,211.1,467.451,211.1,467.451z"/>
			<path fill="#E70F40" d="M211.1,467.451c0,0,22.264,6.047,40.64,0c0,0-2.338-38.795-3.394-56.443
				c-0.285-4.811-4.273-8.561-9.092-8.561l-15.794-0.33c-0.335,0-3,0.871-4.349,2.432c-2.531,2.924-4.601,5.723-4.885,9.594
				L211.1,467.451C211.838,466.771,211.1,467.451,211.1,467.451z"/>
			<g>
				<path fill="#A326D5" d="M479.443,328.709l-221.545,69.816c-21.199,6.678-32.997,29.35-26.319,50.531
					c6.679,21.193,29.344,33.008,50.535,26.322l221.544-69.818c21.203-6.676,33-29.342,26.322-50.523
					C523.303,333.836,500.627,322.029,479.443,328.709z"/>
				<g>
					<polygon fill="#8B1CC0" points="327.805,376.484 310.736,381.885 304.061,468.467 321.152,463.086 					"/>
					<path fill="#8B1CC0" d="M257.898,398.525c-4.239,1.338-8.086,3.342-11.505,5.814l-4.717,61.225
						c4.491,4.443,9.963,7.736,15.929,9.68l6.042-78.529L257.898,398.525z"/>
					<polygon fill="#8B1CC0" points="391.973,356.275 374.896,361.654 368.227,448.246 385.313,442.865 					"/>
					<path fill="#8B1CC0" d="M278.646,391.99l-6.553,85.164c3.334-0.184,6.695-0.73,10.021-1.775l6.946-2.18l6.661-86.59
						L278.646,391.99z"/>
					<polygon fill="#8B1CC0" points="359.889,366.379 342.814,371.777 336.145,458.361 353.219,452.973 					"/>
					<path fill="#8B1CC0" d="M488.135,327.014c-2.893,0.242-5.816,0.781-8.691,1.695l-8.303,2.611l-6.672,86.594l17.08-5.379
						L488.135,327.014z"/>
					<path fill="#8B1CC0" d="M513.766,400.713l4.867-63.332c-4.564-4.164-10.047-7.238-15.969-8.949l-6.109,79.375l7.104-2.246
						C507.33,404.406,510.707,402.746,513.766,400.713z"/>
					<polygon fill="#8B1CC0" points="456.135,336.051 439.057,341.439 432.387,428.027 449.473,422.646 					"/>
					<polygon fill="#8B1CC0" points="424.049,346.164 406.973,351.543 400.311,438.133 417.389,432.752 					"/>
				</g>
				<path fill="#CD4FFF" d="M502.488,401.84l-221.547,69.814c-19.163,6.047-39.593-4.598-45.642-23.76l0,0
					c-6.033-19.172,4.6-39.6,23.772-45.641l221.538-69.828c19.174-6.033,39.609,4.611,45.641,23.775l0,0
					C532.291,375.371,521.66,395.799,502.488,401.84z"/>
				<path fill="#FFCDA9" d="M477.484,411.703c0,0-5.104,0.066-7.742,0.461c0,0-5.514,0.152-6.787,0.539c0,0,0.453,2.092,2.822,2.699
					c2.439,0.627,4.467,0.678,4.467,0.678s-5.211,1.834-7.289,2.313c1.514,1.279,2.682,1.674,2.682,1.674s8.219,5.549,15.342-3.643
					C484.129,412.352,477.484,411.703,477.484,411.703z"/>
				<path fill="#8B1CC0" d="M300.984,427.189c5.514,17.494-4.198,36.154-21.702,41.67c-17.496,5.514-36.14-4.207-41.662-21.705
					c-5.513-17.486,4.198-36.139,21.702-41.652C276.818,399.982,295.471,409.699,300.984,427.189z"/>
				<path fill="#3BFAFF" d="M297.935,428.152c4.977,15.82-3.789,32.67-19.608,37.646c-15.812,4.988-32.663-3.787-37.656-19.596
					c-4.978-15.813,3.804-32.672,19.616-37.658C276.098,403.557,292.948,412.34,297.935,428.152z"/>
				<g>
					<g>
						<path fill="#00C2FF" d="M271.305,438.578c-3.595,6.902-12.142,9.602-19.045,6.004c-6.913-3.592-9.603-12.139-6.008-19.045
							c3.603-6.912,12.142-9.602,19.046-6.006C272.21,423.125,274.9,431.672,271.305,438.578z M249.007,426.961
							c-2.806,5.396-0.704,12.07,4.685,14.865c5.388,2.809,12.058,0.707,14.864-4.684c2.807-5.387,0.704-12.047-4.683-14.861
							C258.476,419.473,251.806,421.586,249.007,426.961z"/>
					</g>
					<polygon fill="#00C2FF" points="281.72,442.246 280.287,445.006 268.917,439.088 270.342,436.332 					"/>
					<path fill="#00C2FF" d="M293.091,450.041L293.091,450.041c-0.729,1.371-2.438,1.918-3.813,1.205l-13.583-7.074
						c-1.375-0.719-1.919-2.428-1.19-3.803l0,0c0.712-1.373,2.429-1.93,3.796-1.207l13.583,7.064
						C293.267,446.957,293.804,448.666,293.091,450.041z"/>
				</g>
			</g>
			<path fill="#97002E" d="M235.367,402.447l5.061,5.086c0,0,1.375-4.729-2.405-7.939
				C238.022,399.594,237.453,401.91,235.367,402.447z"/>
			<path fill="#97002E" d="M235.367,402.447c0,0-6.418-0.371-9.15-3.889c0,0-2.086,1.447-3.393,3.902c0,0,2.178,5.826,8.739,5.381
				L235.367,402.447z"/>
		</g>
		<path fill="#FFCDA9" d="M259.23,462.857c0,0,2.69-1.693,3.804-1.906c0,0,5.372-1.945,6.226-2.188c0,0,0.938,0.969-0.403,1.932
			c-1.34,0.98-3.276,1.748-3.276,1.748s2.43,0.467,3.998,0.182c1.567-0.293,4.667-0.773,5.497-0.219c0.82,0.553,0,1.184,0,1.184
			s-4.776,0.746-5.799,0.914c-0.896,0.141-0.595,0.492-0.595,0.492s5.613,0.393,6.611,0.467c1.005,0.072,1.349,0.656,0.98,1.492
			c0,0-3-0.184-4.851-0.148c-0.645,0.025-2.841-0.336-2.773,0.396c0,0,4.776,0.852,5.588,0.885c0.83,0.049,1.173,0.771,0.586,1.426
			l-6.569-0.654c0,0-0.46,0.047-0.327,0.344c0.118,0.268,2.925,1.531,3.261,1.584c0.334,0.057,1.365,0.326,1.031,1.131
			c0,0-0.143,0.27-1.124,0.023c-0.964-0.234-5.623-1.188-5.623-1.188s-3.125-0.311-6.032-2.295
			c-2.941-1.988-2.749-3.406-2.195-1.453l0.863-1.727L259.23,462.857z"/>
		<path fill="#FFCDA9" d="M214.879,407.572c2.388-3.016,8.714-2.268,10.876,10.365c2.732,15.91,9.611,38.721,35.402,43.959
			l-0.871,6.848c0,0-32.336-4.408-46.045-39.871C212.458,424.262,210.188,413.506,214.879,407.572z"/>
		<path fill="#97002E" d="M227.331,416.094c-2.163-12.625-9.721-12.426-12.36-9.635c-7.172,7.617-2.605,25.504-2.078,26.965
			l17.019-5.045C228.748,424.188,228.001,420.029,227.331,416.094z"/>
	</g>
	<g>
		<g>
			<g>
				<g>
					<path opacity="0.09" fill="#017ABF" d="M478.598,574.688c0,4.941-9.008,8.949-20.109,8.949
						c-11.119,0-20.117-4.008-20.117-8.949c0-4.943,8.998-8.947,20.117-8.947C469.59,565.74,478.598,569.744,478.598,574.688z"/>
					<path fill="#B0E6FF" d="M478.389,550.145l-3.234,0.766c-2.982-2.756-9.326-4.672-16.666-4.672
						c-7.348,0-13.693,1.916-16.674,4.672l-3.244-0.766l1.541,23.799h0.018c1.072,4.086,8.873,7.258,18.359,7.258
						c9.477,0,17.277-3.172,18.352-7.258l0,0L478.389,550.145z"/>
					<path fill="#BEEFFF" d="M445.283,570.607v3.939c0,0,3.209,1.748,8.998,1.719v-3.949
						C454.281,572.316,449.504,572.635,445.283,570.607z"/>
					<path fill="#D4FAFF" d="M478.598,548.855c0,4.951-9.008,8.955-20.109,8.955c-11.119,0-20.117-4.004-20.117-8.955
						c0-4.934,8.998-8.941,20.117-8.941C469.59,539.914,478.598,543.922,478.598,548.855z"/>
					<path fill="#A0D8FF" d="M474.184,547.959c0,3.854-7.023,6.988-15.695,6.988c-8.682,0-15.711-3.135-15.711-6.988
						c0-3.869,7.029-7,15.711-7C467.16,540.959,474.184,544.09,474.184,547.959z"/>
				</g>
				<g>
					<g>
						<path fill="#FFC400" d="M457.766,549.852l-36.498-33.5c0,0-0.311,7.5,4.65,11.479c4.945,3.975,8.949,2.572,9.561,8.801
							c0.611,6.244,4.811,9.803,8.498,10.348C451.508,548.082,453.26,552.107,457.766,549.852z"/>
						<path fill="#FFB200" d="M457.766,549.852l-36.49-33.5c0,0,7.441-0.945,11.824,3.652c4.381,4.592,3.324,8.693,9.594,8.775
							c6.262,0.074,10.164,3.947,11.02,7.574C455.463,543.775,459.629,545.17,457.766,549.852z"/>
					</g>
					<path fill="#00FFEA" d="M458.488,550.348V424.627c0,0-14.563,12.283-13.5,28.361c1.072,16.08,10.551,21.15-0.049,32.99
						c-10.6,11.855-10.057,25.801-4.734,33.633C451.055,535.6,446.549,545.771,458.488,550.348z"/>
					<path fill="#00EEEB" d="M458.488,550.348V424.627c0,0,14.547,12.283,13.475,28.361c-1.066,16.08-10.543,21.15,0.059,32.99
						c10.59,11.855,10.047,25.801,4.742,33.633C465.902,535.6,470.42,545.771,458.488,550.348z"/>
				</g>
				<g>
					<path fill="#E70F40" d="M463.658,550.523l26.035-78.322c0,0-11.607,4.65-14.279,14.891
						c-2.674,10.234,2.186,15.352-6.871,20.537c-9.049,5.189-11.605,13.994-9.904,19.967
						C462.082,539.805,457.164,545.209,463.658,550.523z"/>
					<path fill="#B90235" d="M463.658,550.523l26.035-78.313c0,0,6.518,10.66,2.521,20.463c-3.99,9.805-10.943,10.984-6.797,20.561
						c4.148,9.578,0.924,18.16-4.012,21.928C471.334,542.875,472.037,550.145,463.658,550.523z"/>
				</g>
			</g>
			<path fill="#BEEFFF" d="M466.951,559.313v4.371c0,0,4.877-0.066,8.547-3.297v-4.527
				C475.498,555.859,473.252,558.543,466.951,559.313z"/>
			<path fill="#BEEFFF" d="M470.822,565.943v3.926c0,0-3.217,1.754-9,1.727v-3.957C461.822,567.639,466.607,567.961,470.822,565.943
				z"/>
			<path fill="#BEEFFF" d="M450.713,562.303c-1.057-0.25-2.152-0.609-3.227-1.129v3.945c0,0,1.139,0.604,3.227,1.088V562.303z"/>
		</g>
	</g>
	<g>
		<rect x="29.69" y="448.246" fill="#00DEEA" width="60.473" height="36.072"/>
		<rect x="29.69" y="426.551" fill="#FFB900" width="46.765" height="23.17"/>
		<path fill="#000746" d="M103.78,491.389H16.074v-14.133h73.561C97.444,477.256,103.78,483.58,103.78,491.389L103.78,491.389z"/>
		<g>
			<g>
				<g>
					<g>
						<g>
							<path fill="#00E3EA" d="M78.03,111.225L78.03,111.225c-1.09,1.106-2.883,1.106-3.98,0L29.062,66.254
								c-1.081-1.098-1.081-2.899,0-3.988l0,0c1.098-1.098,2.899-1.098,3.988,0l44.98,44.971
								C79.135,108.343,79.135,110.128,78.03,111.225z"/>
							<g>
								<g>
									<path fill="#00A8C2" d="M31.006,62.132c1.131,0,2.053,0.922,2.053,2.061c0,1.14-0.921,2.069-2.053,2.069
										c-1.14,0-2.07-0.93-2.07-2.069C28.936,63.054,29.866,62.132,31.006,62.132z"/>
								</g>
								<path fill="#000746" d="M31.006,62.828c0.746,0,1.366,0.611,1.366,1.365c0,0.763-0.62,1.366-1.366,1.366
									c-0.754,0-1.365-0.603-1.365-1.366C29.641,63.439,30.251,62.828,31.006,62.828z"/>
							</g>
							<g>
								<g>
									<path fill="#00A8C2" d="M76.069,107.195c1.139,0,2.07,0.93,2.07,2.071c0,1.13-0.931,2.069-2.07,2.069
										c-1.14,0-2.062-0.939-2.062-2.069C74.008,108.125,74.929,107.195,76.069,107.195z"/>
								</g>
								<path fill="#000746" d="M76.069,107.899c0.754,0,1.366,0.603,1.366,1.367c0,0.745-0.612,1.356-1.366,1.356
									c-0.754,0-1.366-0.611-1.366-1.356C74.703,108.502,75.315,107.899,76.069,107.899z"/>
							</g>
						</g>
						<g>
							<path fill="#00FFEA" d="M29.062,111.225L29.062,111.225c-1.081-1.097-1.081-2.882,0-3.988L74.05,62.266
								c1.097-1.098,2.89-1.098,3.98,0l0,0c1.105,1.089,1.105,2.89,0,3.988l-44.98,44.971
								C31.961,112.331,30.16,112.331,29.062,111.225z"/>
							<g>
								<g>
									<path fill="#00A8C2" d="M78.165,64.193c0,1.14-0.923,2.069-2.062,2.069c-1.148,0-2.069-0.93-2.069-2.069
										c0-1.139,0.921-2.061,2.069-2.061C77.242,62.132,78.165,63.054,78.165,64.193z"/>
								</g>
								<path fill="#000746" d="M77.468,64.193c0,0.763-0.611,1.366-1.366,1.366s-1.365-0.603-1.365-1.366
									c0-0.754,0.611-1.365,1.365-1.365S77.468,63.439,77.468,64.193z"/>
							</g>
							<g>
								<g>
									<path fill="#00A8C2" d="M33.108,109.266c0,1.13-0.929,2.069-2.069,2.069c-1.139,0-2.062-0.939-2.062-2.069
										c0-1.141,0.923-2.071,2.062-2.071C32.179,107.195,33.108,108.125,33.108,109.266z"/>
								</g>
								<path fill="#000746" d="M32.405,109.266c0,0.745-0.611,1.356-1.365,1.356c-0.754,0-1.375-0.611-1.375-1.356
									c0-0.764,0.621-1.367,1.375-1.367C31.794,107.899,32.405,108.502,32.405,109.266z"/>
							</g>
						</g>
					</g>
					<g>
						<g>
							<path fill="#00E3EA" d="M78.03,156.524L78.03,156.524c-1.09,1.089-2.883,1.089-3.98,0l-44.988-44.989
								c-1.081-1.098-1.081-2.899,0-3.988l0,0c1.098-1.098,2.899-1.098,3.988,0l44.98,44.971
								C79.135,153.624,79.135,155.418,78.03,156.524z"/>
							<g>
								<g>
									<path fill="#00A8C2" d="M31.006,107.413c1.131,0,2.053,0.93,2.053,2.061c0,1.147-0.921,2.078-2.053,2.078
										c-1.14,0-2.07-0.931-2.07-2.078C28.936,108.343,29.866,107.413,31.006,107.413z"/>
								</g>
								<path fill="#000746" d="M31.006,108.117c0.746,0,1.366,0.611,1.366,1.357c0,0.754-0.62,1.375-1.366,1.375
									c-0.754,0-1.365-0.62-1.365-1.375C29.641,108.728,30.251,108.117,31.006,108.117z"/>
							</g>
							<g>
								<g>
									<path fill="#00A8C2" d="M76.069,152.484c1.139,0,2.07,0.922,2.07,2.062c0,1.139-0.931,2.061-2.07,2.061
										c-1.14,0-2.062-0.921-2.062-2.061C74.008,153.406,74.929,152.484,76.069,152.484z"/>
								</g>
								<circle fill="#000746" cx="76.069" cy="154.547" r="1.365"/>
							</g>
						</g>
						<g>
							<path fill="#00FFEA" d="M29.062,156.524L29.062,156.524c-1.081-1.106-1.081-2.901,0-4.006l44.988-44.971
								c1.097-1.098,2.89-1.098,3.98,0l0,0c1.105,1.089,1.105,2.89,0,3.988l-44.98,44.989
								C31.961,157.613,30.16,157.613,29.062,156.524z"/>
							<g>
								<g>
									<path fill="#00A8C2" d="M78.165,109.474c0,1.147-0.923,2.078-2.062,2.078c-1.148,0-2.069-0.931-2.069-2.078
										c0-1.131,0.921-2.061,2.069-2.061C77.242,107.413,78.165,108.343,78.165,109.474z"/>
								</g>
								<path fill="#000746" d="M77.468,109.474c0,0.754-0.611,1.375-1.366,1.375s-1.365-0.62-1.365-1.375
									c0-0.746,0.611-1.357,1.365-1.357S77.468,108.728,77.468,109.474z"/>
							</g>
							<g>
								<g>
									<circle fill="#00A8C2" cx="31.043" cy="154.546" r="2.065"/>
								</g>
								<path fill="#000746" d="M32.405,154.546c0,0.753-0.611,1.366-1.365,1.366c-0.754,0-1.375-0.612-1.375-1.366
									c0-0.754,0.621-1.365,1.375-1.365C31.794,153.181,32.405,153.792,32.405,154.546z"/>
							</g>
						</g>
					</g>
				</g>
				<g>
					<g>
						<g>
							<path fill="#00E3EA" d="M78.03,201.796L78.03,201.796c-1.09,1.098-2.883,1.098-3.98,0l-44.988-44.971
								c-1.081-1.107-1.081-2.898,0-4.005l0,0c1.098-1.09,2.899-1.09,3.988,0l44.98,44.988
								C79.135,198.906,79.135,200.7,78.03,201.796z"/>
							<g>
								<g>
									<path fill="#00A8C2" d="M31.006,152.702c1.131,0,2.053,0.921,2.053,2.062c0,1.131-0.921,2.069-2.053,2.069
										c-1.14,0-2.07-0.938-2.07-2.069C28.936,153.624,29.866,152.702,31.006,152.702z"/>
								</g>
								<path fill="#000746" d="M31.006,153.398c0.746,0,1.366,0.611,1.366,1.366c0,0.746-0.62,1.357-1.366,1.357
									c-0.754,0-1.365-0.611-1.365-1.357C29.641,154.01,30.251,153.398,31.006,153.398z"/>
							</g>
							<g>
								<g>
									<path fill="#00A8C2" d="M76.069,197.758c1.139,0,2.07,0.929,2.07,2.069c0,1.139-0.931,2.062-2.07,2.062
										c-1.14,0-2.062-0.922-2.062-2.062C74.008,198.688,74.929,197.758,76.069,197.758z"/>
								</g>
								<circle fill="#000746" cx="76.069" cy="199.827" r="1.365"/>
							</g>
						</g>
						<g>
							<path fill="#00FFEA" d="M29.062,201.796L29.062,201.796c-1.081-1.097-1.081-2.891,0-3.988L74.05,152.82
								c1.097-1.09,2.89-1.09,3.98,0l0,0c1.105,1.107,1.105,2.898,0,4.005l-44.98,44.971
								C31.961,202.895,30.16,202.895,29.062,201.796z"/>
							<g>
								<g>
									<path fill="#00A8C2" d="M78.165,154.764c0,1.131-0.923,2.069-2.062,2.069c-1.148,0-2.069-0.938-2.069-2.069
										c0-1.141,0.921-2.062,2.069-2.062C77.242,152.702,78.165,153.624,78.165,154.764z"/>
								</g>
								<path fill="#000746" d="M77.468,154.764c0,0.746-0.611,1.357-1.366,1.357s-1.365-0.611-1.365-1.357
									c0-0.754,0.611-1.366,1.365-1.366S77.468,154.01,77.468,154.764z"/>
							</g>
							<g>
								<g>
									<path fill="#00A8C2" d="M33.108,199.828c0,1.139-0.929,2.062-2.069,2.062c-1.139,0-2.062-0.922-2.062-2.062
										c0-1.14,0.923-2.069,2.062-2.069C32.179,197.758,33.108,198.688,33.108,199.828z"/>
								</g>
								<path fill="#000746" d="M32.405,199.828c0,0.754-0.611,1.365-1.365,1.365c-0.754,0-1.375-0.611-1.375-1.365
									c0-0.755,0.621-1.366,1.375-1.366C31.794,198.462,32.405,199.073,32.405,199.828z"/>
							</g>
						</g>
					</g>
					<g>
						<g>
							<path fill="#00E3EA" d="M78.03,247.085L78.03,247.085c-1.09,1.09-2.883,1.09-3.98,0l-44.988-44.979
								c-1.081-1.098-1.081-2.891,0-3.989l0,0c1.098-1.106,2.899-1.106,3.988,0l44.98,44.971
								C79.135,244.187,79.135,245.988,78.03,247.085z"/>
							<g>
								<g>
									<path fill="#00A8C2" d="M31.006,197.984c1.131,0,2.053,0.922,2.053,2.061s-0.921,2.069-2.053,2.069
										c-1.14,0-2.07-0.93-2.07-2.069S29.866,197.984,31.006,197.984z"/>
								</g>
								<path fill="#000746" d="M31.006,198.68c0.746,0,1.366,0.62,1.366,1.365c0,0.763-0.62,1.375-1.366,1.375
									c-0.754,0-1.365-0.612-1.365-1.375C29.641,199.299,30.251,198.68,31.006,198.68z"/>
							</g>
							<g>
								<g>
									<path fill="#00A8C2" d="M76.069,243.048c1.139,0,2.07,0.921,2.07,2.06c0,1.14-0.931,2.07-2.07,2.07
										c-1.14,0-2.062-0.93-2.062-2.07C74.008,243.97,74.929,243.048,76.069,243.048z"/>
								</g>
								<path fill="#000746" d="M76.069,243.742c0.754,0,1.366,0.611,1.366,1.366c0,0.763-0.612,1.367-1.366,1.367
									c-0.754,0-1.366-0.604-1.366-1.367C74.703,244.354,75.315,243.742,76.069,243.742z"/>
							</g>
						</g>
						<g>
							<path fill="#00FFEA" d="M29.062,247.085L29.062,247.085c-1.081-1.097-1.081-2.899,0-3.996l44.988-44.971
								c1.097-1.106,2.89-1.106,3.98,0l0,0c1.105,1.098,1.105,2.891,0,3.989l-44.98,44.979
								C31.961,248.175,30.16,248.175,29.062,247.085z"/>
							<g>
								<g>
									<path fill="#00A8C2" d="M78.165,200.045c0,1.139-0.923,2.069-2.062,2.069c-1.148,0-2.069-0.93-2.069-2.069
										s0.921-2.061,2.069-2.061C77.242,197.984,78.165,198.906,78.165,200.045z"/>
								</g>
								<path fill="#000746" d="M77.468,200.045c0,0.763-0.611,1.375-1.366,1.375s-1.365-0.612-1.365-1.375
									c0-0.746,0.611-1.365,1.365-1.365S77.468,199.299,77.468,200.045z"/>
							</g>
							<g>
								<g>
									<path fill="#00A8C2" d="M33.108,245.108c0,1.14-0.929,2.07-2.069,2.07c-1.139,0-2.062-0.93-2.062-2.07
										c0-1.138,0.923-2.06,2.062-2.06C32.179,243.048,33.108,243.97,33.108,245.108z"/>
								</g>
								<path fill="#000746" d="M32.405,245.108c0,0.763-0.611,1.367-1.365,1.367c-0.754,0-1.375-0.604-1.375-1.367
									c0-0.754,0.621-1.366,1.375-1.366C31.794,243.742,32.405,244.354,32.405,245.108z"/>
							</g>
						</g>
					</g>
				</g>
			</g>
			<g>
				<g>
					<g>
						<g>
							<path fill="#00E3EA" d="M78.03,292.661L78.03,292.661c-1.09,1.096-2.883,1.096-3.98,0l-44.988-44.973
								c-1.081-1.104-1.081-2.889,0-3.988l0,0c1.098-1.106,2.899-1.106,3.988,0l44.98,44.98
								C79.135,289.769,79.135,291.571,78.03,292.661z"/>
							<g>
								<g>
									<path fill="#00A8C2" d="M31.006,243.567c1.131,0,2.053,0.93,2.053,2.07s-0.921,2.061-2.053,2.061
										c-1.14,0-2.07-0.92-2.07-2.061S29.866,243.567,31.006,243.567z"/>
								</g>
								<path fill="#000746" d="M31.006,244.262c0.746,0,1.366,0.611,1.366,1.375c0,0.745-0.62,1.364-1.366,1.364
									c-0.754,0-1.365-0.62-1.365-1.364C29.641,244.873,30.251,244.262,31.006,244.262z"/>
							</g>
							<g>
								<g>
									<path fill="#00A8C2" d="M76.069,288.631c1.139,0,2.07,0.921,2.07,2.069c0,1.139-0.931,2.062-2.07,2.062
										c-1.14,0-2.062-0.922-2.062-2.062C74.008,289.553,74.929,288.631,76.069,288.631z"/>
								</g>
								<path fill="#000746" d="M76.069,289.326c0.754,0,1.366,0.611,1.366,1.375c0,0.746-0.612,1.356-1.366,1.356
									c-0.754,0-1.366-0.611-1.366-1.356C74.703,289.938,75.315,289.326,76.069,289.326z"/>
							</g>
						</g>
						<g>
							<path fill="#00FFEA" d="M29.062,292.661L29.062,292.661c-1.081-1.09-1.081-2.892,0-3.98L74.05,243.7
								c1.097-1.106,2.89-1.106,3.98,0l0,0c1.105,1.099,1.105,2.883,0,3.988l-44.98,44.973
								C31.961,293.757,30.16,293.757,29.062,292.661z"/>
							<g>
								<g>
									<path fill="#00A8C2" d="M78.165,245.637c0,1.141-0.923,2.061-2.062,2.061c-1.148,0-2.069-0.92-2.069-2.061
										s0.921-2.07,2.069-2.07C77.242,243.567,78.165,244.497,78.165,245.637z"/>
								</g>
								<path fill="#000746" d="M77.468,245.637c0,0.745-0.611,1.364-1.366,1.364s-1.365-0.62-1.365-1.364
									c0-0.764,0.611-1.375,1.365-1.375S77.468,244.873,77.468,245.637z"/>
							</g>
							<g>
								<g>
									<path fill="#00A8C2" d="M33.108,290.701c0,1.139-0.929,2.062-2.069,2.062c-1.139,0-2.062-0.922-2.062-2.062
										c0-1.148,0.923-2.069,2.062-2.069C32.179,288.631,33.108,289.553,33.108,290.701z"/>
								</g>
								<path fill="#000746" d="M32.405,290.701c0,0.746-0.611,1.356-1.365,1.356c-0.754,0-1.375-0.611-1.375-1.356
									c0-0.763,0.621-1.375,1.375-1.375C31.794,289.326,32.405,289.938,32.405,290.701z"/>
							</g>
						</g>
					</g>
					<g>
						<g>
							<path fill="#00E3EA" d="M78.03,337.943L78.03,337.943c-1.09,1.113-2.883,1.113-3.98,0L29.062,292.97
								c-1.081-1.088-1.081-2.891,0-3.988l0,0c1.098-1.107,2.899-1.107,3.988,0l44.98,44.979
								C79.135,335.051,79.135,336.855,78.03,337.943z"/>
							<g>
								<g>
									<path fill="#00A8C2" d="M31.006,288.848c1.131,0,2.053,0.931,2.053,2.069c0,1.133-0.921,2.062-2.053,2.062
										c-1.14,0-2.07-0.929-2.07-2.062C28.936,289.779,29.866,288.848,31.006,288.848z"/>
								</g>
								<path fill="#000746" d="M31.006,289.553c0.746,0,1.366,0.602,1.366,1.364c0,0.756-0.62,1.367-1.366,1.367
									c-0.754,0-1.365-0.611-1.365-1.367C29.641,290.155,30.251,289.553,31.006,289.553z"/>
							</g>
							<g>
								<g>
									<path fill="#00A8C2" d="M76.069,333.91c1.139,0,2.07,0.934,2.07,2.082c0,1.127-0.931,2.049-2.07,2.049
										c-1.14,0-2.062-0.922-2.062-2.049C74.008,334.844,74.929,333.91,76.069,333.91z"/>
								</g>
								<path fill="#000746" d="M76.069,334.615c0.754,0,1.366,0.611,1.366,1.377c0,0.744-0.612,1.346-1.366,1.346
									c-0.754,0-1.366-0.602-1.366-1.346C74.703,335.227,75.315,334.615,76.069,334.615z"/>
							</g>
						</g>
						<g>
							<path fill="#00FFEA" d="M29.062,337.943L29.062,337.943c-1.081-1.088-1.081-2.893,0-3.982l44.988-44.979
								c1.097-1.107,2.89-1.107,3.98,0l0,0c1.105,1.097,1.105,2.899,0,3.988l-44.98,44.973
								C31.961,339.057,30.16,339.057,29.062,337.943z"/>
							<g>
								<g>
									<path fill="#00A8C2" d="M78.165,290.917c0,1.133-0.923,2.062-2.062,2.062c-1.148,0-2.069-0.929-2.069-2.062
										c0-1.138,0.921-2.069,2.069-2.069C77.242,288.848,78.165,289.779,78.165,290.917z"/>
								</g>
								<path fill="#000746" d="M77.468,290.917c0,0.756-0.611,1.367-1.366,1.367s-1.365-0.611-1.365-1.367
									c0-0.762,0.611-1.364,1.365-1.364S77.468,290.155,77.468,290.917z"/>
							</g>
							<g>
								<g>
									<path fill="#00A8C2" d="M33.108,335.992c0,1.127-0.929,2.049-2.069,2.049c-1.139,0-2.062-0.922-2.062-2.049
										c0-1.148,0.923-2.082,2.062-2.082C32.179,333.91,33.108,334.844,33.108,335.992z"/>
								</g>
								<path fill="#000746" d="M32.405,335.992c0,0.744-0.611,1.346-1.365,1.346c-0.754,0-1.375-0.602-1.375-1.346
									c0-0.766,0.621-1.377,1.375-1.377C31.794,334.615,32.405,335.227,32.405,335.992z"/>
							</g>
						</g>
					</g>
				</g>
				<g>
					<g>
						<g>
							<path fill="#00E3EA" d="M78.03,383.23L78.03,383.23c-1.09,1.098-2.883,1.098-3.98,0l-44.988-44.979
								c-1.081-1.098-1.081-2.9,0-3.99l0,0c1.098-1.09,2.899-1.09,3.988,0l44.98,44.971C79.135,380.342,79.135,382.135,78.03,383.23
								z"/>
							<g>
								<g>
									<path fill="#00A8C2" d="M31.006,334.129c1.131,0,2.053,0.922,2.053,2.063c0,1.146-0.921,2.068-2.053,2.068
										c-1.14,0-2.07-0.922-2.07-2.068C28.936,335.051,29.866,334.129,31.006,334.129z"/>
								</g>
								<path fill="#000746" d="M31.006,334.824c0.746,0,1.366,0.613,1.366,1.367c0,0.76-0.62,1.373-1.366,1.373
									c-0.754,0-1.365-0.613-1.365-1.373C29.641,335.438,30.251,334.824,31.006,334.824z"/>
							</g>
							<g>
								<g>
									<path fill="#00A8C2" d="M76.069,379.203c1.139,0,2.07,0.92,2.07,2.061s-0.931,2.07-2.07,2.07
										c-1.14,0-2.062-0.93-2.062-2.07S74.929,379.203,76.069,379.203z"/>
								</g>
								<path fill="#000746" d="M76.069,379.898c0.754,0,1.366,0.611,1.366,1.365c0,0.744-0.612,1.375-1.366,1.375
									c-0.754,0-1.366-0.631-1.366-1.375C74.703,380.51,75.315,379.898,76.069,379.898z"/>
							</g>
						</g>
						<g>
							<path fill="#00FFEA" d="M29.062,383.23L29.062,383.23c-1.081-1.096-1.081-2.889,0-3.998l44.988-44.971
								c1.097-1.09,2.89-1.09,3.98,0l0,0c1.105,1.09,1.105,2.893,0,3.99L33.05,383.23C31.961,384.328,30.16,384.328,29.062,383.23z"
								/>
							<g>
								<g>
									<path fill="#00A8C2" d="M78.165,336.191c0,1.146-0.923,2.068-2.062,2.068c-1.148,0-2.069-0.922-2.069-2.068
										c0-1.141,0.921-2.063,2.069-2.063C77.242,334.129,78.165,335.051,78.165,336.191z"/>
								</g>
								<path fill="#000746" d="M77.468,336.191c0,0.76-0.611,1.373-1.366,1.373s-1.365-0.613-1.365-1.373
									c0-0.754,0.611-1.367,1.365-1.367S77.468,335.438,77.468,336.191z"/>
							</g>
							<g>
								<g>
									<path fill="#00A8C2" d="M33.108,381.264c0,1.141-0.929,2.07-2.069,2.07c-1.139,0-2.062-0.93-2.062-2.07
										s0.923-2.061,2.062-2.061C32.179,379.203,33.108,380.123,33.108,381.264z"/>
								</g>
								<path fill="#000746" d="M32.405,381.264c0,0.744-0.611,1.375-1.365,1.375c-0.754,0-1.375-0.631-1.375-1.375
									c0-0.754,0.621-1.365,1.375-1.365C31.794,379.898,32.405,380.51,32.405,381.264z"/>
							</g>
						</g>
					</g>
					<g>
						<g>
							<path fill="#00E3EA" d="M78.03,428.52L78.03,428.52c-1.09,1.102-2.883,1.102-3.98,0l-44.988-44.988
								c-1.081-1.098-1.081-2.881,0-3.984l0,0c1.098-1.098,2.899-1.098,3.988,0l44.98,44.979
								C79.135,425.623,79.135,427.414,78.03,428.52z"/>
							<g>
								<g>
									<path fill="#00A8C2" d="M31.006,379.408c1.131,0,2.053,0.943,2.053,2.084c0,1.127-0.921,2.047-2.053,2.047
										c-1.14,0-2.07-0.92-2.07-2.047C28.936,380.352,29.866,379.408,31.006,379.408z"/>
								</g>
								<path fill="#000746" d="M31.006,380.123c0.746,0,1.366,0.602,1.366,1.369c0,0.73-0.62,1.352-1.366,1.352
									c-0.754,0-1.365-0.621-1.365-1.352C29.641,380.725,30.251,380.123,31.006,380.123z"/>
							</g>
							<g>
								<g>
									<path fill="#00A8C2" d="M76.069,424.482c1.139,0,2.07,0.928,2.07,2.068s-0.931,2.063-2.07,2.063
										c-1.14,0-2.062-0.922-2.062-2.063S74.929,424.482,76.069,424.482z"/>
								</g>
								<path fill="#000746" d="M76.069,425.178c0.754,0,1.366,0.613,1.366,1.373c0,0.748-0.612,1.361-1.366,1.361
									c-0.754,0-1.366-0.613-1.366-1.361C74.703,425.791,75.315,425.178,76.069,425.178z"/>
							</g>
						</g>
						<g>
							<path fill="#00FFEA" d="M29.062,428.52L29.062,428.52c-1.081-1.105-1.081-2.896,0-3.994l44.988-44.979
								c1.097-1.098,2.89-1.098,3.98,0l0,0c1.105,1.104,1.105,2.887,0,3.984L33.05,428.52
								C31.961,429.621,30.16,429.621,29.062,428.52z"/>
							<g>
								<g>
									<path fill="#00A8C2" d="M78.165,381.492c0,1.127-0.923,2.047-2.062,2.047c-1.148,0-2.069-0.92-2.069-2.047
										c0-1.141,0.921-2.084,2.069-2.084C77.242,379.408,78.165,380.352,78.165,381.492z"/>
								</g>
								<path fill="#000746" d="M77.468,381.492c0,0.73-0.611,1.352-1.366,1.352s-1.365-0.621-1.365-1.352
									c0-0.768,0.611-1.369,1.365-1.369S77.468,380.725,77.468,381.492z"/>
							</g>
							<g>
								<g>
									<circle fill="#00A8C2" cx="31.043" cy="426.551" r="2.065"/>
								</g>
								<path fill="#000746" d="M32.405,426.551c0,0.748-0.611,1.361-1.365,1.361c-0.754,0-1.375-0.613-1.375-1.361
									c0-0.76,0.621-1.373,1.375-1.373C31.794,425.178,32.405,425.791,32.405,426.551z"/>
							</g>
						</g>
					</g>
				</g>
			</g>
		</g>
		<rect x="26.908" y="107.136" fill="#000746" width="51.876" height="19.063"/>
		<rect x="26.908" y="93.001" fill="#FFB900" width="60.691" height="19.063"/>
		<path fill="#00FFEA" d="M29.623,77.985h318.074c1.508,0,2.715,1.223,2.715,2.715l0,0c0,1.508-1.207,2.723-2.715,2.723H29.623
			c-1.5,0-2.715-1.215-2.715-2.723l0,0C26.908,79.208,28.124,77.985,29.623,77.985z"/>
		<rect x="26.908" y="61.629" fill="#00DEEA" width="82.15" height="38.134"/>
		<g>
			<path fill="#00FFEA" d="M222.438,84.245c-0.554,0-1.098-0.209-1.517-0.629c-0.837-0.837-0.837-2.195,0-3.033l22.062-22.063H323.9
				l19.641,19.641c0.84,0.837,0.84,2.195,0,3.033c-0.836,0.838-2.195,0.838-3.031,0l-18.385-18.383h-77.366l-20.806,20.805
				C223.535,84.036,222.99,84.245,222.438,84.245z"/>
		</g>
		<g>
			<path fill="#00FFEA" d="M240.344,80.843c-0.276,0-0.553-0.101-0.763-0.311c-0.418-0.419-0.418-1.106,0-1.524l19.104-19.105
				c0.419-0.419,1.106-0.419,1.525,0c0.42,0.418,0.42,1.106,0,1.525l-19.105,19.104C240.897,80.742,240.621,80.843,240.344,80.843z"
				/>
		</g>
		<g>
			<path fill="#00FFEA" d="M256.649,80.843c-0.276,0-0.545-0.101-0.754-0.311c-0.418-0.419-0.427-1.097-0.008-1.516l19.096-19.104
				c0.419-0.419,1.098-0.428,1.516-0.009c0.419,0.418,0.428,1.098,0.009,1.517l-19.097,19.104
				C257.203,80.733,256.926,80.843,256.649,80.843z"/>
		</g>
		<g>
			<path fill="#00FFEA" d="M272.939,80.843c-0.277,0-0.554-0.101-0.763-0.311c-0.42-0.419-0.42-1.106,0-1.524l19.104-19.105
				c0.419-0.419,1.106-0.419,1.525,0c0.418,0.418,0.418,1.106,0,1.525l-19.105,19.104C273.492,80.742,273.215,80.843,272.939,80.843
				z"/>
		</g>
		<g>
			<path fill="#00FFEA" d="M289.236,80.843c-0.276,0-0.553-0.101-0.762-0.311c-0.419-0.419-0.419-1.106,0-1.524l19.104-19.105
				c0.42-0.419,1.105-0.419,1.525,0c0.42,0.418,0.42,1.106,0,1.525l-19.104,19.104C289.79,80.742,289.512,80.843,289.236,80.843z"/>
		</g>
		<g>
			<path fill="#00FFEA" d="M305.543,80.843c-0.277,0-0.555-0.101-0.762-0.311c-0.412-0.419-0.412-1.106,0-1.524l17-17.001
				c0.418-0.419,1.105-0.419,1.525,0c0.41,0.419,0.41,1.106,0,1.525l-17.002,17.001C306.096,80.742,305.818,80.843,305.543,80.843z"
				/>
		</g>
		<path fill="#000746" d="M337.258,83.423c0,5.756,4.684,10.432,10.439,10.432c5.766,0,10.434-4.675,10.434-10.432
			c0-5.774-4.668-10.44-10.434-10.44C341.941,72.983,337.258,77.649,337.258,83.423z"/>
		<path fill="#00FFEA" d="M342.428,83.423c0,2.908,2.363,5.271,5.27,5.271c2.908,0,5.279-2.363,5.279-5.271
			c0-2.916-2.371-5.279-5.279-5.279C344.791,78.145,342.428,80.508,342.428,83.423z"/>
		<g>
			<path fill="#FBFFFF" d="M401.107,242.746v-11.271c0-9.133-7.467-16.598-16.607-16.598c-5.521,0-10.434,2.747-13.457,6.946v-6.335
				c0-10.608-8.674-19.281-19.289-19.281c-10.6,0-19.271,8.673-19.271,19.281v1.031c-3.043-4.006-7.844-6.628-13.23-6.628
				c-9.143,0-16.602,7.465-16.602,16.598v14.856c-7.633,2.925-13.08,10.324-13.08,18.947l0,0c0,11.176,9.143,20.312,20.304,20.312
				h81.086c11.16,0,20.303-9.136,20.303-20.312l0,0C411.264,252.817,407.164,246.266,401.107,242.746z"/>
			<g opacity="0.7">
				<polygon fill="#FFA900" points="350.412,318.408 278.955,285.857 278.955,200.237 350.412,232.791 				"/>
				<polygon fill="#FF5B00" points="350.412,318.408 421.879,285.857 421.879,200.237 350.412,232.791 				"/>
				<polygon fill="#FFDB00" points="421.879,200.237 350.412,233.127 278.955,200.237 350.412,167.693 				"/>
			</g>
			<path opacity="0.75" fill="#00FFEA" d="M273.685,200.237c0,2.925,2.364,5.279,5.27,5.279c2.917,0,5.271-2.354,5.271-5.279
				c0-2.907-2.354-5.27-5.271-5.27C276.048,194.968,273.685,197.331,273.685,200.237z"/>
			<path opacity="0.75" fill="#00FFEA" d="M414.941,200.237c0,2.925,2.361,5.279,5.27,5.279c2.918,0,5.279-2.354,5.279-5.279
				c0-2.907-2.361-5.27-5.279-5.27C417.303,194.968,414.941,197.331,414.941,200.237z"/>
			<path opacity="0.75" fill="#00FFEA" d="M345.152,233.127c0,2.924,2.354,5.286,5.26,5.286c2.908,0,5.271-2.362,5.271-5.286
				c0-2.909-2.363-5.264-5.271-5.264C347.506,227.863,345.152,230.218,345.152,233.127z"/>
			<path opacity="0.75" fill="#00FFEA" d="M345.152,167.693c0,2.917,2.354,5.279,5.26,5.279c2.908,0,5.271-2.362,5.271-5.279
				c0-2.907-2.363-5.27-5.271-5.27C347.506,162.423,345.152,164.786,345.152,167.693z"/>
			<path opacity="0.75" fill="#00FFEA" d="M345.152,318.408c0,2.91,2.354,5.273,5.26,5.273c2.908,0,5.271-2.363,5.271-5.273
				c0-2.93-2.363-5.277-5.271-5.277C347.506,313.131,345.152,315.479,345.152,318.408z"/>
			<path opacity="0.75" fill="#00FFEA" d="M273.685,286.996c0,2.916,2.364,5.279,5.27,5.279c2.917,0,5.271-2.363,5.271-5.279
				c0-2.908-2.354-5.271-5.271-5.271C276.048,281.726,273.685,284.088,273.685,286.996z"/>
			<path opacity="0.75" fill="#00FFEA" d="M414.941,286.996c0,2.916,2.361,5.279,5.27,5.279c2.918,0,5.279-2.363,5.279-5.279
				c0-2.908-2.361-5.271-5.279-5.271C417.303,281.726,414.941,284.088,414.941,286.996z"/>
		</g>
		<g>
			<path fill="#9DFFFF" d="M350.412,228.363c-0.275,0-0.5-0.224-0.5-0.5v-43.481L284.33,198.33
				c-0.271,0.052-0.536-0.115-0.593-0.385c-0.057-0.27,0.115-0.536,0.385-0.593l66.187-14.076c0.152-0.032,0.303,0.006,0.418,0.101
				c0.117,0.095,0.186,0.238,0.186,0.389v44.099C350.912,228.14,350.689,228.363,350.412,228.363z"/>
		</g>
		<g>
			<path fill="#9DFFFF" d="M415.242,199.028c-0.035,0-0.072-0.004-0.111-0.013l-64.83-14.764c-0.227-0.052-0.389-0.254-0.389-0.487
				v-16.072c0-0.276,0.225-0.5,0.5-0.5c0.277,0,0.5,0.224,0.5,0.5v15.673l64.441,14.675c0.27,0.061,0.438,0.329,0.377,0.598
				C415.678,198.871,415.471,199.028,415.242,199.028z"/>
		</g>
		<g>
			<path fill="#9DFFFF" d="M350.412,184.265c-0.275,0-0.5-0.224-0.5-0.5v-89.91c0-0.276,0.225-0.5,0.5-0.5
				c0.277,0,0.5,0.224,0.5,0.5v89.91C350.912,184.041,350.689,184.265,350.412,184.265z"/>
		</g>
	</g>
	<g>
		<path fill="#00FFEA" d="M578.051,23.218H470.326c-0.736,0-1.324-0.846-1.324-1.877l0,0c0-1.047,0.588-1.885,1.324-1.885h107.725
			V23.218z"/>
		<g>
			<path fill="#00FFEA" d="M557.85,24.458c-0.547,0-1.098-0.209-1.518-0.628l-14.26-14.253h-53.15l-12.561,12.561
				c-0.838,0.837-2.197,0.837-3.035,0c-0.836-0.837-0.836-2.195,0-3.033l13.818-13.817h56.703l15.518,15.509
				c0.84,0.838,0.84,2.197,0,3.034C558.947,24.249,558.402,24.458,557.85,24.458z"/>
		</g>
		<g>
			<path fill="#00FFEA" d="M545.406,21.761c-0.277,0-0.555-0.109-0.762-0.319L531.396,8.187c-0.42-0.419-0.412-1.097,0.008-1.517
				c0.418-0.419,1.098-0.41,1.516,0.008l13.246,13.256c0.422,0.42,0.412,1.098-0.006,1.517
				C545.951,21.66,545.684,21.761,545.406,21.761z"/>
		</g>
		<g>
			<path fill="#00FFEA" d="M534.109,21.761c-0.277,0-0.543-0.101-0.752-0.311L520.094,8.195c-0.42-0.418-0.43-1.098-0.01-1.517
				c0.418-0.418,1.1-0.427,1.516-0.008l13.266,13.257c0.418,0.418,0.428,1.097,0.006,1.516
				C534.666,21.652,534.389,21.761,534.109,21.761z"/>
		</g>
		<g>
			<path fill="#00FFEA" d="M522.791,21.761c-0.277,0-0.547-0.101-0.756-0.311L508.771,8.195c-0.418-0.418-0.428-1.098-0.01-1.517
				c0.42-0.418,1.1-0.427,1.52-0.008l13.264,13.257c0.418,0.418,0.426,1.097,0.008,1.516
				C523.344,21.652,523.066,21.761,522.791,21.761z"/>
		</g>
		<g>
			<path fill="#00FFEA" d="M511.479,21.761c-0.275,0-0.545-0.101-0.754-0.311L497.459,8.195c-0.418-0.418-0.426-1.098-0.008-1.517
				c0.42-0.418,1.098-0.427,1.516-0.008l13.266,13.257c0.418,0.418,0.426,1.097,0.01,1.516
				C512.029,21.652,511.756,21.761,511.479,21.761z"/>
		</g>
		<g>
			<path fill="#00FFEA" d="M500.168,21.761c-0.279,0-0.547-0.101-0.756-0.311L487.605,9.652c-0.42-0.418-0.426-1.097-0.008-1.516
				s1.098-0.427,1.518-0.009l11.805,11.799c0.42,0.418,0.428,1.097,0.01,1.516C500.719,21.652,500.441,21.761,500.168,21.761z"/>
		</g>
		<path fill="#000746" d="M478.146,23.218c0,4.006-3.252,7.249-7.25,7.249c-4.004,0-7.238-3.242-7.238-7.249
			c0-3.996,3.234-7.239,7.238-7.239C474.895,15.979,478.146,19.222,478.146,23.218z"/>
		<path fill="#00FFEA" d="M474.559,23.218c0,2.02-1.641,3.662-3.662,3.662c-2.018,0-3.66-1.643-3.66-3.662
			c0-2.019,1.643-3.653,3.66-3.653C472.918,19.565,474.559,21.2,474.559,23.218z"/>
		<g>
			<path fill="#00FFEA" d="M500.168,127.557h-6.453c-0.621-2.606-1.645-5.052-3.008-7.282l4.557-4.558c0.01,0,0,0,0,0l-8.445-8.446
				l-4.561,4.557c-2.227-1.365-4.672-2.387-7.281-3.016v-6.436h-11.939v6.436c-2.605,0.629-5.053,1.651-7.281,3.016l-4.541-4.549
				l0,0l-8.455,8.438l0,0l4.559,4.558c-1.357,2.229-2.379,4.675-3.016,7.282h-6.445v11.941h6.445
				c0.637,2.605,1.658,5.052,3.016,7.273l-4.559,4.566l8.455,8.438l0,0l4.541-4.559c2.229,1.366,4.676,2.388,7.281,3.025v6.436
				h11.939l0,0v-6.436c2.609-0.637,5.055-1.659,7.281-3.025l4.561,4.559l0,0l8.455-8.438l-4.566-4.566
				c1.363-2.221,2.387-4.668,3.008-7.273h6.453V127.557z M477.451,146.275c-14.531,8.128-29.33-6.669-21.184-21.182
				c1.008-1.802,2.521-3.318,4.316-4.324c14.512-8.128,29.309,6.662,21.184,21.183C480.76,143.753,479.244,145.262,477.451,146.275z
				"/>
			<g opacity="0.7">
				<polygon fill="#FFA900" points="469.002,186.329 518.617,163.738 518.617,104.321 469.002,126.92 				"/>
				<polygon fill="#FF5B00" points="469.002,186.329 419.408,163.738 419.408,104.321 469.002,126.92 				"/>
				<polygon fill="#FFDB00" points="419.408,104.321 469.002,127.138 518.617,104.321 469.002,81.73 				"/>
			</g>
			<path opacity="0.75" fill="#00FFEA" d="M522.271,104.321c0,2.02-1.645,3.653-3.654,3.653c-2.018,0-3.662-1.634-3.662-3.653
				s1.645-3.662,3.662-3.662C520.627,100.66,522.271,102.302,522.271,104.321z"/>
			<path opacity="0.75" fill="#00FFEA" d="M424.209,104.321c0,2.02-1.627,3.653-3.645,3.653c-2.029,0-3.662-1.634-3.662-3.653
				s1.633-3.662,3.662-3.662C422.582,100.66,424.209,102.302,424.209,104.321z"/>
			<path opacity="0.75" fill="#00FFEA" d="M472.674,127.138c0,2.027-1.643,3.662-3.672,3.662c-2.01,0-3.652-1.635-3.652-3.662
				c0-2.019,1.643-3.645,3.652-3.645C471.031,123.493,472.674,125.119,472.674,127.138z"/>
			<path opacity="0.75" fill="#00FFEA" d="M472.674,81.73c0,2.011-1.643,3.654-3.672,3.654c-2.01,0-3.652-1.643-3.652-3.654
				c0-2.027,1.643-3.661,3.652-3.661C471.031,78.069,472.674,79.704,472.674,81.73z"/>
			<path opacity="0.75" fill="#00FFEA" d="M472.674,186.329c0,2.027-1.643,3.662-3.672,3.662c-2.01,0-3.652-1.635-3.652-3.662
				c0-2.02,1.643-3.654,3.652-3.654C471.031,182.675,472.674,184.309,472.674,186.329z"/>
			<path opacity="0.75" fill="#00FFEA" d="M522.271,164.534c0,2.02-1.645,3.661-3.654,3.661c-2.018,0-3.662-1.642-3.662-3.661
				s1.645-3.654,3.662-3.654C520.627,160.88,522.271,162.515,522.271,164.534z"/>
			<path opacity="0.75" fill="#00FFEA" d="M424.209,164.534c0,2.02-1.627,3.661-3.645,3.661c-2.029,0-3.662-1.642-3.662-3.661
				s1.633-3.654,3.662-3.654C422.582,160.88,424.209,162.515,424.209,164.534z"/>
		</g>
		<g>
			<path fill="#9DFFFF" d="M469.002,123.868c-0.207,0-0.375-0.168-0.375-0.375V92.875c0-0.113,0.051-0.22,0.139-0.292
				c0.088-0.072,0.203-0.099,0.314-0.075l45.953,9.779c0.203,0.043,0.332,0.242,0.289,0.445c-0.043,0.202-0.238,0.334-0.445,0.289
				l-45.5-9.682v30.155C469.377,123.7,469.209,123.868,469.002,123.868z"/>
		</g>
		<g>
			<path fill="#9DFFFF" d="M424.016,103.498c-0.172,0-0.326-0.118-0.365-0.292c-0.047-0.202,0.08-0.403,0.283-0.449l44.693-10.181
				V81.73c0-0.207,0.168-0.375,0.375-0.375s0.375,0.168,0.375,0.375v11.145c0,0.175-0.121,0.327-0.291,0.366L424.1,103.488
				C424.072,103.495,424.043,103.498,424.016,103.498z"/>
		</g>
		<g>
			<path fill="#9DFFFF" d="M469.002,93.25c-0.207,0-0.375-0.168-0.375-0.375V30.467c0-0.207,0.168-0.375,0.375-0.375
				s0.375,0.168,0.375,0.375v62.408C469.377,93.082,469.209,93.25,469.002,93.25z"/>
		</g>
	</g>
	<g>
		<g>
			<g>
				<path fill="#B0E6FF" d="M45.267,500.33l-3.142,1.879c-2.731-2.531-8.538-4.275-15.259-4.275c-6.72,0-12.519,1.744-15.25,4.275
					l-3.151-1.77l1.608,10.164h0.009c0.963,3.744,8.111,6.645,16.783,6.645c8.673,0,15.812-2.9,16.792-6.645h0.009L45.267,500.33z"
					/>
				<path fill="#BEEFFF" d="M12.79,507.596v3.936c0,0,2.614,2.473,8.999,2.828v-3.93C21.789,510.43,16.568,510.041,12.79,507.596z"
					/>
				<path fill="#BEEFFF" d="M38.003,508.871l-0.344,4.34c2.438-0.904,3.72-2.236,3.72-2.236l0.554-4.115
					C40.685,507.771,39.31,508.4,38.003,508.871z"/>
				<ellipse fill="#D4FAFF" cx="26.866" cy="500.33" rx="18.401" ry="8.189"/>
				<path fill="#A0D8FF" d="M42.41,499.494c0,3.82-6.964,6.92-15.544,6.92c-8.58,0-15.535-3.1-15.535-6.92
					c0-3.814,6.955-6.914,15.535-6.914C35.446,492.58,42.41,495.68,42.41,499.494z"/>
			</g>
		</g>
		<path fill="#00FFEA" d="M14.532,481.51c0,0-10.306-26.209-6.066-31.453c4.231-5.246,13.155,24.113,13.155,24.113
			s-1.843-23.805,2.623-24.75c4.45-0.941,5.757,11.377,5.757,11.377s4.466-11.836,8.136-11.428
			c3.67,0.426-1.835,19.834-1.835,19.834s2.765-6.096,6.108-6.854c3.326-0.756-5.321,29.793-5.321,29.793l-10.616-1.492"/>
		<path fill="#E70F40" d="M14.499,500.33c0,0-7.918-4.18-7.165-8.188c0.746-4.012,8.103,1.395,8.103,1.395
			s-13.825-18.488,6.118-29.494c18.007-9.934,14.437,27.004,14.437,27.004s4.056-5.027,8.179-3.945
			c5.321,1.4-4.919,13.229-4.919,13.229S30.604,501.104,14.499,500.33z"/>
		<path fill="#B90235" d="M18.52,502.654c0,0-7.156-4.342-5.127-6.732c2.044-2.385,6.15,2.012,6.15,2.012
			s-6.586-16.064-1.902-20.158c4.692-4.098,9.226,14.367,9.226,14.367s0.135-12.174,4.391-12.322
			c4.231-0.135,1.307,16.992,1.307,16.992s3.369-11.582,6.293-11.279c2.925,0.291-2.48,13.607-2.48,13.607s1.466-2.582,3.343-2.203
			c1.894,0.402-2.462,5.717-2.462,5.717S29.723,505.98,18.52,502.654z"/>
	</g>
	<g>
		<g>
			<path fill="#14AFFF" d="M221.332,117.829c0,0,16.95,13.758,20.034,31.028c3.864,21.526-13.666,29.963-13.666,29.963
				l-1.811-10.834c0,0,4.961-6.921,4.123-12.812c-1.064-7.575-6.863-13.089-6.863-13.089S218.482,131.151,221.332,117.829z"/>
			<path fill="#14AFFF" d="M193.47,117.829c0,0-16.935,13.758-20.035,31.028c-3.854,21.526,13.676,29.963,13.676,29.963l1.81-10.834
				c0,0-4.96-6.921-4.14-12.812c1.073-7.575,6.88-13.089,6.88-13.089S196.311,131.151,193.47,117.829z"/>
			<path fill="#0091F4" d="M192.297,132.392l-0.578-12.846c0,0-9.594,9.612-6.41,33.156l0.009-0.007
				c1.793-6.26,6.343-10.609,6.343-10.609s0.075-0.175,0.192-0.502L192.297,132.392z"/>
			<path fill="#0091F4" d="M222.756,132.392l0.561-12.846c0,0,9.368,9.612,6.176,33.156l0,0c-1.97-6.091-6.109-10.616-6.109-10.616
				s-0.076-0.175-0.193-0.502L222.756,132.392z"/>
			<path fill="#3BFAFF" d="M227.163,128.454c-0.788-7.391-6.636-13.424-12.954-13.424H214.2h-6.71l0,0h-6.695l0,0
				c-6.326,0-12.175,6.042-12.971,13.448c-1.072,10.256,0.385,25.255,2.137,44.754c0,0,5.195,6.611,17.53,5.212
				c12.342,1.399,17.537-5.212,17.537-5.212C226.786,153.716,228.245,138.717,227.163,128.454z"/>
			<rect x="214.276" y="131.805" fill="#14AFFF" width="8.772" height="2.581"/>
			<path opacity="0.51" fill="#3BD2FF" d="M188.007,149.862c0.311,4.542,0.712,9.468,1.19,14.815l10.013,1.249l23.838-2.263
				c0,0,1.5-1.223,3.093-3.049c0.343-3.863,0.62-7.492,0.846-10.901C208.017,155.393,192.574,151.354,188.007,149.862z"/>
			<g>
				<g>
					<g>
						<path fill="#FFB59C" d="M213.681,95.054c0,2.404,1.952,4.357,4.358,4.357c2.413,0,4.357-1.953,4.357-4.357
							c0-2.413-1.944-4.357-4.357-4.357C215.633,90.696,213.681,92.641,213.681,95.054z"/>
					</g>
					<g>
						<path fill="#FFB59C" d="M192.297,95.054c0,2.404,1.952,4.357,4.358,4.357c2.405,0,4.365-1.953,4.365-4.357
							c0-2.413-1.96-4.357-4.365-4.357C194.249,90.696,192.297,92.641,192.297,95.054z"/>
					</g>
					<rect x="200.467" y="102.612" fill="#FFB899" width="14.052" height="14.069"/>
					<path fill="#FFCDA9" d="M208.696,76.611l-1.877,0.813l-0.52-0.813l-10.55,7.951v14.463c2.162,9.241,11.74,13.038,11.74,13.038
						s9.585-3.797,11.748-13.038V84.563L208.696,76.611z"/>
					<polygon fill="#FF907D" points="209.089,99.763 207.489,93.102 205.905,99.763 					"/>
					<path fill="#131637" d="M219.237,94.333l-1.601-6.091c0,0-3.955,3.217-8.974,3.049l2.313-3.033c0,0-7.132,4.231-13.147,3.075
						l0.837-2.521l-0.326-0.57l-2.59,4.742c0,0-6.51-12.284,0-20.395l2.438,3.042c0,0-1.098-4.014,1.76-6.376l3.401,4.617
						c0,0,2.045-0.444,4.844-0.259c7.39,0.502,12.803,7.231,11.839,14.588L219.237,94.333z"/>
				</g>
				<path fill="#FFFFFF" d="M207.489,106.977c2.706,0,4.884-2.187,4.884-4.884h-9.761
					C202.613,104.791,204.79,106.977,207.489,106.977z"/>
			</g>
			<g>
				<path fill="#14AFFF" d="M207.489,116.681l-4.358,4.356c0,0-6.586-2.731-2.664-8.973
					C200.467,112.064,203.006,115.533,207.489,116.681z"/>
				<path fill="#14AFFF" d="M207.489,116.681l4.373,4.356c0,0,6.587-2.731,2.658-8.973
					C214.52,112.064,211.988,115.533,207.489,116.681z"/>
			</g>
			<path fill="#FFFFFF" d="M235.299,185.784h-55.613v-34.112c0-1.843,1.492-3.351,3.335-3.351h48.934
				c1.86,0,3.344,1.508,3.344,3.351V185.784z"/>
			<linearGradient id="SVGID_1_" gradientUnits="userSpaceOnUse" x1="182.0938" y1="166.2378" x2="208.9106" y2="193.0546">
				<stop  offset="0" style="stop-color:#E2F3F8"/>
				<stop  offset="1" style="stop-color:#D7E4FF"/>
			</linearGradient>
			<path fill="url(#SVGID_1_)" d="M207.388,183.128c0,0-10.767-11.069-27.701-16.072v5.178L207.388,183.128z"/>
			
				<linearGradient id="SVGID_2_" gradientUnits="userSpaceOnUse" x1="682.5918" y1="166.2383" x2="709.4086" y2="193.0551" gradientTransform="matrix(-1 0 0 1 915.4824 0)">
				<stop  offset="0" style="stop-color:#E2F3F8"/>
				<stop  offset="1" style="stop-color:#D7E4FF"/>
			</linearGradient>
			<path fill="url(#SVGID_2_)" d="M207.598,183.128c0,0,10.767-11.069,27.701-16.072v5.178L207.598,183.128z"/>
		</g>
		<g>
			<g>
				<path fill="#002A88" d="M173.612,195.697v6.375c0,0,35.042-3.769,60.372-9.434c0,0,18.466-5.673,32.871-13.692
					c0,0-1.65-12.042-15.819-11.798c-14.162,0.235-42.961,16.039-42.961,16.039L173.612,195.697z"/>
				<polyline fill="#001F5F" points="207.589,197.523 206.684,197.356 180.827,192.639 173.612,195.697 173.612,202.072 				"/>
				<path fill="#001F5F" d="M233.984,192.639l7.691-6.855l25.18-6.837C266.855,178.946,250.557,189.378,233.984,192.639z"/>
			</g>
			<g>
				<path fill="#003591" d="M241.19,195.697v6.375c0,0-35.033-3.769-60.363-9.434c0,0-18.477-5.673-32.872-13.692
					c0,0,1.642-12.042,15.819-11.798c14.152,0.235,42.952,16.039,42.952,16.039L241.19,195.697z"/>
				<path fill="#001F5F" d="M180.827,192.639l-7.709-6.855l-25.162-6.837C147.955,178.946,164.252,189.378,180.827,192.639z"/>
			</g>
		</g>
		<path fill="#000F1F" d="M173.612,202.072c0,0-6.293,1.124-21.61,1.978v-5.237l16.49-5.228l5.12,2.111V202.072z"/>
		<path fill="#000F1F" d="M241.19,202.072c0,0,6.293,1.124,21.618,1.978v-5.237l-16.499-5.228l-5.119,2.111V202.072z"/>
	</g>
</g>
</svg>
