<?xml version="1.0" encoding="utf-8"?>
<!-- Generator: Adobe Illustrator 16.0.3, SVG Export Plug-In . SVG Version: 6.00 Build 0)  -->
<!DOCTYPE svg PUBLIC "-//W3C//DTD SVG 1.1//EN" "http://www.w3.org/Graphics/SVG/1.1/DTD/svg11.dtd">
<svg version="1.1" id="Capa_1" xmlns="http://www.w3.org/2000/svg" xmlns:xlink="http://www.w3.org/1999/xlink" x="0px" y="0px"
	 width="600px" height="600px" viewBox="0 0 600 600" enable-background="new 0 0 600 600" xml:space="preserve">
<g>
	<path opacity="0.2" fill-rule="evenodd" clip-rule="evenodd" fill="#808080" d="M280.874,505.678l307.802-0.543L522.35,394.291
		h-0.305c0.09-0.723,0.156-1.453,0.156-2.201V147.859c0-9.48-7.584-17.163-16.945-17.163H98.574
		c-9.356,0-16.944,7.683-16.944,17.163V392.09c0,0.98,0.099,1.936,0.26,2.871l-0.139-2.924L12.548,506.143h0.697
		c0.318,6.043,6.712,10.867,14.57,10.867h546.908c8.059,0,14.598-5.072,14.598-11.332H280.874z"/>
	<g>
		<g>
			<g>
				<path fill-rule="evenodd" clip-rule="evenodd" fill="#666666" d="M525.291,382.82c0,9.375-7.602,16.975-16.977,16.975H100.924
					c-9.374,0-16.98-7.6-16.98-16.975V141.257c0-9.374,7.607-16.976,16.98-16.976h407.391c9.375,0,16.977,7.602,16.977,16.976
					V382.82z"/>
				<polygon fill-rule="evenodd" clip-rule="evenodd" fill="#C1C1C1" points="83.795,385.664 14.741,495.631 591.885,494.635 
					525.445,384.996 				"/>
				<path fill-rule="evenodd" clip-rule="evenodd" fill="#666666" d="M592.527,495.164L592.527,495.164
					c0,6.193-6.545,11.213-14.627,11.213H30.036c-8.076,0-14.622-5.02-14.622-11.213l0,0"/>
				<linearGradient id="SVGID_1_" gradientUnits="userSpaceOnUse" x1="108.5532" y1="255.6782" x2="500.9102" y2="255.6782">
					<stop  offset="0" style="stop-color:#FF5900"/>
					<stop  offset="1" style="stop-color:#FFF100"/>
				</linearGradient>
				
					<rect x="108.553" y="146.435" opacity="0.9" fill-rule="evenodd" clip-rule="evenodd" fill="url(#SVGID_1_)" width="392.357" height="218.487"/>
			</g>
			<g>
				<g opacity="0.15">
					<polygon fill="#070707" points="112.661,417.869 99.162,417.869 105.274,404.16 118.33,404.16 					"/>
					<polygon fill="#070707" points="123.08,435.172 91.447,435.172 97.56,421.463 128.195,421.463 					"/>
					<polygon fill="#070707" points="116.749,454.107 83.74,454.107 89.833,440.393 121.844,440.393 					"/>
					<polygon fill="#070707" points="128.863,417.869 115.365,417.869 120.945,404.16 134.001,404.16 					"/>
					<polygon fill="#070707" points="145.062,417.869 131.567,417.869 136.616,404.16 149.667,404.16 					"/>
					<polygon fill="#070707" points="161.264,417.869 147.76,417.869 152.278,404.16 165.338,404.16 					"/>
					<polygon fill="#070707" points="177.467,417.869 163.963,417.869 167.949,404.16 181.009,404.16 					"/>
					<polygon fill="#070707" points="193.669,417.869 180.166,417.869 183.62,404.16 196.68,404.16 					"/>
					<polygon fill="#070707" points="209.862,417.869 196.368,417.869 199.291,404.16 212.342,404.16 					"/>
					<polygon fill="#070707" points="226.065,417.869 212.566,417.869 214.957,404.16 228.013,404.16 					"/>
					<polygon fill="#070707" points="242.268,417.869 228.769,417.869 230.627,404.16 243.684,404.16 					"/>
					<polygon fill="#070707" points="258.469,417.869 244.966,417.869 246.293,404.16 259.354,404.16 					"/>
					<polygon fill="#070707" points="274.673,417.869 261.169,417.869 261.965,404.16 275.025,404.16 					"/>
					<polygon fill="#070707" points="290.866,417.869 277.372,417.869 277.636,404.16 290.687,404.16 					"/>
					<polygon fill="#070707" points="307.066,417.869 293.569,417.869 293.302,404.16 306.357,404.16 					"/>
					<polygon fill="#070707" points="323.271,417.869 309.771,417.869 308.973,404.16 322.029,404.16 					"/>
					<polygon fill="#070707" points="339.473,417.869 325.971,417.869 324.639,404.16 337.699,404.16 					"/>
					<polygon fill="#070707" points="355.676,417.869 342.172,417.869 340.309,404.16 353.371,404.16 					"/>
					<polygon fill="#070707" points="371.873,417.869 358.369,417.869 355.977,404.16 369.037,404.16 					"/>
					<polygon fill="#070707" points="388.07,417.869 374.574,417.869 371.648,404.16 384.703,404.16 					"/>
					<polygon fill="#070707" points="404.273,417.869 390.77,417.869 387.313,404.16 400.373,404.16 					"/>
					<polygon fill="#070707" points="420.477,417.869 406.973,417.869 402.984,404.16 416.045,404.16 					"/>
					<polygon fill="#070707" points="436.676,417.869 423.176,417.869 418.654,404.16 431.711,404.16 					"/>
					<polygon fill="#070707" points="452.877,417.869 439.377,417.869 434.326,404.16 447.383,404.16 					"/>
					<polygon fill="#070707" points="469.08,417.869 455.576,417.869 449.992,404.16 463.053,404.16 					"/>
					<polygon fill="#070707" points="485.277,417.869 471.773,417.869 465.658,404.16 478.719,404.16 					"/>
					<polygon fill="#070707" points="501.479,417.869 487.977,417.869 481.33,404.16 494.389,404.16 					"/>
					<polygon fill="#070707" points="90.385,471.734 75.146,471.734 81.259,458.023 96.055,458.023 					"/>
					<polygon fill="#070707" points="108.677,471.734 93.438,471.734 99.019,458.023 113.815,458.023 					"/>
					<polygon fill="#070707" points="126.963,471.734 111.729,471.734 116.779,458.023 131.57,458.023 					"/>
					<polygon fill="#070707" points="145.255,471.734 130.01,471.734 134.528,458.023 149.33,458.023 					"/>
					<polygon fill="#070707" points="163.547,471.734 148.302,471.734 152.289,458.023 167.09,458.023 					"/>
					<polygon fill="#070707" points="181.839,471.734 166.594,471.734 170.048,458.023 184.85,458.023 					"/>
					<polygon fill="#070707" points="418.834,471.734 185.645,471.734 188.545,458.023 414.955,458.023 					"/>
					<polygon fill="#070707" points="437.891,471.734 422.646,471.734 418.656,458.023 433.457,458.023 					"/>
					<polygon fill="#070707" points="456.178,471.734 440.938,471.734 436.416,458.023 451.213,458.023 					"/>
					<polygon fill="#070707" points="474.469,471.734 459.229,471.734 454.176,458.023 468.973,458.023 					"/>
					<polygon fill="#070707" points="492.76,471.734 477.516,471.734 471.932,458.023 486.732,458.023 					"/>
					<polygon fill="#070707" points="511.047,471.734 495.803,471.734 489.686,458.023 504.488,458.023 					"/>
					<polygon fill="#070707" points="529.338,471.734 514.094,471.734 507.445,458.023 522.246,458.023 					"/>
					<polygon fill="#070707" points="139.248,435.172 125.195,435.172 130.244,421.463 143.854,421.463 					"/>
					<polygon fill="#070707" points="156.122,435.172 142.059,435.172 146.576,421.463 160.196,421.463 					"/>
					<polygon fill="#070707" points="172.995,435.172 158.932,435.172 162.918,421.463 176.538,421.463 					"/>
					<polygon fill="#070707" points="189.869,435.172 175.806,435.172 179.26,421.463 192.88,421.463 					"/>
					<polygon fill="#070707" points="206.732,435.172 192.68,435.172 195.602,421.463 209.212,421.463 					"/>
					<polygon fill="#070707" points="223.606,435.172 209.548,435.172 211.939,421.463 225.554,421.463 					"/>
					<polygon fill="#070707" points="240.48,435.172 226.422,435.172 228.281,421.463 241.897,421.463 					"/>
					<polygon fill="#070707" points="257.353,435.172 243.29,435.172 244.618,421.463 258.237,421.463 					"/>
					<polygon fill="#070707" points="274.228,435.172 260.165,435.172 260.96,421.463 274.58,421.463 					"/>
					<polygon fill="#070707" points="291.091,435.172 277.039,435.172 277.303,421.463 290.913,421.463 					"/>
					<polygon fill="#070707" points="307.965,435.172 293.907,435.172 293.639,421.463 307.254,421.463 					"/>
					<polygon fill="#070707" points="324.838,435.172 310.779,435.172 309.98,421.463 323.596,421.463 					"/>
					<polygon fill="#070707" points="341.713,435.172 327.648,435.172 326.318,421.463 339.938,421.463 					"/>
					<polygon fill="#070707" points="358.586,435.172 344.521,435.172 342.66,421.463 356.281,421.463 					"/>
					<polygon fill="#070707" points="375.455,435.172 361.391,435.172 358.998,421.463 372.617,421.463 					"/>
					<polygon fill="#070707" points="392.322,435.172 378.266,435.172 375.34,421.463 388.955,421.463 					"/>
					<polygon fill="#070707" points="409.197,435.172 395.133,435.172 391.676,421.463 405.297,421.463 					"/>
					<polygon fill="#070707" points="426.07,435.172 412.008,435.172 408.018,421.463 421.639,421.463 					"/>
					<polygon fill="#070707" points="442.939,435.172 428.881,435.172 424.359,421.463 437.977,421.463 					"/>
					<polygon fill="#070707" points="459.814,435.172 445.756,435.172 440.703,421.463 454.318,421.463 					"/>
					<polygon fill="#070707" points="476.686,435.172 462.625,435.172 457.041,421.463 470.658,421.463 					"/>
					<polygon fill="#070707" points="493.557,435.172 479.492,435.172 473.377,421.463 486.996,421.463 					"/>
					<polygon fill="#070707" points="519.713,453.125 505.072,453.125 489.719,421.463 503.338,421.463 					"/>
					<polygon fill="#070707" points="132.886,454.107 118.221,454.107 123.272,440.393 137.494,440.393 					"/>
					<polygon fill="#070707" points="150.494,454.107 135.819,454.107 140.338,440.393 154.57,440.393 					"/>
					<polygon fill="#070707" points="168.102,454.107 153.427,454.107 157.414,440.393 171.646,440.393 					"/>
					<polygon fill="#070707" points="185.71,454.107 171.035,454.107 174.49,440.393 188.722,440.393 					"/>
					<polygon fill="#070707" points="203.308,454.107 188.643,454.107 191.567,440.393 205.789,440.393 					"/>
					<polygon fill="#070707" points="220.916,454.107 206.246,454.107 208.638,440.393 222.865,440.393 					"/>
					<polygon fill="#070707" points="238.524,454.107 223.854,454.107 225.714,440.393 239.941,440.393 					"/>
					<polygon fill="#070707" points="256.131,454.107 241.457,454.107 242.785,440.393 257.016,440.393 					"/>
					<polygon fill="#070707" points="273.74,454.107 259.065,454.107 259.861,440.393 274.093,440.393 					"/>
					<polygon fill="#070707" points="291.338,454.107 276.674,454.107 276.938,440.393 291.159,440.393 					"/>
					<polygon fill="#070707" points="308.945,454.107 294.276,454.107 294.008,440.393 308.234,440.393 					"/>
					<polygon fill="#070707" points="326.555,454.107 311.883,454.107 311.084,440.393 325.313,440.393 					"/>
					<polygon fill="#070707" points="344.162,454.107 329.488,454.107 328.156,440.393 342.389,440.393 					"/>
					<polygon fill="#070707" points="361.771,454.107 347.094,454.107 345.23,440.393 359.465,440.393 					"/>
					<polygon fill="#070707" points="379.373,454.107 364.697,454.107 362.303,440.393 376.535,440.393 					"/>
					<polygon fill="#070707" points="396.977,454.107 382.307,454.107 379.381,440.393 393.605,440.393 					"/>
					<polygon fill="#070707" points="414.584,454.107 399.908,454.107 396.451,440.393 410.682,440.393 					"/>
					<polygon fill="#070707" points="432.191,454.107 417.518,454.107 413.527,440.393 427.758,440.393 					"/>
					<polygon fill="#070707" points="449.797,454.107 435.125,454.107 430.604,440.393 444.83,440.393 					"/>
					<polygon fill="#070707" points="467.404,454.107 452.732,454.107 447.68,440.393 461.906,440.393 					"/>
					<polygon fill="#070707" points="485.012,454.107 470.338,454.107 464.75,440.393 478.982,440.393 					"/>
					<polygon fill="#070707" points="502.615,454.107 487.939,454.107 481.822,440.393 496.053,440.393 					"/>
				</g>
				<g>
					<g>
						<polygon fill="#727171" points="112.661,416.869 99.162,416.869 105.274,403.16 118.33,403.16 						"/>
						<polygon fill="#727171" points="123.08,434.172 91.447,434.172 97.56,420.463 128.195,420.463 						"/>
						<polygon fill="#727171" points="116.749,453.107 83.74,453.107 89.833,439.393 121.844,439.393 						"/>
						<polygon fill="#727171" points="128.863,416.869 115.365,416.869 120.945,403.16 134.001,403.16 						"/>
						<polygon fill="#727171" points="145.062,416.869 131.567,416.869 136.616,403.16 149.667,403.16 						"/>
						<polygon fill="#727171" points="161.264,416.869 147.76,416.869 152.278,403.16 165.338,403.16 						"/>
						<polygon fill="#727171" points="177.467,416.869 163.963,416.869 167.949,403.16 181.009,403.16 						"/>
						<polygon fill="#727171" points="193.669,416.869 180.166,416.869 183.62,403.16 196.68,403.16 						"/>
						<polygon fill="#727171" points="209.862,416.869 196.368,416.869 199.291,403.16 212.342,403.16 						"/>
						<polygon fill="#727171" points="226.065,416.869 212.566,416.869 214.957,403.16 228.013,403.16 						"/>
						<polygon fill="#727171" points="242.268,416.869 228.769,416.869 230.627,403.16 243.684,403.16 						"/>
						<polygon fill="#727171" points="258.469,416.869 244.966,416.869 246.293,403.16 259.354,403.16 						"/>
						<polygon fill="#727171" points="274.673,416.869 261.169,416.869 261.965,403.16 275.025,403.16 						"/>
						<polygon fill="#727171" points="290.866,416.869 277.372,416.869 277.636,403.16 290.687,403.16 						"/>
						<polygon fill="#727171" points="307.066,416.869 293.569,416.869 293.302,403.16 306.357,403.16 						"/>
						<polygon fill="#727171" points="323.271,416.869 309.771,416.869 308.973,403.16 322.029,403.16 						"/>
						<polygon fill="#727171" points="339.473,416.869 325.971,416.869 324.639,403.16 337.699,403.16 						"/>
						<polygon fill="#727171" points="355.676,416.869 342.172,416.869 340.309,403.16 353.371,403.16 						"/>
						<polygon fill="#727171" points="371.873,416.869 358.369,416.869 355.977,403.16 369.037,403.16 						"/>
						<polygon fill="#727171" points="388.07,416.869 374.574,416.869 371.648,403.16 384.703,403.16 						"/>
						<polygon fill="#727171" points="404.273,416.869 390.77,416.869 387.313,403.16 400.373,403.16 						"/>
						<polygon fill="#727171" points="420.477,416.869 406.973,416.869 402.984,403.16 416.045,403.16 						"/>
						<polygon fill="#727171" points="436.676,416.869 423.176,416.869 418.654,403.16 431.711,403.16 						"/>
						<polygon fill="#727171" points="452.877,416.869 439.377,416.869 434.326,403.16 447.383,403.16 						"/>
						<polygon fill="#727171" points="469.08,416.869 455.576,416.869 449.992,403.16 463.053,403.16 						"/>
						<polygon fill="#727171" points="485.277,416.869 471.773,416.869 465.658,403.16 478.719,403.16 						"/>
						<polygon fill="#727171" points="501.479,416.869 487.977,416.869 481.33,403.16 494.389,403.16 						"/>
						<polygon fill="#727171" points="90.385,470.734 75.146,470.734 81.259,457.023 96.055,457.023 						"/>
						<polygon fill="#727171" points="108.677,470.734 93.438,470.734 99.019,457.023 113.815,457.023 						"/>
						<polygon fill="#727171" points="126.963,470.734 111.729,470.734 116.779,457.023 131.57,457.023 						"/>
						<polygon fill="#727171" points="145.255,470.734 130.01,470.734 134.528,457.023 149.33,457.023 						"/>
						<polygon fill="#727171" points="163.547,470.734 148.302,470.734 152.289,457.023 167.09,457.023 						"/>
						<polygon fill="#727171" points="181.839,470.734 166.594,470.734 170.048,457.023 184.85,457.023 						"/>
						<polygon fill="#727171" points="418.834,470.734 185.645,470.734 188.545,457.023 414.955,457.023 						"/>
						<polygon fill="#727171" points="437.891,470.734 422.646,470.734 418.656,457.023 433.457,457.023 						"/>
						<polygon fill="#727171" points="456.178,470.734 440.938,470.734 436.416,457.023 451.213,457.023 						"/>
						<polygon fill="#727171" points="474.469,470.734 459.229,470.734 454.176,457.023 468.973,457.023 						"/>
						<polygon fill="#727171" points="492.76,470.734 477.516,470.734 471.932,457.023 486.732,457.023 						"/>
						<polygon fill="#727171" points="511.047,470.734 495.803,470.734 489.686,457.023 504.488,457.023 						"/>
						<polygon fill="#727171" points="529.338,470.734 514.094,470.734 507.445,457.023 522.246,457.023 						"/>
						<polygon fill="#727171" points="139.248,434.172 125.195,434.172 130.244,420.463 143.854,420.463 						"/>
						<polygon fill="#727171" points="156.122,434.172 142.059,434.172 146.576,420.463 160.196,420.463 						"/>
						<polygon fill="#727171" points="172.995,434.172 158.932,434.172 162.918,420.463 176.538,420.463 						"/>
						<polygon fill="#727171" points="189.869,434.172 175.806,434.172 179.26,420.463 192.88,420.463 						"/>
						<polygon fill="#727171" points="206.732,434.172 192.68,434.172 195.602,420.463 209.212,420.463 						"/>
						<polygon fill="#727171" points="223.606,434.172 209.548,434.172 211.939,420.463 225.554,420.463 						"/>
						<polygon fill="#727171" points="240.48,434.172 226.422,434.172 228.281,420.463 241.897,420.463 						"/>
						<polygon fill="#727171" points="257.353,434.172 243.29,434.172 244.618,420.463 258.237,420.463 						"/>
						<polygon fill="#727171" points="274.228,434.172 260.165,434.172 260.96,420.463 274.58,420.463 						"/>
						<polygon fill="#727171" points="291.091,434.172 277.039,434.172 277.303,420.463 290.913,420.463 						"/>
						<polygon fill="#727171" points="307.965,434.172 293.907,434.172 293.639,420.463 307.254,420.463 						"/>
						<polygon fill="#727171" points="324.838,434.172 310.779,434.172 309.98,420.463 323.596,420.463 						"/>
						<polygon fill="#727171" points="341.713,434.172 327.648,434.172 326.318,420.463 339.938,420.463 						"/>
						<polygon fill="#727171" points="358.586,434.172 344.521,434.172 342.66,420.463 356.281,420.463 						"/>
						<polygon fill="#727171" points="375.455,434.172 361.391,434.172 358.998,420.463 372.617,420.463 						"/>
						<polygon fill="#727171" points="392.322,434.172 378.266,434.172 375.34,420.463 388.955,420.463 						"/>
						<polygon fill="#727171" points="409.197,434.172 395.133,434.172 391.676,420.463 405.297,420.463 						"/>
						<polygon fill="#727171" points="426.07,434.172 412.008,434.172 408.018,420.463 421.639,420.463 						"/>
						<polygon fill="#727171" points="442.939,434.172 428.881,434.172 424.359,420.463 437.977,420.463 						"/>
						<polygon fill="#727171" points="459.814,434.172 445.756,434.172 440.703,420.463 454.318,420.463 						"/>
						<polygon fill="#727171" points="476.686,434.172 462.625,434.172 457.041,420.463 470.658,420.463 						"/>
						<polygon fill="#727171" points="493.557,434.172 479.492,434.172 473.377,420.463 486.996,420.463 						"/>
						<polygon fill="#727171" points="519.713,452.125 505.072,452.125 489.719,420.463 503.338,420.463 						"/>
						<polygon fill="#727171" points="132.886,453.107 118.221,453.107 123.272,439.393 137.494,439.393 						"/>
						<polygon fill="#727171" points="150.494,453.107 135.819,453.107 140.338,439.393 154.57,439.393 						"/>
						<polygon fill="#727171" points="168.102,453.107 153.427,453.107 157.414,439.393 171.646,439.393 						"/>
						<polygon fill="#727171" points="185.71,453.107 171.035,453.107 174.49,439.393 188.722,439.393 						"/>
						<polygon fill="#727171" points="203.308,453.107 188.643,453.107 191.567,439.393 205.789,439.393 						"/>
						<polygon fill="#727171" points="220.916,453.107 206.246,453.107 208.638,439.393 222.865,439.393 						"/>
						<polygon fill="#727171" points="238.524,453.107 223.854,453.107 225.714,439.393 239.941,439.393 						"/>
						<polygon fill="#727171" points="256.131,453.107 241.457,453.107 242.785,439.393 257.016,439.393 						"/>
						<polygon fill="#727171" points="273.74,453.107 259.065,453.107 259.861,439.393 274.093,439.393 						"/>
						<polygon fill="#727171" points="291.338,453.107 276.674,453.107 276.938,439.393 291.159,439.393 						"/>
						<polygon fill="#727171" points="308.945,453.107 294.276,453.107 294.008,439.393 308.234,439.393 						"/>
						<polygon fill="#727171" points="326.555,453.107 311.883,453.107 311.084,439.393 325.313,439.393 						"/>
						<polygon fill="#727171" points="344.162,453.107 329.488,453.107 328.156,439.393 342.389,439.393 						"/>
						<polygon fill="#727171" points="361.771,453.107 347.094,453.107 345.23,439.393 359.465,439.393 						"/>
						<polygon fill="#727171" points="379.373,453.107 364.697,453.107 362.303,439.393 376.535,439.393 						"/>
						<polygon fill="#727171" points="396.977,453.107 382.307,453.107 379.381,439.393 393.605,439.393 						"/>
						<polygon fill="#727171" points="414.584,453.107 399.908,453.107 396.451,439.393 410.682,439.393 						"/>
						<polygon fill="#727171" points="432.191,453.107 417.518,453.107 413.527,439.393 427.758,439.393 						"/>
						<polygon fill="#727171" points="449.797,453.107 435.125,453.107 430.604,439.393 444.83,439.393 						"/>
						<polygon fill="#727171" points="467.404,453.107 452.732,453.107 447.68,439.393 461.906,439.393 						"/>
						<polygon fill="#727171" points="485.012,453.107 470.338,453.107 464.75,439.393 478.982,439.393 						"/>
						<polygon fill="#727171" points="502.615,453.107 487.939,453.107 481.822,439.393 496.053,439.393 						"/>
					</g>
				</g>
			</g>
		</g>
		<g>
			<g>
				<path fill="#EEEEEE" d="M381.922,178.379c0,0,0.242,0.157,0.709,0.467c0.471,0.309,1.176,0.745,2.063,1.404
					c1.771,1.296,4.373,3.218,7.342,6.104c1.48,1.444,3.082,3.094,4.732,4.999c1.65,1.897,3.266,4.092,4.902,6.519
					c1.629,2.432,3.225,5.12,4.723,8.069c1.49,2.952,2.799,6.187,3.979,9.635c1.172,3.451,2.166,7.133,2.924,11.01
					c0.74,3.879,1.162,7.952,1.355,12.151c0.174,4.204,0.084,8.541-0.336,12.948c-0.4,4.411-1.256,8.862-2.342,13.33
					c-2.242,8.908-5.625,17.899-10.479,26.241c-2.395,4.179-5.045,8.258-7.971,12.148c-2.928,3.898-6.004,7.648-9.457,11.158
					c-6.988,7.117-14.988,12.99-23.371,17.736c-8.393,4.756-17.283,8.09-26.037,10.523c-8.768,2.443-17.559,3.576-25.918,3.738
					c-8.366,0.209-16.368-0.859-23.489-3.076c-3.552-1.137-6.917-2.479-9.885-4.291c-2.964-1.789-5.606-3.848-7.706-6.182
					c-2.107-2.318-3.731-4.822-4.745-7.314c-1.041-2.486-1.552-4.891-1.768-7.037c-0.214-2.15-0.179-4.061,0.05-5.682
					c0.076-0.811,0.219-1.553,0.344-2.227c0.108-0.678,0.26-1.279,0.395-1.816c0.243-1.08,0.52-1.881,0.682-2.424
					c0.17-0.537,0.256-0.818,0.256-0.818l0.789,0.176c0,0-0.054,0.283-0.157,0.82c-0.098,0.543-0.277,1.342-0.394,2.4
					c-0.256,2.1-0.557,5.266,0.188,9.156c0.368,1.939,1.023,4.047,2.126,6.15c1.095,2.109,2.647,4.197,4.638,6.096
					c3.988,3.809,9.751,6.662,16.37,8.299c6.629,1.645,14.115,2.182,21.94,1.691c7.842-0.471,16.049-1.984,24.252-4.449
					c8.203-2.486,16.41-5.953,24.188-10.467c7.768-4.51,15.133-10.051,21.447-16.621c6.357-6.553,11.936-13.866,16.488-21.613
					c4.547-7.757,8.029-15.969,10.314-24.217c2.307-8.246,3.391-16.525,3.41-24.371c0.008-7.848-1.037-15.262-2.854-21.864
					c-1.785-6.615-4.314-12.415-7.033-17.263c-2.723-4.862-5.641-8.771-8.242-11.807c-2.602-3.032-4.881-5.214-6.469-6.649
					c-0.779-0.722-1.416-1.253-1.838-1.615c-0.422-0.358-0.646-0.547-0.646-0.547L381.922,178.379z"/>
				<g>
					<polyline fill-rule="evenodd" clip-rule="evenodd" fill="#033EF9" points="342.104,117.001 381.244,118.39 384.641,124.922 
						357.443,140.324 					"/>
					<polyline fill-rule="evenodd" clip-rule="evenodd" fill="#033EF9" points="319.395,137.222 316.252,176.263 322.352,180.388 
						340.785,155.151 					"/>
					<g>
						<path fill="#BCA79F" d="M298.832,74.528l-8.482,7.47l-8.476,7.472c0,0-1.301,12.825,18.06,34.799
							c19.363,21.975,44.152,38.245,44.152,38.245l9.688-8.54l9.688-8.537c0,0-13.02-26.639-32.383-48.614
							C311.719,74.851,298.832,74.528,298.832,74.528z"/>
						<g>
							<g>
								<path fill="#A9D7D8" d="M314.033,108.809c3.547-3.126,3.895-8.56,0.766-12.112c-3.131-3.55-8.566-3.891-12.114-0.765
									c-3.548,3.128-3.892,8.564-0.767,12.112C305.048,111.597,310.484,111.938,314.033,108.809z"/>
								<path fill="#997973" d="M315.283,110.235c4.34-3.828,4.762-10.448,0.934-14.789c-3.822-4.342-10.441-4.761-14.784-0.933
									c-4.34,3.826-4.762,10.443-0.933,14.785C304.322,113.643,310.941,114.057,315.283,110.235z M303.563,96.931
									c3.001-2.644,7.593-2.354,10.235,0.646c2.641,3.003,2.354,7.593-0.641,10.238c-3.008,2.644-7.599,2.356-10.244-0.646
									C300.272,104.167,300.563,99.574,303.563,96.931z"/>
							</g>
							<g>
								<path fill="#A9D7D8" d="M328.313,124.812c1.713-1.509,1.879-4.133,0.371-5.849c-1.512-1.716-4.135-1.877-5.848-0.368
									c-1.717,1.509-1.885,4.133-0.373,5.849C323.975,126.16,326.6,126.323,328.313,124.812z"/>
								<path fill="#997973" d="M328.918,125.5c2.098-1.848,2.297-5.045,0.449-7.14c-1.85-2.094-5.043-2.301-7.141-0.453
									c-2.096,1.848-2.297,5.046-0.449,7.14C323.627,127.145,326.818,127.346,328.918,125.5z M323.258,119.076
									c1.447-1.274,3.668-1.137,4.941,0.312c1.275,1.453,1.141,3.667-0.313,4.943c-1.445,1.278-3.66,1.136-4.943-0.312
									C321.67,122.572,321.809,120.352,323.258,119.076z"/>
							</g>
							<g>
								<path fill="#A9D7D8" d="M340.9,138.949c1.715-1.507,1.881-4.131,0.369-5.847c-1.506-1.718-4.135-1.879-5.848-0.37
									c-1.715,1.509-1.879,4.133-0.369,5.849C336.564,140.297,339.189,140.46,340.9,138.949z"/>
								<path fill="#997973" d="M341.506,139.635c2.096-1.845,2.297-5.041,0.453-7.138c-1.848-2.094-5.049-2.297-7.139-0.451
									c-2.1,1.845-2.301,5.042-0.453,7.14C336.215,141.284,339.412,141.482,341.506,139.635z M335.844,133.215
									c1.451-1.276,3.668-1.139,4.945,0.31c1.279,1.453,1.135,3.668-0.309,4.942c-1.453,1.281-3.67,1.14-4.947-0.31
									C334.254,136.708,334.398,134.49,335.844,133.215z"/>
							</g>
						</g>
					</g>
					<g>
						<path fill-rule="evenodd" clip-rule="evenodd" fill="#F7AC3B" d="M347.934,161.354l15.318-12.594
							c0,0,9.965,6.611,14.545,19.335c0,0-2.463-0.771-5.697-1.498c0,0,3.145,4.243,3.391,11.302
							C375.49,177.899,361.852,182.833,347.934,161.354z"/>
						<path fill-rule="evenodd" clip-rule="evenodd" fill="#F2D970" d="M349.432,160.103l12.033-9.894
							c0,0,7.752,4.152,11.354,14.148c0,0-2.637-0.495-4.635-1.365c0,0,2.705,4.565,2.895,10.111
							C371.078,173.103,360.367,176.982,349.432,160.103z"/>
						<path fill="#033EF9" d="M365.723,144.432c0.555,0.625,0.502,1.579-0.127,2.132l-21.033,18.732
							c-0.625,0.556-1.58,0.5-2.131-0.121l0,0c-0.557-0.62-0.498-1.575,0.119-2.131l21.045-18.733
							C364.215,143.759,365.166,143.813,365.723,144.432L365.723,144.432z"/>
					</g>
					<g>
						<polygon fill="#033EF9" points="280.973,91.907 273.258,62.584 301.379,73.922 						"/>
						<path fill="#033EF9" d="M302.922,74.043c0.408,0.459,0.368,1.164-0.098,1.569l-20.363,17.945
							c-0.458,0.403-1.162,0.358-1.569-0.101l0,0c-0.404-0.46-0.359-1.164,0.102-1.572l20.363-17.94
							C301.813,73.541,302.518,73.583,302.922,74.043L302.922,74.043z"/>
					</g>
				</g>
			</g>
			<g>
				<g>
					<g>
						<g>
							<polygon fill-rule="evenodd" clip-rule="evenodd" fill="#F7D581" points="335.699,305.152 333.457,304.393 332.057,306.301 
								331.59,303.982 329.24,303.723 331.016,302.158 330.066,299.992 332.309,300.75 333.707,298.846 334.174,301.166 
								336.525,301.424 334.744,302.986 							"/>
							<polygon fill-rule="evenodd" clip-rule="evenodd" fill="#F7D581" points="310.201,311.285 307.084,310.227 305.138,312.881 
								304.492,309.654 301.218,309.291 303.689,307.117 302.365,304.105 305.488,305.158 307.434,302.506 308.08,305.732 
								311.354,306.096 308.879,308.27 							"/>
							<polygon fill-rule="evenodd" clip-rule="evenodd" fill="#F7D581" points="318.027,284.114 316.486,283.592 315.521,284.905 
								315.203,283.31 313.58,283.127 314.809,282.054 314.148,280.562 315.695,281.088 316.656,279.772 316.979,281.37 
								318.592,281.552 317.373,282.624 							"/>
						</g>
						<g>
							<polygon fill-rule="evenodd" clip-rule="evenodd" fill="#F7D581" points="373.795,196.943 373.207,199.237 375.217,200.489 
								372.938,201.125 372.857,203.491 371.168,201.838 369.078,202.949 369.664,200.654 367.66,199.406 369.939,198.764 
								370.02,196.4 371.709,198.058 							"/>
							<polygon fill-rule="evenodd" clip-rule="evenodd" fill="#F7D581" points="381.842,221.898 381.016,225.092 383.814,226.834 
								380.639,227.722 380.527,231.011 378.178,228.708 375.271,230.258 376.088,227.066 373.293,225.324 376.463,224.435 
								376.576,221.145 378.936,223.45 							"/>
							<polygon fill-rule="evenodd" clip-rule="evenodd" fill="#F7D581" points="354.154,216.152 353.752,217.733 355.133,218.593 
								353.563,219.032 353.51,220.665 352.344,219.519 350.904,220.29 351.313,218.709 349.93,217.848 351.496,217.408 
								351.555,215.778 352.715,216.917 							"/>
						</g>
						<g>
							<polygon fill-rule="evenodd" clip-rule="evenodd" fill="#F7D581" points="260.673,219.81 258.753,218.422 256.852,219.831 
								257.094,217.476 254.923,216.534 257.084,215.57 256.815,213.215 258.735,214.605 260.637,213.197 260.395,215.552 
								262.557,216.494 260.404,217.458 							"/>
							<polygon fill-rule="evenodd" clip-rule="evenodd" fill="#F7D581" points="234.498,218.128 231.834,216.2 229.188,218.158 
								229.529,214.883 226.505,213.567 229.515,212.226 229.143,208.952 231.807,210.883 234.453,208.925 234.117,212.201 
								237.135,213.515 234.13,214.856 							"/>
							<polygon fill-rule="evenodd" clip-rule="evenodd" fill="#F7D581" points="250.007,194.488 248.688,193.535 247.384,194.506 
								247.549,192.882 246.052,192.234 247.546,191.57 247.357,189.949 248.681,190.907 249.99,189.937 249.818,191.554 
								251.312,192.207 249.828,192.871 							"/>
						</g>
					</g>
					<g>
						<g>
							<path fill="#F47E14" d="M306.717,191.153c0,0-0.099-1.188-0.234-2.969c-0.152-1.781-0.26-4.153-0.402-6.526
								c-0.063-1.189-0.206-2.377-0.225-3.49c0.009-1.112,0.099-2.153,0.225-3.043c0.229-1.78,0.637-2.967,0.637-2.967h0.178
								c0,0,0.41,1.187,0.639,2.967c0.121,0.89,0.215,1.931,0.215,3.043c-0.018,1.112-0.156,2.301-0.215,3.49
								c-0.145,2.373-0.26,4.745-0.404,6.526c-0.143,1.78-0.234,2.969-0.234,2.969H306.717z"/>
							<path fill="#F47E14" d="M335.08,202.805c0,0,0.691-0.784,1.758-1.933c1.049-1.166,2.508-2.662,3.947-4.176
								c0.721-0.751,1.395-1.561,2.1-2.234c0.727-0.659,1.457-1.208,2.115-1.646c1.303-0.891,2.348-1.296,2.348-1.296l0.121,0.134
								c0,0-0.49,1.005-1.486,2.231c-0.488,0.62-1.098,1.304-1.816,1.969c-0.727,0.648-1.592,1.247-2.402,1.911
								c-1.625,1.305-3.238,2.631-4.486,3.582c-1.238,0.964-2.08,1.592-2.08,1.592L335.08,202.805z"/>
							<path fill="#F47E14" d="M281.152,202.939c0,0-0.839-0.628-2.072-1.592c-1.247-0.951-2.862-2.277-4.494-3.582
								c-0.808-0.664-1.669-1.262-2.4-1.911c-0.713-0.665-1.324-1.349-1.816-1.969c-0.997-1.227-1.485-2.231-1.485-2.231
								l0.121-0.134c0,0,1.044,0.406,2.351,1.296c0.654,0.437,1.389,0.987,2.112,1.646c0.704,0.673,1.377,1.482,2.104,2.234
								c1.436,1.514,2.897,3.01,3.942,4.176c1.067,1.148,1.763,1.933,1.763,1.933L281.152,202.939z"/>
							<path fill="#E2E2E2" d="M290.969,192.236c0,0-1.467-2.556-2.767-5.181c-0.322-0.655-0.727-1.276-1-1.904
								c-0.251-0.637-0.403-1.265-0.493-1.819c-0.197-1.101-0.085-1.93-0.085-1.93l0.161-0.068c0,0,0.656,0.527,1.274,1.456
								c0.314,0.464,0.637,1.022,0.897,1.653c0.242,0.643,0.381,1.375,0.592,2.072c0.879,2.794,1.588,5.654,1.588,5.654
								L290.969,192.236z"/>
							<path fill="#E2E2E2" d="M324.146,192.169c0,0,0.699-2.86,1.578-5.654c0.215-0.697,0.357-1.429,0.592-2.072
								c0.26-0.63,0.588-1.188,0.906-1.653c0.619-0.928,1.264-1.456,1.264-1.456l0.172,0.068c0,0,0.107,0.829-0.092,1.93
								c-0.088,0.554-0.24,1.182-0.492,1.819c-0.268,0.624-0.672,1.249-1.004,1.904c-1.291,2.625-2.764,5.181-2.764,5.181
								L324.146,192.169z"/>
						</g>
						<g>
							<path fill="#F47E14" d="M238.158,270.795c0,0-1.094,0.463-2.741,1.161c-1.641,0.709-3.857,1.574-6.06,2.461
								c-1.112,0.437-2.188,0.948-3.238,1.317c-1.059,0.351-2.072,0.594-2.956,0.761c-1.758,0.351-3.014,0.341-3.014,0.341
								l-0.059-0.17c0,0,0.996-0.766,2.61-1.548c0.808-0.398,1.763-0.819,2.816-1.176c1.059-0.338,2.229-0.58,3.374-0.902
								c2.296-0.622,4.584-1.269,6.324-1.693c1.73-0.437,2.884-0.725,2.884-0.725L238.158,270.795z"/>
							<path fill="#F47E14" d="M240.176,240.197c0,0-0.965-0.41-2.396-1.054c-1.435-0.624-3.318-1.529-5.211-2.413
								c-0.942-0.448-1.919-0.825-2.785-1.283c-0.857-0.477-1.61-0.996-2.234-1.48c-1.26-0.954-1.977-1.813-1.977-1.813l0.089-0.159
								c0,0,1.112,0.146,2.587,0.7c0.75,0.269,1.588,0.629,2.445,1.096c0.852,0.485,1.695,1.113,2.575,1.668
								c1.758,1.125,3.529,2.234,4.826,3.118c1.31,0.861,2.17,1.459,2.17,1.459L240.176,240.197z"/>
							<path fill="#F47E14" d="M257.466,291.277c0,0-0.327,0.996-0.853,2.473c-0.502,1.484-1.247,3.437-1.964,5.395
								c-0.373,0.978-0.669,1.987-1.05,2.885c-0.399,0.893-0.856,1.684-1.287,2.35c-0.844,1.332-1.642,2.121-1.642,2.121
								l-0.166-0.076c0,0,0.054-1.117,0.48-2.637c0.208-0.762,0.494-1.635,0.889-2.529c0.412-0.885,0.968-1.777,1.448-2.706
								c0.982-1.845,1.934-3.699,2.705-5.069c0.75-1.375,1.274-2.282,1.274-2.282L257.466,291.277z"/>
							<path fill="#E2E2E2" d="M244.195,285.375c0,0-1.956,2.207-4.028,4.268c-0.52,0.521-0.982,1.102-1.493,1.559
								c-0.524,0.439-1.067,0.785-1.561,1.045c-0.982,0.539-1.803,0.697-1.803,0.697l-0.117-0.137c0,0,0.292-0.781,0.973-1.664
								c0.341-0.45,0.763-0.937,1.283-1.383c0.529-0.428,1.18-0.794,1.776-1.221c2.368-1.719,4.853-3.301,4.853-3.301
								L244.195,285.375z"/>
							<path fill="#E2E2E2" d="M233.574,253.949c0,0-2.933,0.242-5.866,0.296c-0.727,0.02-1.462,0.122-2.144,0.096
								c-0.687-0.042-1.318-0.173-1.857-0.326c-1.076-0.292-1.785-0.739-1.785-0.739l0.009-0.182c0,0,0.754-0.366,1.857-0.529
								c0.556-0.09,1.197-0.146,1.884-0.11c0.677,0.054,1.398,0.238,2.125,0.34c2.897,0.395,5.786,0.974,5.786,0.974
								L233.574,253.949z"/>
						</g>
						<g>
							<path fill="#F47E14" d="M378.447,269.732c0,0,0.99,0.134,2.475,0.338c1.492,0.202,3.463,0.531,5.441,0.84
								c0.986,0.161,1.98,0.269,2.9,0.448c0.912,0.2,1.75,0.463,2.459,0.727c1.42,0.507,2.328,1.055,2.328,1.055l-0.037,0.146
								c0,0-1.049,0.12-2.547-0.01c-0.758-0.059-1.629-0.168-2.545-0.366c-0.908-0.22-1.859-0.539-2.82-0.805
								c-1.928-0.543-3.855-1.062-5.291-1.505c-1.436-0.432-2.396-0.725-2.396-0.725L378.447,269.732z"/>
							<path fill="#F47E14" d="M363.785,290.937c0,0,0.506,0.717,1.27,1.794c0.77,1.071,1.734,2.536,2.721,3.986
								c0.486,0.734,1.033,1.431,1.459,2.134c0.408,0.71,0.73,1.41,0.973,2.031c0.494,1.229,0.646,2.159,0.646,2.159l-0.135,0.076
								c0,0-0.74-0.582-1.566-1.619c-0.422-0.517-0.875-1.139-1.291-1.848c-0.402-0.714-0.74-1.532-1.139-2.315
								c-0.779-1.572-1.584-3.133-2.141-4.331c-0.559-1.192-0.932-1.986-0.932-1.986L363.785,290.937z"/>
							<path fill="#F47E14" d="M373.352,246.618c0,0,0.668-0.567,1.682-1.42c1.006-0.854,2.383-1.939,3.75-3.046
								c0.686-0.547,1.336-1.144,2-1.63c0.672-0.467,1.346-0.843,1.941-1.139c1.189-0.594,2.105-0.821,2.105-0.821l0.08,0.126
								c0,0-0.521,0.783-1.48,1.696c-0.484,0.459-1.063,0.966-1.736,1.442c-0.678,0.459-1.467,0.865-2.211,1.327
								c-1.502,0.908-2.992,1.837-4.139,2.492c-1.145,0.657-1.906,1.098-1.906,1.098L373.352,246.618z"/>
							<path fill="#E2E2E2" d="M380.379,256.604c0,0,0.594-0.193,1.48-0.451c0.889-0.271,2.08-0.572,3.273-0.895
								c0.592-0.148,1.18-0.368,1.75-0.48c0.564-0.092,1.107-0.103,1.578-0.077c0.934,0.035,1.598,0.27,1.598,0.27l0.027,0.151
								c0,0-0.547,0.44-1.428,0.78c-0.43,0.18-0.951,0.345-1.516,0.445c-0.568,0.077-1.193,0.064-1.811,0.116
								c-1.23,0.084-2.449,0.197-3.383,0.224c-0.924,0.052-1.543,0.063-1.543,0.063L380.379,256.604z"/>
							<path fill="#E2E2E2" d="M374.482,283.863c0,0,0.561,0.271,1.377,0.7c0.834,0.415,1.9,1.025,2.977,1.614
								c0.539,0.306,1.117,0.55,1.598,0.859c0.475,0.328,0.873,0.692,1.197,1.039c0.65,0.672,0.969,1.301,0.969,1.301l-0.084,0.127
								c0,0-0.701-0.06-1.572-0.419c-0.439-0.17-0.924-0.41-1.404-0.733c-0.465-0.332-0.908-0.776-1.385-1.162
								c-0.949-0.789-1.91-1.558-2.6-2.177c-0.701-0.604-1.158-1.023-1.158-1.023L374.482,283.863z"/>
						</g>
					</g>
				</g>
				<g>
					<g>
						<g>
							<g opacity="0.15">
								<path fill="#4C210C" d="M335.076,218.422l-5.764-6.071c-0.74-0.778-1.988-0.818-2.777-0.066l-2.512,2.388
									c-1.592-0.96-3.273-1.718-5.004-2.288l0.162-3.46c0.043-1.085-0.795-2-1.875-2.049l-8.361-0.364
									c-1.084-0.049-2,0.792-2.045,1.879l-0.143,3.268c-2.127,0.419-4.217,1.123-6.2,2.112l-2.107-2.224
									c-0.749-0.788-1.992-0.821-2.781-0.077l-6.064,5.759c-0.79,0.747-0.817,1.991-0.072,2.776l1.758,1.852
									c-1.203,1.765-2.144,3.646-2.844,5.604l-2.27-0.101c-1.094-0.052-2,0.796-2.049,1.877l-0.364,8.358
									c-0.053,1.087,0.781,1.995,1.866,2.047l1.759,0.076c0.43,2.536,1.264,5.015,2.502,7.34l-1.099,1.035
									c-0.785,0.747-0.816,1.994-0.077,2.773l5.758,6.076c0.749,0.785,1.992,0.811,2.778,0.067l0.936-0.892
									c2.027,1.321,4.212,2.311,6.477,2.968l-0.054,1.283c-0.05,1.081,0.799,1.998,1.875,2.049l8.359,0.366
									c1.082,0.048,2-0.798,2.045-1.88l0.072-1.477c2.498-0.566,4.939-1.54,7.193-2.926l1.186,1.252
									c0.744,0.782,1.986,0.814,2.771,0.069l6.072-5.759c0.783-0.747,0.816-1.986,0.072-2.771l-1.525-1.61
									c1.049-1.864,1.848-3.833,2.377-5.865l2.512,0.11c1.076,0.049,2-0.791,2.045-1.877l0.359-8.358
									c0.053-1.079-0.785-1.991-1.865-2.041l-3.033-0.127c-0.543-2.108-1.371-4.158-2.484-6.093l2.352-2.231
									C335.783,220.446,335.82,219.208,335.076,218.422z M318.947,228.544c3.912,4.121,3.74,10.639-0.385,14.552
									c-4.127,3.913-10.643,3.738-14.551-0.379c-3.919-4.128-3.745-10.641,0.377-14.554
									C308.516,224.248,315.027,224.418,318.947,228.544z"/>
								<path fill="#4C210C" d="M300.98,245.615l-4.951-6.75c-0.637-0.87-1.867-1.063-2.741-0.419l-2.793,2.054
									c-1.462-1.156-3.032-2.12-4.678-2.9l0.592-3.413c0.184-1.073-0.534-2.086-1.601-2.27l-8.244-1.415
									c-1.071-0.186-2.081,0.536-2.269,1.608l-0.557,3.225c-2.161,0.146-4.314,0.581-6.413,1.312l-1.812-2.473
									c-0.643-0.873-1.867-1.065-2.745-0.422l-6.747,4.944c-0.87,0.644-1.058,1.873-0.417,2.747l1.512,2.06
									c-1.418,1.599-2.592,3.346-3.53,5.2l-2.238-0.389c-1.076-0.188-2.085,0.54-2.27,1.606l-1.417,8.243
									c-0.184,1.072,0.528,2.082,1.597,2.27l1.731,0.296c0.107,2.565,0.628,5.132,1.557,7.596l-1.216,0.89
									c-0.87,0.642-1.063,1.875-0.422,2.739l4.948,6.755c0.641,0.872,1.87,1.056,2.74,0.414l1.04-0.766
									c1.849,1.565,3.894,2.822,6.061,3.764l-0.22,1.263c-0.184,1.065,0.538,2.085,1.601,2.271l8.248,1.416
									c1.068,0.179,2.082-0.538,2.266-1.608l0.255-1.456c2.547-0.247,5.096-0.908,7.508-1.996l1.019,1.386
									c0.641,0.876,1.865,1.062,2.74,0.424l6.75-4.948c0.875-0.642,1.064-1.871,0.417-2.743l-1.31-1.786
									c1.279-1.716,2.315-3.571,3.095-5.518l2.477,0.424c1.067,0.182,2.089-0.531,2.269-1.608l1.411-8.243
									c0.194-1.059-0.528-2.075-1.601-2.26l-2.986-0.51c-0.269-2.156-0.834-4.297-1.695-6.357l2.618-1.916
									C301.43,247.707,301.617,246.485,300.98,245.615z M285.99,251.945c4.284,5.84,3.023,14.06-2.825,18.346
									s-14.065,3.023-18.349-2.818c-4.292-5.852-3.028-14.063,2.821-18.353C273.486,244.832,281.694,246.09,285.99,251.945z"/>
								<path fill="#4C210C" d="M374.275,266.703l-1.416-4.185c-0.189-0.536-0.773-0.83-1.313-0.646l-1.738,0.587
									c-0.557-0.807-1.186-1.542-1.893-2.193l0.842-1.618c0.262-0.521,0.055-1.144-0.447-1.406l-3.92-2.02
									c-0.518-0.271-1.148-0.065-1.404,0.447l-0.785,1.539c-1.121-0.283-2.27-0.397-3.445-0.358l-0.51-1.535
									c-0.189-0.552-0.781-0.834-1.316-0.657l-4.191,1.426c-0.525,0.175-0.83,0.771-0.643,1.312l0.432,1.279
									c-0.961,0.578-1.84,1.278-2.596,2.059l-1.064-0.546c-0.52-0.27-1.141-0.061-1.412,0.443l-2.014,3.92
									c-0.266,0.512-0.068,1.14,0.443,1.404l0.826,0.417c-0.359,1.314-0.504,2.684-0.418,4.075l-0.758,0.254
									c-0.547,0.179-0.834,0.767-0.656,1.309l1.428,4.188c0.18,0.535,0.771,0.836,1.313,0.646l0.646-0.219
									c0.678,1.079,1.508,2.034,2.445,2.855l-0.305,0.59c-0.27,0.518-0.064,1.146,0.447,1.408l3.92,2.025
									c0.512,0.26,1.141,0.056,1.4-0.451l0.363-0.691c1.322,0.281,2.703,0.345,4.094,0.181l0.287,0.867
									c0.186,0.541,0.771,0.824,1.311,0.646l4.193-1.421c0.529-0.181,0.83-0.77,0.641-1.311l-0.381-1.112
									c0.918-0.657,1.746-1.428,2.443-2.284l1.166,0.607c0.521,0.271,1.141,0.064,1.41-0.447l2.018-3.917
									c0.26-0.514,0.063-1.146-0.453-1.409l-1.412-0.722c0.201-1.132,0.258-2.293,0.146-3.473l1.629-0.548
									C374.168,267.83,374.459,267.25,374.275,266.703z M365.727,267.513c1.229,3.615-0.719,7.554-4.338,8.782
									c-3.627,1.228-7.557-0.706-8.789-4.334c-1.227-3.625,0.713-7.558,4.336-8.782
									C360.559,261.944,364.498,263.887,365.727,267.513z"/>
							</g>
							<g>
								<g>
									<path fill="#ADC9C9" d="M334.076,215.422l-5.764-6.071c-0.74-0.778-1.988-0.818-2.777-0.066l-2.512,2.388
										c-1.592-0.96-3.273-1.718-5.004-2.288l0.162-3.46c0.043-1.085-0.795-2-1.875-2.049l-8.361-0.364
										c-1.084-0.049-2,0.792-2.045,1.879l-0.143,3.268c-2.127,0.419-4.217,1.123-6.2,2.112l-2.107-2.224
										c-0.749-0.788-1.992-0.821-2.781-0.077l-6.064,5.759c-0.79,0.747-0.817,1.991-0.072,2.776l1.758,1.852
										c-1.203,1.765-2.144,3.646-2.844,5.604l-2.27-0.101c-1.094-0.052-2,0.796-2.049,1.877l-0.364,8.358
										c-0.053,1.087,0.781,1.995,1.866,2.047l1.759,0.076c0.43,2.536,1.264,5.015,2.502,7.34l-1.099,1.035
										c-0.785,0.747-0.816,1.994-0.077,2.773l5.758,6.076c0.749,0.785,1.992,0.811,2.778,0.067l0.936-0.892
										c2.027,1.321,4.212,2.311,6.477,2.968l-0.054,1.283c-0.05,1.081,0.799,1.998,1.875,2.049l8.359,0.366
										c1.082,0.048,2-0.798,2.045-1.88l0.072-1.477c2.498-0.566,4.939-1.54,7.193-2.926l1.186,1.252
										c0.744,0.782,1.986,0.814,2.771,0.069l6.072-5.759c0.783-0.747,0.816-1.986,0.072-2.771l-1.525-1.61
										c1.049-1.864,1.848-3.833,2.377-5.865l2.512,0.11c1.076,0.049,2-0.791,2.045-1.877l0.359-8.358
										c0.053-1.079-0.785-1.991-1.865-2.041l-3.033-0.127c-0.543-2.108-1.371-4.158-2.484-6.093l2.352-2.231
										C334.783,217.446,334.82,216.208,334.076,215.422z M317.947,225.544c3.912,4.121,3.74,10.639-0.385,14.552
										c-4.127,3.913-10.643,3.738-14.551-0.379c-3.919-4.128-3.745-10.641,0.377-14.554
										C307.516,221.248,314.027,221.418,317.947,225.544z"/>
									<path fill="#DFEFEF" d="M299.98,242.615l-4.951-6.75c-0.637-0.87-1.867-1.063-2.741-0.419l-2.793,2.054
										c-1.462-1.156-3.032-2.12-4.678-2.9l0.592-3.413c0.184-1.073-0.534-2.086-1.601-2.27l-8.244-1.415
										c-1.071-0.186-2.081,0.536-2.269,1.608l-0.557,3.225c-2.161,0.146-4.314,0.581-6.413,1.312l-1.812-2.473
										c-0.643-0.873-1.867-1.065-2.745-0.422l-6.747,4.944c-0.87,0.644-1.058,1.873-0.417,2.747l1.512,2.06
										c-1.418,1.599-2.592,3.346-3.53,5.2l-2.238-0.389c-1.076-0.188-2.085,0.54-2.27,1.606l-1.417,8.243
										c-0.184,1.072,0.528,2.082,1.597,2.27l1.731,0.296c0.107,2.565,0.628,5.132,1.557,7.596l-1.216,0.89
										c-0.87,0.642-1.063,1.875-0.422,2.739l4.948,6.755c0.641,0.872,1.87,1.056,2.74,0.414l1.04-0.766
										c1.849,1.565,3.894,2.822,6.061,3.764l-0.22,1.263c-0.184,1.065,0.538,2.085,1.601,2.271l8.248,1.416
										c1.068,0.179,2.082-0.538,2.266-1.608l0.255-1.456c2.547-0.247,5.096-0.908,7.508-1.996l1.019,1.386
										c0.641,0.876,1.865,1.062,2.74,0.424l6.75-4.948c0.875-0.642,1.064-1.871,0.417-2.743l-1.31-1.786
										c1.279-1.716,2.315-3.571,3.095-5.518l2.477,0.424c1.067,0.182,2.089-0.531,2.269-1.608l1.411-8.243
										c0.194-1.059-0.528-2.075-1.601-2.26l-2.986-0.51c-0.269-2.156-0.834-4.297-1.695-6.357l2.618-1.916
										C300.429,244.707,300.617,243.485,299.98,242.615z M284.99,248.945c4.284,5.84,3.023,14.06-2.825,18.346
										s-14.065,3.023-18.349-2.818c-4.292-5.852-3.028-14.063,2.821-18.353C272.486,241.832,280.694,243.09,284.99,248.945z"/>
									<path fill="#DFEFEF" d="M373.275,263.703l-1.416-4.185c-0.189-0.536-0.773-0.83-1.313-0.646l-1.738,0.587
										c-0.557-0.807-1.186-1.542-1.893-2.193l0.842-1.618c0.262-0.521,0.055-1.144-0.447-1.406l-3.92-2.02
										c-0.518-0.271-1.148-0.065-1.404,0.447l-0.785,1.539c-1.121-0.283-2.27-0.397-3.445-0.358l-0.51-1.535
										c-0.189-0.552-0.781-0.834-1.316-0.657l-4.191,1.426c-0.525,0.175-0.83,0.771-0.643,1.312l0.432,1.279
										c-0.961,0.578-1.84,1.278-2.596,2.059l-1.064-0.546c-0.52-0.27-1.141-0.061-1.412,0.443l-2.014,3.92
										c-0.266,0.512-0.068,1.14,0.443,1.404l0.826,0.417c-0.359,1.314-0.504,2.684-0.418,4.075l-0.758,0.254
										c-0.547,0.179-0.834,0.767-0.656,1.309l1.428,4.188c0.18,0.535,0.771,0.836,1.313,0.646l0.646-0.219
										c0.678,1.079,1.508,2.034,2.445,2.855l-0.305,0.59c-0.27,0.518-0.064,1.146,0.447,1.408l3.92,2.025
										c0.512,0.26,1.141,0.056,1.4-0.451l0.363-0.691c1.322,0.281,2.703,0.345,4.094,0.181l0.287,0.867
										c0.186,0.541,0.771,0.824,1.311,0.646l4.193-1.421c0.529-0.181,0.83-0.77,0.641-1.311l-0.381-1.112
										c0.918-0.657,1.746-1.428,2.443-2.284l1.166,0.607c0.521,0.271,1.141,0.064,1.41-0.447l2.018-3.917
										c0.26-0.515,0.063-1.146-0.453-1.409l-1.412-0.722c0.201-1.132,0.258-2.293,0.146-3.473l1.629-0.548
										C373.168,264.83,373.459,264.25,373.275,263.703z M364.727,264.513c1.229,3.615-0.719,7.554-4.338,8.782
										c-3.627,1.228-7.557-0.707-8.789-4.334c-1.227-3.625,0.713-7.558,4.336-8.782
										C359.559,258.944,363.498,260.887,364.727,264.513z"/>
								</g>
							</g>
						</g>
						<g>
							<path fill="#DFEFEF" d="M300.465,233.29c0-5.404,4.382-9.791,9.791-9.791c5.404,0,9.789,4.387,9.789,9.791
								c0,5.407-4.385,9.792-9.789,9.792C304.847,243.082,300.465,238.697,300.465,233.29z"/>
							<circle fill-rule="evenodd" clip-rule="evenodd" fill="#47B2BA" cx="310.252" cy="232.783" r="5.402"/>
						</g>
					</g>
					<g>
						<g>
							<path fill="#4B8A8C" d="M274.734,270.419c-4.71,0-8.832-2.042-11.316-5.61c-2.184-3.135-2.968-6.871-2.207-10.524
								c0.768-3.695,3.086-7.048,6.531-9.445l32.238-19.505c3.804-2.648,7.616-4.067,10.989-4.067c3.508,0,6.449,1.561,8.494,4.502
								c2.162,3.104,2.672,6.569,1.48,10.028c-1.104,3.185-3.592,6.192-7.199,8.706l-29.157,22.728
								C281.574,269.328,278.182,270.419,274.734,270.419z M310.969,223.292c-2.957,0-6.369,1.292-9.885,3.739l-32.239,19.503
								c-2.96,2.064-4.987,4.978-5.651,8.167c-0.646,3.098,0.027,6.276,1.884,8.948c2.099,3.016,5.62,4.742,9.656,4.742
								c3.031,0,6.023-0.964,8.651-2.792l29.162-22.729c3.291-2.296,5.521-4.96,6.48-7.736c0.992-2.864,0.578-5.622-1.225-8.209
								C316.127,224.512,313.826,223.292,310.969,223.292z"/>
						</g>
						<g>
							<path fill="#4B8A8C" d="M358.637,274.895c-2.682,0-5.652-1.098-8.586-3.177l-45.98-29.794
								c-5.952-4.752-5.857-11.704-2.727-16.18l0.103-0.184c1.718-2.471,5.126-4.008,8.886-4.008c2.727,0,5.283,0.796,7.41,2.304
								l42.256,32.942c5.688,4.034,7.729,9.592,5.285,14.48l-0.109,0.17l-0.439,0.569
								C363.273,273.9,361.164,274.895,358.637,274.895z M303.146,226.657l-0.109,0.193c-2.538,3.585-2.931,9.319,2.217,13.438
								l45.936,29.753c2.584,1.835,5.219,2.828,7.447,2.828c1.9,0,3.418-0.704,4.494-2.093l0.381-0.487
								c1.928-3.969,0.164-8.399-4.723-11.864l-42.258-32.943c-2.213-1.569-4.594-1.901-6.199-1.901
								C307.301,223.58,304.492,224.787,303.146,226.657z"/>
						</g>
					</g>
				</g>
			</g>
		</g>
	</g>
</g>
</svg>
