<?xml version="1.0" encoding="utf-8"?>
<!-- Generator: Adobe Illustrator 16.0.3, SVG Export Plug-In . SVG Version: 6.00 Build 0)  -->
<!DOCTYPE svg PUBLIC "-//W3C//DTD SVG 1.1//EN" "http://www.w3.org/Graphics/SVG/1.1/DTD/svg11.dtd">
<svg version="1.1" id="Capa_1" xmlns="http://www.w3.org/2000/svg" xmlns:xlink="http://www.w3.org/1999/xlink" x="0px" y="0px"
	 width="600px" height="600px" viewBox="0 0 600 600" enable-background="new 0 0 600 600" xml:space="preserve">
<g>
	<g>
		<path fill-rule="evenodd" clip-rule="evenodd" fill="#134861" d="M429.185,250.409V122.37c0-2.971,2.416-5.395,5.388-5.395
			h100.575c2.964,0,5.387,2.424,5.387,5.395v128.039c0,2.956-2.423,5.388-5.387,5.388H434.572
			C431.608,255.797,429.185,253.373,429.185,250.409z"/>
		<path fill-rule="evenodd" clip-rule="evenodd" fill="#0F303F" d="M484.853,116.975h50.295c2.964,0,5.387,2.424,5.387,5.395
			v128.039c0,2.956-2.423,5.388-5.387,5.388h-50.295V116.975z"/>
		<path fill-rule="evenodd" clip-rule="evenodd" fill="#C3E2F4" d="M482.586,122.242c0-1.25,1.017-2.267,2.267-2.267
			c1.265,0,2.281,1.017,2.281,2.267c0,1.265-1.017,2.282-2.281,2.282C483.603,124.524,482.586,123.507,482.586,122.242z"/>
		<path fill-rule="evenodd" clip-rule="evenodd" fill="#C3E2F4" d="M437.423,243.008V129.755c0-1.922,1.58-3.509,3.518-3.509h81.262
			c1.931,0,3.509,1.587,3.509,3.509v113.252c0,1.938-1.578,3.525-3.509,3.525H440.94
			C439.003,246.533,437.423,244.946,437.423,243.008z"/>
		<path fill-rule="evenodd" clip-rule="evenodd" fill="#8AC5D5" d="M484.853,126.246h43.928c1.931,0,3.509,1.587,3.509,3.509
			v113.252c0,1.938-1.578,3.525-3.509,3.525h-43.928V126.246z"/>
		<path fill-rule="evenodd" clip-rule="evenodd" fill="#FDC00F" d="M437.423,243.008v-61.49l2.223,0.516l1.864,1.707l2.491-0.517
			l19.732,5.822l-0.417,2.829c-0.054,0.404,1.451,1.961,2.618,1.317c1.055-0.576,0.202-0.359,1.691-1.564
			c0.771-0.613-0.845-1.466,0.053-2.215c4.616-3.772,13.013-8.322,13.835-8.808l15.431-9.392l3.368,0.202l2.604-3.031l13.492-1.893
			c1.917-0.262,2.636,1.28,5.703,0.105l3.607,1.901v74.511c0,1.938-1.586,3.525-3.517,3.525H440.94
			C439.003,246.533,437.423,244.946,437.423,243.008z"/>
		<path fill-rule="evenodd" clip-rule="evenodd" fill="#F5500A" d="M437.423,180.478l1.505-0.03c0.156-0.576,0.44-1.084,0.853-1.496
			c0.584-0.584,1.4-0.95,2.306-0.95c0.891,0,1.705,0.366,2.289,0.95v0.007c0.592,0.584,0.951,1.4,0.951,2.298
			c0,0.449-0.091,0.89-0.255,1.279l18.948,5.478c0.412-0.187,0.867-0.292,1.338-0.292c0.673,0,1.289,0.202,1.811,0.553
			l29.118-17.855c-0.105-0.314-0.164-0.659-0.164-1.01c0-0.898,0.367-1.706,0.958-2.297l0,0c0.584-0.592,1.399-0.951,2.289-0.951
			c0.898,0,1.715,0.359,2.297,0.951h0.01c0.119,0.127,0.238,0.254,0.337,0.396l20.931-2.259c-0.01-0.083-0.01-0.166-0.01-0.248
			c0-0.89,0.361-1.705,0.951-2.305v0.015c0.592-0.59,1.408-0.957,2.307-0.957c0.89,0,1.697,0.367,2.289,0.957v-0.015
			c0.592,0.6,0.95,1.415,0.95,2.305c0,0.404-0.067,0.786-0.21,1.138l3.068,1.168v1.826l-4.123-1.557
			c-0.554,0.426-1.236,0.681-1.975,0.681c-0.906,0-1.723-0.367-2.307-0.95v-0.015c-0.119-0.105-0.218-0.232-0.313-0.367
			l-20.954,2.282c0.008,0.06,0.008,0.127,0.008,0.202c0,0.898-0.367,1.706-0.949,2.297h-0.01c-0.582,0.584-1.398,0.95-2.297,0.95
			c-0.793,0-1.52-0.283-2.073-0.748l-28.967,17.728c0.188,0.412,0.285,0.861,0.285,1.34c0,0.898-0.366,1.706-0.95,2.29l0,0
			c-0.592,0.591-1.408,0.958-2.307,0.958c-0.891,0-1.697-0.367-2.289-0.958l0,0c-0.592-0.584-0.951-1.392-0.951-2.29
			c0-0.666,0.203-1.287,0.531-1.804l-18.708-5.252c-0.523,0.367-1.168,0.583-1.854,0.583c-0.897,0-1.714-0.367-2.306-0.95v-0.008
			l0,0c-0.367-0.366-0.643-0.815-0.808-1.317l-1.55,0.03V180.478L437.423,180.478z M527.216,163.97
			c-0.261-0.262-0.63-0.427-1.024-0.427c-0.412,0-0.779,0.165-1.04,0.427l0,0c-0.265,0.269-0.435,0.635-0.435,1.032
			c0,0.412,0.17,0.771,0.425,1.034h0.01c0.261,0.261,0.635,0.426,1.04,0.426c0.395,0,0.764-0.165,1.024-0.426h0.007
			c0.254-0.263,0.412-0.622,0.412-1.034C527.635,164.605,527.477,164.239,527.216,163.97L527.216,163.97L527.216,163.97z
			 M500.401,168.369c-0.261-0.254-0.62-0.418-1.032-0.418c-0.396,0-0.764,0.165-1.024,0.427h-0.007
			c-0.256,0.262-0.428,0.628-0.428,1.032c0,0.396,0.172,0.771,0.435,1.025c0.261,0.262,0.628,0.426,1.024,0.426
			c0.412,0,0.771-0.157,1.032-0.426l0,0c0.271-0.254,0.428-0.629,0.428-1.025c0-0.404-0.157-0.771-0.428-1.032V168.369
			L500.401,168.369z M466.399,189.944c-0.263-0.269-0.63-0.426-1.042-0.426c-0.395,0-0.762,0.157-1.032,0.426
			c-0.255,0.262-0.427,0.621-0.427,1.033c0,0.396,0.172,0.763,0.427,1.025v0.007c0.271,0.27,0.638,0.427,1.032,0.427
			c0.412,0,0.779-0.157,1.042-0.427v-0.007c0.253-0.262,0.417-0.629,0.417-1.025C466.816,190.565,466.66,190.206,466.399,189.944
			L466.399,189.944L466.399,189.944z M443.11,180.216c-0.263-0.255-0.629-0.419-1.024-0.419c-0.412,0-0.778,0.165-1.039,0.419
			c-0.265,0.269-0.422,0.636-0.422,1.04c0,0.404,0.157,0.771,0.412,1.033h0.01c0.261,0.262,0.627,0.427,1.039,0.427
			c0.396,0,0.762-0.165,1.024-0.427h0.008c0.253-0.262,0.426-0.629,0.426-1.033c0-0.404-0.173-0.771-0.426-1.04H443.11z"/>
		<path fill-rule="evenodd" clip-rule="evenodd" fill="#FFA90A" d="M484.853,178.569l12.092-7.356l3.368,0.202l2.604-3.031
			l20.063-1.893c1.932-0.18,2.635,1.28,5.71,0.105l3.6,1.901v74.511c0,1.938-1.578,3.525-3.509,3.525h-43.928V178.569z"/>
		<path fill-rule="evenodd" clip-rule="evenodd" fill="#DE3F18" d="M484.853,177.425l11.434-7.005
			c-0.105-0.314-0.164-0.659-0.164-1.01c0-0.898,0.367-1.706,0.958-2.297l0,0c0.584-0.592,1.399-0.951,2.289-0.951
			c0.898,0,1.715,0.359,2.297,0.951h0.01c0.119,0.127,0.238,0.254,0.337,0.396l20.931-2.259c-0.01-0.083-0.01-0.166-0.01-0.248
			c0-0.89,0.361-1.705,0.951-2.305v0.015c0.592-0.59,1.408-0.957,2.307-0.957c0.89,0,1.697,0.367,2.289,0.957v-0.015
			c0.592,0.6,0.95,1.415,0.95,2.305c0,0.404-0.067,0.786-0.21,1.138l3.068,1.168v1.826l-4.123-1.557
			c-0.554,0.426-1.236,0.681-1.975,0.681c-0.906,0-1.723-0.367-2.307-0.95v-0.015c-0.119-0.105-0.218-0.232-0.313-0.367
			l-20.954,2.282c0.008,0.06,0.008,0.127,0.008,0.202c0,0.898-0.367,1.706-0.949,2.297h-0.01c-0.582,0.584-1.398,0.95-2.297,0.95
			c-0.793,0-1.52-0.283-2.073-0.748l-12.443,7.61V177.425L484.853,177.425z M527.216,163.97c-0.261-0.262-0.63-0.427-1.024-0.427
			c-0.412,0-0.779,0.165-1.04,0.427l0,0c-0.265,0.269-0.435,0.635-0.435,1.032c0,0.412,0.17,0.771,0.425,1.034h0.01
			c0.261,0.261,0.635,0.426,1.04,0.426c0.395,0,0.764-0.165,1.024-0.426h0.007c0.254-0.263,0.412-0.622,0.412-1.034
			C527.635,164.605,527.477,164.239,527.216,163.97L527.216,163.97L527.216,163.97z M500.401,168.369
			c-0.261-0.254-0.62-0.418-1.032-0.418c-0.396,0-0.764,0.165-1.024,0.427h-0.007c-0.256,0.262-0.428,0.628-0.428,1.032
			c0,0.396,0.172,0.771,0.435,1.025c0.261,0.262,0.628,0.426,1.024,0.426c0.412,0,0.771-0.157,1.032-0.426l0,0
			c0.271-0.254,0.428-0.629,0.428-1.025c0-0.404-0.157-0.771-0.428-1.032V168.369z"/>
	</g>
	<g>
		<path fill-rule="evenodd" clip-rule="evenodd" fill="#0F303F" d="M90.646,146.975h141.577c3.27,0,5.957,2.687,5.957,5.964v96.662
			c0,3.277-2.687,5.949-5.957,5.949H90.646c-3.27,0-5.942-2.672-5.942-5.949v-96.662C84.705,149.662,87.376,146.975,90.646,146.975z
			"/>
		<path fill-rule="evenodd" clip-rule="evenodd" fill="#D9F1FD" d="M161.438,149.729c0.951,0,1.736,0.771,1.736,1.721
			c0,0.965-0.786,1.729-1.736,1.729c-0.95,0-1.729-0.764-1.729-1.729C159.71,150.5,160.489,149.729,161.438,149.729z"/>
		<rect x="94.942" y="156.089" fill-rule="evenodd" clip-rule="evenodd" fill="#C6ECF7" width="132.993" height="90.347"/>
		<rect x="94.942" y="156.089" fill-rule="evenodd" clip-rule="evenodd" fill="#A6DAE8" width="132.993" height="15.753"/>
		<rect x="99.387" y="176.676" fill-rule="evenodd" clip-rule="evenodd" fill="#A6DAE8" width="60.241" height="29.2"/>
		<g>
			<rect x="99.387" y="210.269" fill-rule="evenodd" clip-rule="evenodd" fill="#A6DAE8" width="27.232" height="3.801"/>
			<rect x="99.387" y="219.256" fill-rule="evenodd" clip-rule="evenodd" fill="#A6DAE8" width="27.232" height="3.801"/>
			<rect x="99.387" y="228.243" fill-rule="evenodd" clip-rule="evenodd" fill="#A6DAE8" width="27.232" height="3.802"/>
			<rect x="99.387" y="237.231" fill-rule="evenodd" clip-rule="evenodd" fill="#A6DAE8" width="27.232" height="3.816"/>
		</g>
		<g>
			<rect x="132.044" y="210.269" fill-rule="evenodd" clip-rule="evenodd" fill="#A6DAE8" width="27.584" height="3.801"/>
			<rect x="132.044" y="219.256" fill-rule="evenodd" clip-rule="evenodd" fill="#A6DAE8" width="27.584" height="3.801"/>
			<rect x="132.044" y="228.243" fill-rule="evenodd" clip-rule="evenodd" fill="#A6DAE8" width="27.584" height="3.802"/>
			<rect x="132.044" y="237.231" fill-rule="evenodd" clip-rule="evenodd" fill="#A6DAE8" width="27.584" height="3.816"/>
		</g>
	</g>
	<g>
		<path fill-rule="evenodd" clip-rule="evenodd" fill="#B5D7EB" d="M318.513,228.468h2.964v5.92h-2.964V228.468L318.513,228.468z
			 M318.513,110.149h2.964v5.919h-2.964V110.149L318.513,110.149z M318.513,121.988h2.964v5.912h-2.964V121.988L318.513,121.988z
			 M318.513,133.819h2.964v5.912h-2.964V133.819L318.513,133.819z M318.513,145.65h2.964v5.911h-2.964V145.65L318.513,145.65z
			 M318.513,157.481h2.964v5.912h-2.964V157.481L318.513,157.481z M318.513,169.313h2.964v5.919h-2.964V169.313L318.513,169.313z
			 M318.513,181.144h2.964v5.911h-2.964V181.144L318.513,181.144z M318.513,192.974h2.964v5.919h-2.964V192.974L318.513,192.974z
			 M318.513,204.806h2.964v5.919h-2.964V204.806L318.513,204.806z M318.513,216.637h2.964v5.919h-2.964V216.637z"/>
		<rect x="263.324" y="141.265" fill-rule="evenodd" clip-rule="evenodd" fill="#D9F1FD" width="113.335" height="27.269"/>
		<path fill-rule="evenodd" clip-rule="evenodd" fill="#B5D7EB" d="M263.324,139.791h113.335h1.48v1.474v27.269v1.482h-1.48H263.324
			h-1.474v-1.482v-27.269v-1.474H263.324L263.324,139.791z M375.178,142.747H264.813v24.313h110.364V142.747z"/>
		<g>
			<path fill-rule="evenodd" clip-rule="evenodd" fill="#F93C16" d="M269.834,41.594c10.746-34.669,73.494-27.156,74.9,19.786
				c7.44-5.245,35.808-4.078,40.373,23.408c1.34,8.044,3.548,38.823-23.886,38.823H227.314c-25.577,0-29.252-14.098-29.252-27.344
				c0-16.815,17.811-26.334,33.017-23.355C217.204,50.141,247.879,28.828,269.834,41.594z"/>
			<path fill-rule="evenodd" clip-rule="evenodd" fill="#FCA44C" d="M348.672,29.419C357.8-0.05,411.127,6.341,412.323,46.227
				c6.31-4.452,30.429-3.457,34.313,19.906c1.129,6.825,3.008,32.994-20.304,32.994H312.534c-21.731,0-24.859-11.981-24.859-23.244
				c0-14.285,15.139-22.382,28.055-19.845C303.943,36.678,330.008,18.569,348.672,29.419z"/>
		</g>
	</g>
	<g>
		<g>
			<polygon fill-rule="evenodd" clip-rule="evenodd" fill="#266590" points="291.955,377.595 350.22,377.595 354.995,426.027 
				287.196,426.027 			"/>
			<polygon fill-rule="evenodd" clip-rule="evenodd" fill="#0F303F" points="321.102,377.595 350.22,377.595 354.995,426.027 
				321.102,426.027 			"/>
			<path fill-rule="evenodd" clip-rule="evenodd" fill="#D9F1FD" d="M282.758,418.716h76.674c1.729,0,3.15,1.414,3.15,3.151v2.259
				c0,1.743-1.421,3.159-3.15,3.159h-76.674c-1.728,0-3.157-1.416-3.157-3.159v-2.259
				C279.601,420.13,281.03,418.716,282.758,418.716z"/>
			<path fill-rule="evenodd" clip-rule="evenodd" fill="#C3E2F4" d="M321.102,418.716h38.33c1.729,0,3.15,1.414,3.15,3.151v2.259
				c0,1.743-1.421,3.159-3.15,3.159h-38.33V418.716z"/>
			<path fill-rule="evenodd" clip-rule="evenodd" fill="#134861" d="M198.301,201.924h245.581c2.82,0,5.402,1.033,7.386,2.739
				c2.455,2.096,4.003,5.193,4.003,8.651v165.875c0,6.256-5.118,11.389-11.389,11.389H198.301c-6.263,0-11.381-5.133-11.381-11.389
				v-17.22V213.315C186.92,207.051,192.038,201.924,198.301,201.924z"/>
			<path fill-rule="evenodd" clip-rule="evenodd" fill="#D9F1FD" d="M455.271,364.964v14.226c0,6.256-5.118,11.389-11.389,11.389
				H198.301c-6.263,0-11.381-5.133-11.381-11.389v-14.226H455.271z"/>
			<path fill-rule="evenodd" clip-rule="evenodd" fill="#C3E2F4" d="M455.271,364.964v14.226c0,6.256-5.118,11.389-11.389,11.389
				h-122.78v-25.614H455.271z"/>
			<rect x="195.989" y="212.02" fill-rule="evenodd" clip-rule="evenodd" fill="#14B0BF" width="250.205" height="144.772"/>
			<rect x="321.102" y="212.02" fill-rule="evenodd" clip-rule="evenodd" fill="#1695A4" width="125.092" height="144.772"/>
			<path fill-rule="evenodd" clip-rule="evenodd" fill="#266590" d="M309.105,372.179h23.97c2.455,0,4.476,2.012,4.476,4.474l0,0
				c0,2.462-2.021,4.476-4.476,4.476h-23.97c-2.453,0-4.466-2.014-4.466-4.476l0,0C304.64,374.19,306.652,372.179,309.105,372.179z"
				/>
			<path fill-rule="evenodd" clip-rule="evenodd" fill="#0F303F" d="M321.102,372.179h11.982c2.454,0,4.467,2.012,4.467,4.474l0,0
				c0,2.462-2.013,4.476-4.467,4.476h-11.982V372.179z"/>
		</g>
		<path fill-rule="evenodd" clip-rule="evenodd" fill="#FDC00F" d="M356.889,245.32h5.643c1.338,0,2.454,1.1,2.454,2.455v4.034
			c2.261,0.27,4.451,0.711,6.585,1.302l1.541-3.727c0.518-1.242,1.962-1.84,3.212-1.325l5.207,2.148
			c1.25,0.516,1.849,1.96,1.323,3.21l-1.54,3.734c1.976,1.107,3.854,2.373,5.62,3.757l2.859-2.859c0.964-0.958,2.52-0.958,3.479,0
			l3.988,3.989c0.951,0.95,0.951,2.521,0,3.472l-2.865,2.858c1.376,1.759,2.641,3.622,3.742,5.583l3.733-1.549
			c1.242-0.516,2.687,0.083,3.202,1.324l2.162,5.202c0.509,1.257-0.081,2.694-1.33,3.21l-3.721,1.548
			c0.6,2.148,1.04,4.363,1.311,6.631h4.041c1.354,0,2.454,1.115,2.454,2.461v5.635c0,1.354-1.101,2.462-2.454,2.462h-4.041
			c-0.271,2.252-0.711,4.453-1.303,6.584l3.726,1.543c1.244,0.516,1.849,1.96,1.341,3.203l-2.163,5.216
			c-0.516,1.249-1.96,1.847-3.202,1.331l-3.735-1.542c-1.107,1.968-2.364,3.839-3.763,5.62l2.865,2.859
			c0.951,0.95,0.951,2.515,0,3.464l-3.988,3.989c-0.959,0.959-2.515,0.959-3.479,0l-2.859-2.859
			c-1.751,1.385-3.615,2.635-5.575,3.742l1.549,3.728c0.516,1.249-0.084,2.694-1.333,3.21l-5.2,2.162
			c-1.242,0.517-2.687-0.083-3.21-1.324l-1.55-3.734c-2.147,0.606-4.363,1.048-6.629,1.323v4.034c0,1.348-1.116,2.447-2.454,2.447
			h-5.643c-1.348,0-2.455-1.1-2.455-2.447v-4.034c-2.259-0.268-4.454-0.709-6.594-1.3l-1.533,3.719
			c-0.516,1.249-1.96,1.849-3.211,1.333l-5.216-2.157c-1.249-0.516-1.841-1.952-1.324-3.21l1.542-3.733
			c-1.977-1.108-3.847-2.365-5.62-3.758l-2.858,2.859c-0.958,0.959-2.516,0.959-3.473,0l-3.989-3.989
			c-0.95-0.949-0.95-2.514,0-3.464l2.859-2.859c-1.378-1.757-2.628-3.629-3.733-5.59l-3.728,1.55
			c-1.25,0.522-2.693-0.083-3.21-1.324l-2.163-5.202c-0.517-1.249,0.074-2.694,1.332-3.21l3.72-1.549
			c-0.607-2.155-1.048-4.37-1.311-6.63h-4.049c-1.348,0-2.446-1.108-2.446-2.462v-5.635c0-1.347,1.099-2.461,2.446-2.461h4.049
			c0.263-2.246,0.703-4.453,1.295-6.586l-3.727-1.542c-1.242-0.516-1.84-1.96-1.324-3.203l2.155-5.215
			c0.516-1.242,1.96-1.841,3.202-1.325l3.734,1.542c1.115-1.975,2.365-3.854,3.757-5.62l-2.859-2.858c-0.95-0.95-0.95-2.522,0-3.472
			l3.989-3.989c0.957-0.958,2.515-0.958,3.473,0l2.858,2.859c1.766-1.377,3.622-2.627,5.582-3.742l-1.548-3.727
			c-0.509-1.249,0.081-2.694,1.33-3.21l5.202-2.155c1.25-0.516,2.694,0.083,3.21,1.325l1.541,3.727
			c2.156-0.599,4.372-1.048,6.639-1.317v-4.034C354.434,246.42,355.541,245.32,356.889,245.32L356.889,245.32z M359.709,271.594
			c-13.261,0-24.014,10.747-24.014,24.007c0,13.254,10.753,24.007,24.014,24.007s24.007-10.753,24.007-24.007
			C383.716,282.34,372.97,271.594,359.709,271.594L359.709,271.594z M359.709,275.508c-11.098,0-20.094,8.995-20.094,20.093
			c0,11.099,8.996,20.093,20.094,20.093s20.1-8.994,20.1-20.093C379.809,284.503,370.807,275.508,359.709,275.508L359.709,275.508z
			 M359.709,267.075c-15.752,0-28.519,12.773-28.519,28.526c0,15.745,12.767,28.519,28.519,28.519s28.526-12.773,28.526-28.519
			C388.235,279.848,375.461,267.075,359.709,267.075z"/>
		<path fill-rule="evenodd" clip-rule="evenodd" fill="#D9F1FD" d="M427.096,208.562c2.83,0.18,5.554,0.741,8.142,1.61l1.176-2.845
			c0.218-0.523,0.822-0.778,1.339-0.553l2.192,0.898c0.517,0.216,0.779,0.831,0.562,1.347l-1.182,2.843
			c2.499,1.25,4.818,2.806,6.893,4.617l2.185-2.185c0.403-0.397,1.063-0.397,1.46,0l1.667,1.676c0.398,0.404,0.398,1.063,0,1.459
			l-2.178,2.186c1.813,2.073,3.368,4.393,4.61,6.892l2.845-1.183c0.523-0.217,1.137,0.045,1.354,0.562l0.898,2.185
			c0.217,0.523-0.023,1.123-0.547,1.347l-2.843,1.175c0.867,2.589,1.414,5.313,1.608,8.142h3.083c0.569,0,1.026,0.464,1.026,1.033
			v2.372c0,0.562-0.457,1.026-1.026,1.026h-3.083c-0.194,2.828-0.741,5.56-1.608,8.141l2.843,1.175
			c0.523,0.217,0.764,0.831,0.547,1.347l-0.898,2.192c-0.217,0.517-0.83,0.764-1.354,0.546l-2.845-1.175
			c-1.242,2.5-2.798,4.82-4.61,6.893l2.178,2.185c0.398,0.404,0.398,1.063,0,1.459l-1.667,1.668c-0.397,0.404-1.057,0.404-1.46,0
			l-2.185-2.185c-2.074,1.818-4.394,3.382-6.893,4.625l1.182,2.844c0.218,0.523-0.045,1.129-0.562,1.347l-2.192,0.898
			c-0.517,0.217-1.121-0.03-1.339-0.554l-1.176-2.843c-2.588,0.868-5.312,1.421-8.142,1.617v3.083c0,0.568-0.465,1.025-1.033,1.025
			h-2.363c-0.569,0-1.034-0.457-1.034-1.025v-3.083c-2.827-0.195-5.552-0.749-8.142-1.617l-1.174,2.843
			c-0.217,0.524-0.824,0.771-1.34,0.554l-2.192-0.898c-0.531-0.217-0.771-0.824-0.555-1.347l1.176-2.844
			c-2.5-1.242-4.819-2.807-6.894-4.625l-2.186,2.185c-0.402,0.404-1.062,0.404-1.457,0l-1.669-1.668
			c-0.412-0.396-0.412-1.055,0-1.459l2.185-2.185c-1.818-2.073-3.374-4.393-4.617-6.893l-2.851,1.175
			c-0.517,0.217-1.131-0.029-1.348-0.546l-0.898-2.192c-0.217-0.516,0.022-1.13,0.547-1.347l2.857-1.175
			c-0.881-2.581-1.427-5.32-1.622-8.141h-3.083c-0.568,0-1.026-0.464-1.026-1.026v-2.372c0-0.569,0.458-1.033,1.026-1.033h3.083
			c0.195-2.829,0.741-5.553,1.622-8.142l-2.857-1.175c-0.524-0.224-0.764-0.824-0.547-1.347l0.898-2.185
			c0.217-0.517,0.831-0.778,1.348-0.562l2.851,1.183c1.243-2.5,2.799-4.819,4.617-6.892l-2.185-2.186
			c-0.412-0.396-0.412-1.055,0-1.459l1.669-1.676c0.396-0.397,1.055-0.397,1.457,0l2.186,2.185c2.074-1.818,4.394-3.368,6.894-4.617
			l-1.176-2.843c-0.217-0.516,0.023-1.13,0.555-1.347l2.192-0.898c0.516-0.225,1.123,0.03,1.34,0.553l1.174,2.845
			c2.59-0.869,5.314-1.43,8.142-1.61v-3.09c0-0.561,0.465-1.025,1.034-1.025h2.363c0.568,0,1.033,0.464,1.033,1.025V208.562
			L427.096,208.562z M424.926,226.695c-7.88-0.023-14.277,6.346-14.3,14.218c-0.022,7.88,6.354,14.271,14.227,14.3
			c7.863,0.015,14.27-6.353,14.285-14.225C439.168,233.115,432.792,226.709,424.926,226.695L424.926,226.695z M424.903,232.457
			c-4.691-0.007-8.508,3.779-8.516,8.471s3.778,8.5,8.478,8.524c4.685,0.007,8.501-3.787,8.509-8.479
			C433.396,236.281,429.603,232.464,424.903,232.457L424.903,232.457z M424.881,218.822c-12.211,0-22.12,9.908-22.12,22.128
			s9.909,22.12,22.12,22.12c12.221,0,22.128-9.9,22.128-22.12S437.102,218.822,424.881,218.822z"/>
		<path fill-rule="evenodd" clip-rule="evenodd" fill="#FC611F" d="M365.269,196.132l4.497-0.171
			c0.988-0.038,1.826,0.733,1.873,1.721l0.178,4.482c2.238,0.404,4.342,1.182,6.242,2.29l3.039-3.292
			c0.664-0.726,1.816-0.764,2.543-0.097l3.3,3.053c0.733,0.674,0.779,1.818,0.104,2.545l-3.046,3.292
			c1.265,1.804,2.23,3.832,2.792,6.032l4.49-0.172c0.98-0.044,1.825,0.734,1.863,1.729l0.188,4.49
			c0.03,0.995-0.741,1.833-1.735,1.878l-4.477,0.173c-0.396,2.237-1.184,4.348-2.297,6.249l3.301,3.031
			c0.718,0.681,0.771,1.818,0.097,2.544l-3.053,3.315c-0.675,0.718-1.819,0.771-2.545,0.097l-3.293-3.038
			c-1.811,1.249-3.839,2.222-6.039,2.784l0.187,4.483c0.03,0.987-0.74,1.833-1.734,1.87l-4.492,0.18
			c-0.986,0.038-1.831-0.733-1.869-1.728l-0.18-4.476c-2.238-0.389-4.35-1.182-6.241-2.305l-3.046,3.307
			c-0.675,0.726-1.811,0.764-2.536,0.097l-3.316-3.053c-0.726-0.673-0.771-1.819-0.096-2.545l3.045-3.3
			c-1.265-1.803-2.223-3.831-2.792-6.024l-4.481,0.172c-0.996,0.044-1.834-0.741-1.872-1.729l-0.18-4.49
			c-0.045-0.995,0.733-1.833,1.73-1.878l4.474-0.173c0.397-2.237,1.191-4.348,2.297-6.241l-3.301-3.054
			c-0.724-0.666-0.762-1.803-0.096-2.537l3.061-3.307c0.667-0.726,1.803-0.771,2.544-0.097l3.293,3.045
			c1.796-1.272,3.831-2.223,6.032-2.799l-0.18-4.476C363.495,197.023,364.281,196.177,365.269,196.132L365.269,196.132z
			 M368.21,213.285c-4.146,0.164-7.363,3.651-7.198,7.797c0.172,4.138,3.651,7.356,7.797,7.191c4.139-0.164,7.357-3.651,7.198-7.797
			C375.835,216.337,372.342,213.12,368.21,213.285z"/>
		<g>
			<path fill-rule="evenodd" clip-rule="evenodd" fill="#0F303F" d="M424.926,224.876c4.432,0.007,8.448,1.819,11.354,4.729
				c2.901,2.918,4.691,6.944,4.677,11.382c-0.01,4.445-1.818,8.464-4.737,11.359c-2.911,2.904-6.938,4.692-11.366,4.678
				c-4.446-0.008-8.465-1.812-11.368-4.729c-2.903-2.918-4.685-6.952-4.679-11.382c0.01-4.445,1.82-8.456,4.739-11.36
				C416.461,226.649,420.489,224.861,424.926,224.876L424.926,224.876z M435.521,230.361c-2.707-2.716-6.465-4.4-10.596-4.415
				c-4.146-0.008-7.91,1.668-10.625,4.37c-2.724,2.709-4.408,6.451-4.431,10.596c0,4.138,1.669,7.902,4.378,10.619
				c2.701,2.732,6.457,4.416,10.604,4.423c4.128,0.007,7.894-1.661,10.617-4.37c2.717-2.702,4.401-6.45,4.408-10.596
				C439.901,236.85,438.225,233.093,435.521,230.361z"/>
			<g>
				<path fill-rule="evenodd" clip-rule="evenodd" fill="#0F303F" d="M421.327,256.658c-2.582-0.801-10.44-4.498-19.525-8.95
					c-16.007-7.85-35.866-18.049-37.371-18.918c-1.459-0.853-2.731-2.028-3.608-3.465l0,0c-0.822-1.324-1.301-2.866-1.301-4.549
					c0-2.478,1.01-4.729,2.634-6.346v-0.007l0,0c1.626-1.617,3.877-2.626,6.354-2.626c1.76,0,9.617,1.638,19.211,3.816
					c16.253,3.682,37.527,8.883,42.745,10.207l-0.256,1.041c-5.239-1.333-26.521-6.533-42.715-10.208
					c-9.54-2.147-17.302-3.779-18.985-3.779c-2.184,0-4.161,0.883-5.596,2.312l0,0c-1.423,1.437-2.306,3.413-2.306,5.59
					c0,1.481,0.419,2.836,1.13,3.996l0,0c0.784,1.271,1.915,2.32,3.232,3.083c1.505,0.868,21.336,11.061,37.305,18.895
					c9.032,4.422,16.837,8.097,19.374,8.883L421.327,256.658z"/>
				<path fill-rule="evenodd" clip-rule="evenodd" fill="#0F303F" d="M437.776,250.559l-62.885,65.299l-0.03,0.038l-0.035,0.015
					c-2.147,1.608-4.573,2.882-7.178,3.741c-2.515,0.822-5.208,1.28-8.006,1.272l0,0l0,0l0,0c-6.99-0.021-13.322-2.873-17.894-7.468
					c-4.564-4.595-7.385-10.927-7.372-17.915l0,0l0,0l0,0c0.024-4.303,1.115-8.449,3.106-12.085c1.99-3.66,4.894-6.811,8.495-9.145
					v0.007l68.98-46.007l0.599,0.89l-68.99,46.015l-0.007,0.007c-3.45,2.223-6.225,5.253-8.134,8.741
					c-1.908,3.495-2.964,7.46-2.97,11.577l0,0l0,0l0,0c-0.017,6.697,2.684,12.768,7.063,17.159c4.376,4.4,10.431,7.131,17.122,7.146
					l0,0l0,0l0,0c2.671,0.007,5.252-0.427,7.662-1.22c2.483-0.815,4.797-2.028,6.847-3.555l62.845-65.262L437.776,250.559z"/>
			</g>
		</g>
	</g>
	<g>
		<path fill-rule="evenodd" clip-rule="evenodd" fill="#00C9DD" d="M481.635,451.374c0,2.289-0.928,4.369-2.446,5.882v0.007h-0.009
			c-1.513,1.511-3.6,2.446-5.873,2.446h-66.363c-2.289,0-4.378-0.936-5.882-2.446c-1.511-1.512-2.454-3.585-2.454-5.889V326.648
			c0.598,0.061,1.265,0.09,1.811,0.09c0.531,0,0.937-0.022,1.392-0.045v124.681c0,1.422,0.577,2.701,1.513,3.629
			c0.928,0.936,2.213,1.512,3.621,1.512h66.363c1.413,0,2.693-0.576,3.621-1.505l0.006-0.007c0.929-0.928,1.497-2.207,1.497-3.629
			c0-34.978,0-25.556,0-60.54c0-2.291,0.943-4.378,2.456-5.882h-0.008c1.52-1.521,3.592-2.456,5.89-2.456h65.253
			c2.299,0,4.378,0.936,5.883,2.456c1.52,1.495,2.454,3.591,2.454,5.882v132.581h-3.195V390.834c0-1.408-0.584-2.701-1.512-3.63
			c-0.936-0.928-2.216-1.511-3.63-1.511h-65.253c-1.415,0-2.695,0.583-3.623,1.511h-0.006c-0.936,0.929-1.513,2.215-1.513,3.63
			C481.627,425.818,481.635,416.39,481.635,451.374z"/>
		<g>
			<polygon fill-rule="evenodd" clip-rule="evenodd" fill="#00ADBE" points="417.337,351.86 400.216,311.705 383.109,351.86 
				400.216,344.677 			"/>
			<polygon fill-rule="evenodd" clip-rule="evenodd" fill="#00C9DD" points="400.216,311.705 383.109,351.86 400.216,344.677 			"/>
		</g>
		<g>
			<polygon fill-rule="evenodd" clip-rule="evenodd" fill="#0094A1" points="592.635,451.365 581.754,431.452 575.146,499.012 
				584.949,499.521 592.2,491.85 			"/>
			<polygon fill-rule="evenodd" clip-rule="evenodd" fill="#00ADBE" points="524.934,452.75 538.209,443.905 544.905,501.024 
				531.57,501.024 527.484,493.773 			"/>
			<polygon fill-rule="evenodd" clip-rule="evenodd" fill="#00C9DD" points="544.71,404.341 574.743,404.341 585.422,415.4 
				585.422,499.072 560.583,517.586 557.037,517.586 531.57,500.973 531.57,416.284 			"/>
			<polygon fill-rule="evenodd" clip-rule="evenodd" fill="#00ADBE" points="558.787,404.341 574.743,404.341 585.422,415.4 
				585.422,499.072 560.583,517.586 558.787,517.586 			"/>
			<polygon fill-rule="evenodd" clip-rule="evenodd" fill="#FFFFFF" points="552.704,404.341 565.006,404.341 565.006,514.292 
				560.583,517.586 557.037,517.586 552.704,514.758 			"/>
			<polygon fill-rule="evenodd" clip-rule="evenodd" fill="#C1F7F7" points="558.787,404.341 565.006,404.341 565.006,514.292 
				560.583,517.586 558.787,517.586 			"/>
			<path fill-rule="evenodd" clip-rule="evenodd" fill="#00C9DD" d="M556.662,420.571h4.242c0.539,0,0.981,0.449,0.981,0.988v15.58
				c0,0.54-0.442,0.98-0.981,0.98h-4.242c-0.533,0-0.973-0.44-0.973-0.98v-15.58C555.689,421.021,556.129,420.571,556.662,420.571
				L556.662,420.571z M556.326,469.258h4.916c0.359,0,0.644,0.292,0.644,0.644v2.791c0,0.359-0.284,0.644-0.644,0.644h-4.916
				c-0.344,0-0.637-0.284-0.637-0.644v-2.791C555.689,469.55,555.982,469.258,556.326,469.258L556.326,469.258z M556.326,460.039
				h4.916c0.359,0,0.644,0.292,0.644,0.651v2.783c0,0.359-0.284,0.651-0.644,0.651h-4.916c-0.344,0-0.637-0.292-0.637-0.651v-2.783
				C555.689,460.331,555.982,460.039,556.326,460.039L556.326,460.039z M556.326,451.8h4.916c0.359,0,0.644,0.292,0.644,0.645v2.791
				c0,0.358-0.284,0.644-0.644,0.644h-4.916c-0.344,0-0.637-0.285-0.637-0.644v-2.791C555.689,452.092,555.982,451.8,556.326,451.8z
				"/>
			<path fill-rule="evenodd" clip-rule="evenodd" fill="#00ADBE" d="M558.787,420.571h2.117c0.539,0,0.981,0.449,0.981,0.988v15.58
				c0,0.54-0.442,0.98-0.981,0.98h-2.117V420.571L558.787,420.571z M558.787,469.258h2.455c0.359,0,0.644,0.292,0.644,0.644v2.791
				c0,0.359-0.284,0.644-0.644,0.644h-2.455V469.258L558.787,469.258z M558.787,460.039h2.455c0.359,0,0.644,0.292,0.644,0.651
				v2.783c0,0.359-0.284,0.651-0.644,0.651h-2.455V460.039L558.787,460.039z M558.787,451.8h2.455c0.359,0,0.644,0.292,0.644,0.645
				v2.791c0,0.358-0.284,0.644-0.644,0.644h-2.455V451.8z"/>
		</g>
	</g>
	<g>
		<path fill-rule="evenodd" clip-rule="evenodd" fill="#F0C07D" d="M547.99,475.979l0.447,0.022c0.44-3.047,3.42-5.419,7.006-5.419
			h0.56c3.683,0,6.72,2.5,7.035,5.643l0.479,0.009c0.24-3.212,3.308-5.763,7.034-5.763h0.568c3.832,0,6.976,2.709,7.064,6.046
			l0.562,0.067v-0.119c0-2.484,2.321-4.512,5.164-4.512h0.41c2.837,0,5.157,2.035,5.157,4.512v21.687l-0.014,0.3l0.44,25.622
			c0.111,6.504-4.348,13.126-9.601,17.511l-3.569,2.986l-5.883,33.511h-36.151l6-34.222c-5.006-1.534-8.238-6.068-9.263-11.277
			l-4.489-22.793c-1.535-2.583-0.959-5.898,1.556-7.911l4.962-3.958l-0.182-10.006c-0.006-0.404,0-0.793,0.022-1.175v-45.872
			c0-3.877,3.182-7.05,7.064-7.05h0.554c3.893,0,7.066,3.173,7.066,7.05V475.979z"/>
		<path fill-rule="evenodd" clip-rule="evenodd" fill="#0C43BF" d="M579.816,544.496l-45.8-0.194
			c-0.216,4.998-0.463,22.18-0.716,40.005h46.485C579.81,566.107,579.816,548.716,579.816,544.496z"/>
	</g>
	<g>
		<path fill-rule="evenodd" clip-rule="evenodd" fill="#D9F1FD" d="M296.019,265.915l5.756,7.671c1.264,1.691,0.912,4.1-0.771,5.373
			l-7.641,5.725c1.999,4.407,3.159,9.047,3.501,13.724l9.459,1.355c2.088,0.306,3.547,2.259,3.249,4.339l-1.362,9.489
			c-0.299,2.096-2.26,3.555-4.348,3.256l-9.452-1.363c-1.639,4.394-4.064,8.531-7.228,12.19l5.724,7.648
			c1.272,1.684,0.921,4.102-0.763,5.365l-7.678,5.748c-1.684,1.256-4.101,0.919-5.366-0.771l-5.725-7.647
			c-4.399,2.005-9.054,3.165-13.724,3.501l-1.362,9.46c-0.299,2.087-2.252,3.554-4.333,3.255l-9.497-1.37
			c-2.088-0.291-3.547-2.245-3.248-4.332l1.354-9.467c-4.385-1.63-8.531-4.049-12.183-7.222l-7.648,5.732
			c-1.692,1.265-4.101,0.913-5.366-0.77l-5.747-7.679c-1.265-1.684-0.913-4.101,0.771-5.357l7.641-5.74
			c-2.006-4.393-3.158-9.047-3.502-13.724l-9.459-1.355c-2.088-0.299-3.547-2.246-3.248-4.34l1.362-9.489
			c0.299-2.088,2.252-3.554,4.34-3.255l9.459,1.362c1.639-4.393,4.063-8.523,7.229-12.19l-5.732-7.633
			c-1.264-1.699-0.913-4.116,0.771-5.374l7.678-5.747c1.684-1.265,4.101-0.921,5.366,0.771l5.725,7.64
			c4.4-2.005,9.047-3.158,13.724-3.495l1.362-9.466c0.3-2.088,2.253-3.555,4.333-3.255l9.496,1.369
			c2.088,0.299,3.547,2.252,3.248,4.34l-1.362,9.459c4.393,1.646,8.531,4.063,12.19,7.222l7.648-5.725
			C292.345,263.879,294.762,264.223,296.019,265.915L296.019,265.915z M269.483,291.777c-5.291-7.057-15.303-8.494-22.368-3.21
			c-7.057,5.291-8.494,15.302-3.21,22.367c5.298,7.057,15.311,8.501,22.375,3.211C273.336,308.854,274.773,298.841,269.483,291.777z
			"/>
		<g>
			<polygon fill-rule="evenodd" clip-rule="evenodd" fill="#134861" points="222.428,313.644 242.453,326.858 174.894,429.236 
				154.861,416.021 			"/>
			<polygon fill-rule="evenodd" clip-rule="evenodd" fill="#0F303F" points="232.44,320.251 242.453,326.858 174.894,429.236 
				164.881,422.638 			"/>
			<path fill-rule="evenodd" clip-rule="evenodd" fill="#134861" d="M276.21,304.012c1.026,10.672-3.787,21.544-13.402,27.808
				c-13.785,8.974-32.224,5.066-41.196-8.718c-8.973-13.776-5.066-32.223,8.71-41.196c10.783-7.019,24.417-6.158,34.139,1.146
				l-8.254,0.434l-10.432,0.568l-4.737,9.302l-4.737,9.316l5.702,8.741l5.694,8.764l10.432-0.555l10.432-0.562l4.729-9.309
				L276.21,304.012z"/>
		</g>
	</g>
	<g>
		<g>
			<path fill-rule="evenodd" clip-rule="evenodd" fill="#FFDBA7" d="M203.464,390.287l-13.297,26.341
				c-2.896,5.747-10.035,8.666-16.074,6.406l-33.188-12.445c-6.04-2.259-10.469-8.074-12.482-13.866l-1.415-4.034l12.827-25.997
				c2.843-5.747,9.421-6.405,16.067-6.39l24.807,0.029l-7.692,6.271l24.56,9.047C203.63,377.879,206.368,384.54,203.464,390.287z"/>
			<polygon fill-rule="evenodd" clip-rule="evenodd" fill="#FFDBA7" points="150.768,369.184 136.616,398.443 91.851,372.005 
				105.995,342.73 			"/>
			<path fill-rule="evenodd" clip-rule="evenodd" fill="#FFDBA7" d="M214.106,388.775l-0.217,0.456
				c-1.519,3.144-5.456,4.708-8.733,3.473l-45.14-16.92c-3.285-1.235-4.729-4.812-3.21-7.954l0.224-0.457
				c1.52-3.143,5.449-4.714,8.733-3.479l45.139,16.92C214.188,382.048,215.633,385.625,214.106,388.775z"/>
			<path fill-rule="evenodd" clip-rule="evenodd" fill="#FFDBA7" d="M205.875,400.936l-0.224,0.456
				c-1.512,3.151-5.448,4.708-8.726,3.48l-23.483-8.802c-3.277-1.227-4.714-4.811-3.202-7.954l0.217-0.456
				c1.519-3.143,5.455-4.715,8.74-3.479l23.483,8.793C205.949,394.208,207.394,397.785,205.875,400.936z"/>
			<path fill-rule="evenodd" clip-rule="evenodd" fill="#FFDBA7" d="M199.88,413.612l-0.217,0.458
				c-1.511,3.143-5.447,4.705-8.732,3.479l-23.475-8.809c-3.278-1.219-4.729-4.812-3.21-7.954l0.225-0.449
				c1.52-3.144,5.455-4.715,8.74-3.479l23.476,8.8C199.963,406.893,201.407,410.469,199.88,413.612z"/>
			<path fill-rule="evenodd" clip-rule="evenodd" fill="#FFDBA7" d="M193.138,424.073l-0.172,0.352
				c-1.197,2.456-4.123,3.728-6.525,2.83l-20.968-7.865c-2.402-0.898-3.382-3.644-2.208-6.083l0.172-0.368
				c1.182-2.447,4.108-3.711,6.51-2.821l20.976,7.865C193.318,418.882,194.313,421.627,193.138,424.073z"/>
			<path fill-rule="evenodd" clip-rule="evenodd" fill="#FFDBA7" d="M177.461,360.653l0.509-0.172
				c3.479-1.146,7.146,0.523,8.164,3.696l7.296,22.704c1.017,3.166-0.996,6.713-4.46,7.864l-0.502,0.166
				c-3.48,1.145-7.154-0.518-8.171-3.697l-7.289-22.711C171.983,365.337,173.996,361.79,177.461,360.653z"/>
		</g>
		<polygon fill-rule="evenodd" clip-rule="evenodd" fill="#0C43BF" points="146.412,353.506 123.116,401.662 6.011,356.979 
			6.011,299.753 		"/>
	</g>
</g>
</svg>
