<?xml version="1.0" encoding="utf-8"?>
<!-- Generator: Adobe Illustrator 16.0.3, SVG Export Plug-In . SVG Version: 6.00 Build 0)  -->
<!DOCTYPE svg PUBLIC "-//W3C//DTD SVG 1.1//EN" "http://www.w3.org/Graphics/SVG/1.1/DTD/svg11.dtd">
<svg version="1.1" id="Capa_1" xmlns="http://www.w3.org/2000/svg" xmlns:xlink="http://www.w3.org/1999/xlink" x="0px" y="0px"
	 width="600px" height="600px" viewBox="0 0 600 600" enable-background="new 0 0 600 600" xml:space="preserve">
<g>
	<g id="CHARACTER_2">
		<path fill="#F9C68F" d="M314.389,342.361c0,0-1.77,17.423,0.888,18.984c-2.657,5.506-12.589,12.573-12.589,12.573l-10.365-11.693
			c0,0,0.88-13.253,0-17.872C296.068,343.898,314.389,342.361,314.389,342.361z"/>
		<path fill="#F7774F" d="M314.389,342.361c0,0-0.534,6.76-0.534,9.406c-4.114,1.994-11.392,5.422-21.162,0.232
			c0.071-5.622-0.184-6.31-0.37-8.209C296.092,343.968,314.389,342.361,314.389,342.361l-0.518,7.716"/>
		<path fill="#F9C68F" d="M358.959,284.993c-6.733-8.936-14.366-2.564-14.366-2.564s-0.431-4.479-1.282-10.704
			c-7.167-52.85-46.401-31.426-53.166-27.302c-7.09-1.645-52.055-10.071-41.884,42.786c1.19,6.187,2.217,10.566,2.217,10.566
			s-9.283-3.615-12.806,7.013c-3.537,10.643,9.621,26.552,24.179,18.157C267.699,332.113,272,348.781,313,344.23v0.016
			c31-4.434,35.345-24.684,38.109-35.844C367.599,311.708,365.709,293.952,358.959,284.993z"/>
		<path fill="#72291F" d="M345.157,239.619c0,0,16.566,17.007,5.63,40.617c-1.651,0.155-4.108,0.657-6.194,2.193
			c-0.479-4.34-2.532-17.54-7.059-30.004C342.724,246.679,345.157,239.619,345.157,239.619z"/>
		<path fill="#853323" d="M250.479,297.775c0,0-3.321-0.78-6.132-0.254c-6.07-5.793-14.821-22.899-11.214-43.335
			c3.737-21.192,18.992-25.17,18.992-25.17s0-15.878,19.855-17.863c19.872-1.993,44.037-6.295,47.684-12.914
			c0.657,4.967-1.652,10.598-3.307,12.914c5.947-4.302,10.589-5.97,18.206-7.291c7.605-1.313,13.894-5.624,13.894-5.624
			s8.61,14.899-2.311,30.453c3.979-4.633,5.538-7.274,5.538-7.274s7.639,29.31-27.727,40.052
			c-26.144,7.948-44.054,5.692-60.937-3.923C263.021,257.545,252.78,266.875,250.479,297.775z"/>
		<path fill="#8BA896" d="M339.148,366.382c-9.925-6.116-10.76-8.029-10.76-8.029c-7.107,10.659-15.389,7.943-15.389,7.464v-0.063
			c0,0,0.077,0,0,0.024c-0.077-0.024,0-0.024,0-0.024v0.063c-16,0.479-18.04,2.981-25.144-7.676c0,0-7.938,2.125-17.862,8.241
			c0,0-0.516,21.618,33.912,21.618h-0.229c0,0-0.163,0-0.118,0c0.04,0-0.053,0-0.053,0h-0.031
			C337.897,388,339.148,366.382,339.148,366.382z"/>
		<path fill="#452016" d="M403.691,455.469c-13.568-75.896-68.335-91.8-68.335-91.8c-11.438,14.458-31.913,13.995-31.913,13.995
			s-20.188,0.463-31.618-13.995c0,0-54.612,15.904-68.182,91.8c-0.177,1.034-0.231,2.101-0.216,3.174
			c0.494-0.664,28.059-36.03,53.22-56.912c-9.708,16.99-22.983,100.342-22.983,100.342L236.87,576h66.574h57.563l2.587-71.103
			C363.593,504.897,407.074,475.102,403.691,455.469z"/>
		<linearGradient id="SVGID_1_" gradientUnits="userSpaceOnUse" x1="216.4604" y1="436.0693" x2="258.5811" y2="460.3877">
			<stop  offset="0.3059" style="stop-color:#452016"/>
			<stop  offset="0.7763" style="stop-color:#2D140F"/>
		</linearGradient>
		<path fill="url(#SVGID_1_)" d="M203.428,458.643c0.294,19.4,30.237,44.902,30.237,44.902s15.145-85.595,22.983-101.814
			C229.98,422.057,203.922,457.979,203.428,458.643z"/>
		
			<linearGradient id="SVGID_2_" gradientUnits="userSpaceOnUse" x1="120.5317" y1="436.0684" x2="162.6515" y2="460.3862" gradientTransform="matrix(-1 0 0 1 511.1436 0)">
			<stop  offset="0.3059" style="stop-color:#452016"/>
			<stop  offset="0.7763" style="stop-color:#2D140F"/>
		</linearGradient>
		<path fill="url(#SVGID_2_)" d="M403.645,458.643c-0.301,19.4-30.235,44.902-30.235,44.902s-13.276-84.824-22.991-101.814
			C377.093,422.057,403.144,457.979,403.645,458.643z"/>
		<path fill="#FFB03D" d="M327.187,359.129c0,0-10.149-8.279-14.041-4.635l-9.748,9.175l-9.754-9.175
			c-3.894-3.645-14.033,4.635-14.033,4.635l14.049,21.186l9.738-13.64l9.731,13.64L327.187,359.129z"/>
		<path fill="#72291F" d="M266.435,297.976c-0.726,1.306,0.742-9.33,10.604-9.894c8.356-0.455,11.345,6.828,10.682,6.241
			c-1.143-0.997-5.189-5.028-13.592-2.371c0,0,4.093,16.165,1.157,16.675c-2.942,0.51-5.699-13.911-5.699-13.911
			S267.114,296.764,266.435,297.976z"/>
		<path fill="#72291F" d="M310.133,292.678c-0.728,1.305,0.741-9.33,10.597-9.886c8.371-0.47,11.361,6.82,10.688,6.241
			c-1.135-0.996-5.189-5.027-13.593-2.379c0,0,4.102,16.165,1.16,16.682c-2.951,0.502-5.7-13.917-5.7-13.917
			S310.811,291.465,310.133,292.678z"/>
		<path fill="#F7774F" d="M288.871,316.063l22.961-3.954c0,0,5.174,14.188-8.032,16.334
			C291.303,330.498,288.871,316.063,288.871,316.063z"/>
		<path fill="#72291F" d="M278.281,271.941c-3.343,0.016-10.378,4.201-7.954,6.627c2.433,2.417,5.296-3.028,7.954-3.307
			c2.071-0.208,6.611,3.307,7.94,1.77C287.55,275.471,282.747,271.941,278.281,271.941z"/>
		<path fill="#72291F" d="M312.512,266.651c-3.336,0.185-10.134,4.742-7.577,7.043c2.557,2.278,5.129-3.313,7.762-3.738
			c2.063-0.324,6.781,2.951,8.017,1.337C321.964,269.671,316.977,266.404,312.512,266.651z"/>
		<path fill="#F7774F" d="M355.954,290.863c0,0-2.842-6.348-6.912-4.51c-4.094,1.838-3.606,9.616-3.351,12.258
			c1.481-0.186,6.502,2.116,3.598,6.201c2.385-0.349,6.101-6.696-1.305-8.774C347.999,291.643,349.666,286.886,355.954,290.863z"/>
		<path fill="#F7774F" d="M297.813,294.423c1.661-0.1,4.564,12.829,2.232,13.771C297.744,309.151,295.281,294.57,297.813,294.423z"
			/>
		<path fill="#F7774F" d="M242.415,309.639c0,0,0.116-6.967,4.587-6.858c4.48,0.085,7.098,7.43,7.894,9.94
			c-1.429,0.424-5.144,4.518-0.865,7.135c-2.334,0.611-8.249-3.768-2.249-8.588C250.031,307.229,246.64,303.514,242.415,309.639z"/>
	</g>
	<g id="CHARACTER_1">
		<path fill="#2D140F" d="M82.73,345.883c0,0,2.648,14.582-14.565,22.945c-17.208,8.403-32.654,16.791-31.773,33.118
			c0.879,16.335,14.117,26.483,3.969,37.52c-10.155,11.036-17.214,32.23,13.686,46.349c30.893,14.123,65.771,29.129,107.26,18.109
			c41.489-11.053,75.486-42.385,71.509-61.809c-3.977-19.409-22.065-18.535-18.976-30.901c3.082-12.357,11.477-22.072,1.313-36.191
			c-10.148-14.132-25.162,3.104-29.565-37.519c0.88,0.433-17.216,35.757-45.474,35.757c-15.168,0-28.098-11.83-31.998-22.396
			C105.799,344.563,88.661,351.614,82.73,345.883z"/>
		<path fill="#F9C68F" d="M131.726,376.783c0,0,1.776,17.44-0.88,18.984c2.657,5.515,12.589,12.582,12.589,12.582l10.365-15.771
			c0,0-0.881-9.176,0-13.794C150.046,378.329,131.726,376.783,131.726,376.783z"/>
		<path fill="#F48951" d="M131.726,376.783c0,0,0.587,8.675,0.572,11.316c4.124,1.983,11.415,4.795,21.185-0.379
			c-0.07-5.631,0.116-7.606,0.317-9.508C150.014,378.39,131.726,376.783,131.726,376.783l0.518,7.739"/>
		<path fill="#F48951" d="M185.959,324.043c0,0,8.232-4.967,11.213,3.969s0.077,24.822-11.213,23.834
			C185.588,345.883,185.959,324.043,185.959,324.043z"/>
		<path fill="#F9C68F" d="M283.41,458.69c13.732-3.307,20.359-10.335,18.211-12.83c-2.162-2.479-8.109,0.788-8.109,0.788
			s18.707-8.889,15.23-13.778c-2.471-3.491-18.705,7.368-18.705,7.368s15.214-10.095,13.066-13.074
			c-4.301-4.806-21.168,8.781-21.168,8.781s4.873-3.817,2.302-6.133c-3.229-2.904-15.225,11.731-15.225,11.731L283.41,458.69z"/>
		<path fill="#FFB03D" d="M288.863,459.763c-11.362-13.354-11.346-13.361-18.999-21.966c-31.341,16.428-29.596,36.541-38.432,39.636
			c-8.828,3.083-9.762-34.005-26.536-56.494c-16.775-22.516-41.165-22.97-41.165-22.97c-7.615,9.499-23.617,21.185-39.064,0
			c-13.037,0.61-40.609,44.881-41.489,54.582C82.29,462.267,86.259,576,86.259,576h117.417c0-14-2.65-57.679-2.65-57.679
			c10.157,16.774,30.021,24.583,55.616,11.337C289.142,512.852,288.863,459.763,288.863,459.763z M95.535,480.128
			c-10.596-18.156-0.479-37.728-0.479-37.728l33.936,50.58C128.992,492.98,107.244,500.193,95.535,480.128z"/>
		<linearGradient id="SVGID_3_" gradientUnits="userSpaceOnUse" x1="118.7334" y1="456.0703" x2="100.5233" y2="487.6111">
			<stop  offset="0.7097" style="stop-color:#FFB03D"/>
			<stop  offset="1" style="stop-color:#FB7F34"/>
		</linearGradient>
		<path fill="url(#SVGID_3_)" d="M95.535,480.128c11.709,20.065,33.457,12.853,33.457,12.853L95.056,442.4
			C95.056,442.4,84.938,461.972,95.535,480.128z"/>
		<path fill="#F9C68F" d="M99.505,332.321c0,0-6.951-7.29-15.555-2.324c-8.62,4.958-5.63,19.208-1.985,24.822
			c3.638,5.646,16.875,13.245,22.506,0c1.328,7.955,7.322,23.486,39.396,25.162c31.449,1.653,54.294-12.24,43.374-84.075
			c0,0-30.46,10.257-47.02,1.977c-16.543-8.279-32.105-18.875-32.105-18.875S106.456,333.317,99.505,332.321z"/>
		<path fill="#452016" d="M113.746,291.767c0,0,19.03,22.089,51.144,19.771c32.113-2.317,37.488-32.144,0.085-53.352
			c-37.419-21.169-76.877,16.103-83.388,30.275c-5.584,12.187-6.256,29.657,5.329,40.261c2.981,0,4.649,1.274,4.649,1.274
			s2.642,9.932,12.249,6.95C108.448,335.951,115.723,307.816,113.746,291.767z"/>
		<polyline fill="#662520" points="107.893,442.994 138.785,548.928 211.677,523.788 188.229,422.783 106.131,442.994 		"/>
		<polygon fill="#E9D997" points="119.369,434.122 117.052,422.528 109.607,424.012 114.487,435.442 		"/>
		<polygon fill="#534741" points="138.237,428 136.584,420.117 132.698,421.9 134.051,428 		"/>
		<polygon fill="#3A2D3E" points="166.218,424.684 168.705,413.478 163.731,411.993 161.638,425.843 		"/>
		<polygon fill="#8BA896" points="177.641,438.739 188.415,435.032 189.233,441.072 179.432,443.612 		"/>
		<polyline fill="#87352A" points="99.945,435.057 130.846,540.995 203.737,515.825 176.304,419.277 98.176,435.057 		"/>
		<path fill="#F9C68F" d="M155.653,508.62c12.311-6.944,16.759-15.516,14.009-17.308c-2.75-1.808-7.599,2.949-7.599,2.949
			s15.578-13.654,10.89-17.416c-3.321-2.672-15.972,12.219-15.972,12.219s11.886-13.887,9.005-16.157
			c-5.453-3.444-17.964,14.211-17.964,14.211s3.629-4.982,0.54-6.495c-3.908-1.931-11.446,15.446-11.446,15.446L155.653,508.62z"/>
		<path fill="#FFB03D" d="M121.191,398.856c0,0-21.323,2.649-44.192,28.801c0,0-34.877,39.179-26.923,80.229
			c7.939,41.042,54.68,47.026,75.031,42.81c25.603-5.299,40.609-45.018,40.609-45.018l-26.043-16.335c0,0-13.54,8.835-32.368,0.446
			c-18.837-8.387-17.949-38.405-8.681-56.061S121.191,398.856,121.191,398.856z"/>
		<polygon fill="#F18338" points="124.257,403.089 114.952,408.789 117.933,411.993 126.659,405.477 		"/>
		<polygon fill="#F18338" points="130.846,408.789 124.559,416.736 129.965,419.277 134.051,409.685 		"/>
		<polygon fill="#F18338" points="140.005,411.344 144.531,410.559 145.527,422 139.233,422 		"/>
		<polygon fill="#F18338" points="156.78,419.277 161.746,415.725 155.127,407.685 151.481,409.453 		"/>
		<polygon fill="#F18338" points="160.309,404.38 161.862,401.098 171.068,406.363 167.871,410.187 		"/>
		<polygon fill="#F18338" points="143.18,491.543 146.06,493.351 139.287,501.058 135.588,498.115 		"/>
		<polygon fill="#F18338" points="150.617,496.209 144.091,503.801 148.114,506.364 153.583,498.069 		"/>
		<polygon fill="#F18338" points="158.665,501.258 161.415,502.966 156.563,511.746 152.201,508.981 		"/>
		<polygon fill="#FB7F34" points="265.145,448.077 268.898,451.716 275.671,444.433 273.169,441.544 		"/>
		<polygon fill="#FB7F34" points="278.791,448.016 281.078,450.688 275.517,458.69 271.161,454.589 		"/>
		<polygon fill="#FB7F34" points="284.638,454.843 286.808,457.367 280.49,464.906 277.062,461.539 		"/>
		<path fill="#63836B" d="M132.228,390.662c0,0-7.723-0.247-11.037,8.194c0.495,4.295,6.512,13.276,23,12.619
			C144.191,411.476,143.759,403.151,132.228,390.662z"/>
		<path fill="#63836B" d="M153.799,390.022c0,0,6.843-0.495,10.148,7.946c-0.494,4.302-5.066,14.164-21.563,13.507
			C142.384,411.476,142.269,402.532,153.799,390.022z"/>
		<path fill="#F48951" d="M83.047,342.795c0,0,0.401-8.441,5.869-8.165c5.46,0.263,8.38,9.269,9.26,12.358
			c-1.76,0.439-6.441,5.297-1.312,8.618c-2.874,0.648-9.933-4.864-2.433-10.495C92.445,340.153,88.444,335.512,83.047,342.795z"/>
		<path fill="#452016" d="M181.603,330.498c0,0,4.31-7.723,3.32-7.838c-1.004-0.117-3.32,2.533-3.32,2.533s-3.8-4.797-10.086-4.132
			c-6.295,0.664-8.449,8.595-8.449,8.595s6.696-5.945,10.998-4.625C178.375,326.351,181.603,330.498,181.603,330.498z"/>
		<path fill="#452016" d="M139.233,333.147c0,0,4.31-7.723,3.305-7.847c-0.988-0.107-3.305,2.541-3.305,2.541
			s-2.317-4.471-11.933-3.668c-6.302,0.533-12.565,11.947-12.565,11.947s9.268-7.453,15.23-7.453
			C134.468,328.668,139.233,333.147,139.233,333.147z"/>
		<path fill="#F48951" d="M155.791,334.145c-1.637,0.324-1.158,13.563,1.321,13.902C159.591,348.37,158.271,333.643,155.791,334.145
			z"/>
		<path fill="#F48951" d="M131.726,352.51c0,0,20.142,5.129,33.442,3.978c-1.437,3.297-6.735,13.887-19.641,12.249
			C132.614,367.068,131.68,355.816,131.726,352.51z"/>
		<path fill="#452016" d="M139.565,315.771c0.919-0.911-1.614-4.479-7.839-4.479s-14.172,5.128-13.346,7.283
			c0.819,2.146,7.4-2.703,13.346-3.638C135.927,314.272,138.237,317.092,139.565,315.771z"/>
		<path fill="#452016" d="M162.727,315.871c-1.143-0.472,0.726-4.657,6.511-5.653c5.777-0.997,11.886,2.03,10.758,4.032
			c-1.034,1.813-3.266-1.144-8.727-1.121C166.527,313.152,165.276,316.944,162.727,315.871z"/>
	</g>
	<path fill="#EDB47C" d="M470.645,370.166c0,0-1.762,17.431,0.888,18.976c-2.649,5.522-12.581,12.589-12.581,12.589l-10.372-11.708
		c0,0,0.881-13.239,0-17.872C452.332,371.727,470.645,370.166,470.645,370.166z"/>
	<path fill="#F7774F" d="M470.645,370.166c0,0-0.571,8.665-0.571,11.306c-4.116,2-11.407,4.819-21.187-0.377
		c0.078-5.63-0.123-7.601-0.308-9.501C452.365,371.779,470.645,370.166,470.645,370.166l-0.518,7.715"/>
	<path fill="#F7774F" d="M415.099,318.736c0,0-8.233-4.959-11.214,3.977c-2.982,8.937-0.085,24.832,11.214,23.843
		C415.462,340.592,415.099,318.736,415.099,318.736z"/>
	<path fill="#EDB47C" d="M502.873,325.688c0,0,6.95-7.283,15.562-2.316c8.598,4.98,5.616,19.199,1.971,24.829
		c-3.631,5.63-16.875,13.253-22.505,0c-1.313,7.955-7.322,23.479-39.39,25.163c-31.449,1.659-54.294-12.242-43.365-84.091
		c0,0,30.452,10.272,47.004,1.984c16.551-8.279,32.112-18.868,32.112-18.868S495.915,326.684,502.873,325.688z"/>
	<path fill="#F7774F" d="M519.324,336.167c0,0-0.386-8.433-5.862-8.155c-5.453,0.278-8.381,9.26-9.269,12.357
		c1.762,0.439,6.449,5.283,1.32,8.604c2.875,0.664,9.948-4.865,2.434-10.488C509.934,333.525,513.933,328.893,519.324,336.167z"/>
	<path fill="#F7774F" d="M445.266,324.868c1.638,0.325,1.159,13.57-1.32,13.91C441.449,339.087,442.786,324.367,445.266,324.868z"/>
	<path fill="#F7774F" d="M456.943,347.203c0,0-14.326-0.617-22.605-1.961c0.432,3.43,2.208,13.678,11.553,13.64
		C455.252,358.828,456.402,350.479,456.943,347.203z"/>
	<path fill="#1A1A1A" d="M417.655,319.732c-0.988,1.121,2.733-9.438,12.404-7.484c7.814,1.576,7.737,8.998,7.15,8.318
		c-0.54-0.633-1.266-5.955-10.781-5.136c0,0,0.664,16.667-2.317,16.544c-2.979-0.102-2.709-14.775-2.709-14.775
		S418.567,318.682,417.655,319.732z"/>
	<path fill="#1A1A1A" d="M437.21,308.643c-0.401,1.367-10.349-2.14-9.748-3.477C428.082,303.838,437.891,306.34,437.21,308.643z"/>
	<path fill="#1A1A1A" d="M475.966,306.951c-0.642-1.553-13.485-0.047-12.866,2.633C463.47,311.16,476.592,308.51,475.966,306.951"/>
	<path fill="#1A1A1A" d="M461.493,323.192c-1.052,1.074,3.25-9.392,12.789-6.812c9.137,2.471,12.558,10.211,12.002,9.499
		c-0.495-0.656-6.263-6.843-15.801-6.533c0,0-0.233,16.683-3.198,16.419c-2.967-0.27-1.923-14.912-1.923-14.912
		S462.449,322.197,461.493,323.192z"/>
	<path fill="#1A1A1A" d="M489.684,282.322c0,0-2.612,43.868,7.319,47.12c6.503,2.153,10.365-6.836,10.365-6.836
		s6.735-2.533,13.238,2.449c3.491-6.566,22.026-34.786-8.843-59.5c5.32-0.448,6.2-6.734,4.54-8.388
		c-1.651-1.652-7.607-3.313-10.249,2.966c0.989-8.596-1.861-12.643-6.967-12.565c-4.023,0.038-2.315,9.933-2.315,9.933
		s-14.559-20.205-55.616-9.933c-41.048,10.256-42.315,52.332-29.464,60.627c1.993,1.938,14.906-10.975,18.868-16.265
		c-3.962,6.951-7.491,9.924-5.299,12.241C427.462,306.503,475.52,312.219,489.684,282.322z"/>
	<path fill="#591E2C" d="M472,485.326l32.922-0.402c0,0-4.316-86.391-6.075-88.168c-1.777-1.754-22.902-8.704-22.902-8.704
		c-4.323,9.632-12.802,11.238-16.889,11.361c-4.085-0.123-12.232-1.729-16.543-11.361c0,0-19.949,6.95-21.72,8.704
		c-1.761,1.777-3.771,88.168-3.771,88.168L455,485.326v0.038l8.5-0.021l8.5,0.021V485.326z"/>
	<path fill="#3A121E" d="M470.149,384.053c0,0,6.657-3.855,9.955,3.22c1.885,4.077-1.281,18.204-20.049,18.874
		c-20.645,0.735-24.599-15.197-20.436-19.099c3.197-2.995,8.579-3.899,9.16-0.68c0.71,4.017,2.795,9.578,10.828,9.354
		C467.64,395.505,469.956,386.933,470.149,384.053z"/>
	<path fill="#65A2A3" d="M526.316,536.424c-20.66,4.696-54.316-5.878-54.316-8.582v-0.531c0,0,0.417,0.1,0,0.261
		c-0.416-0.161,0-0.261,0-0.261v0.531c-17,2.704-45.291,13.278-65.967,8.582L394.818,576h64.89h1.314h64.882L526.316,536.424z"/>
	<polygon fill="#E9D997" points="373.71,481.372 338.028,522.02 390.191,572.336 425.379,529.958 	"/>
	<polyline fill="none" stroke="#3A121E" stroke-miterlimit="10" points="352.001,524.26 360.819,523.363 358.604,517.5 
		369.647,517.5 369.037,510.5 378.916,510.5 378.298,500.369 	"/>
	<g>
		<path fill="#3A121E" d="M369.169,541.998l-7.97-9.83l23.339-29.619l12.573,9.67l-0.494,0.532L369.169,541.998z M362.889,532.16
			l6.357,7.822l25.903-27.602l-10.38-7.985L362.889,532.16z"/>
	</g>
	<g>
		<polygon fill="#3A121E" points="373.572,548.719 372.207,547.815 376,543.383 376,538 383.039,538 378.932,535.574 384,535.643 
			384,529 394.331,529 393,524.158 393,519.494 401.264,523.695 401.355,524.816 397.07,521.881 397.236,523.305 395.304,529 
			384,529 384,536.632 380.315,535.695 385.396,538 376,538 376,543.906 		"/>
	</g>
	<g>
		<polygon fill="#3A121E" points="385.18,554.859 384.137,554.048 406.865,525.124 407.909,525.935 		"/>
	</g>
	<g>
		<polygon fill="#3A121E" points="388.045,560.829 387.025,559.986 410.627,530.862 411.662,531.697 		"/>
	</g>
	<linearGradient id="SVGID_4_" gradientUnits="userSpaceOnUse" x1="488.5186" y1="463.5596" x2="491.5199" y2="480.5812">
		<stop  offset="0.3226" style="stop-color:#65A2A3"/>
		<stop  offset="0.9677" style="stop-color:#418683"/>
	</linearGradient>
	<path fill="url(#SVGID_4_)" d="M506.209,477.981c0.997-1.66,5.793-16.874,5.631-18.534c-3.808,1.141-16.567,3.885-18.698,4.624
		c-0.502,0.179-2.123,0.741-4.34,1.515c-5.932,2.093-16.513,5.894-22.49,8.417C466.312,474.003,491.475,480.962,506.209,477.981z"/>
	<linearGradient id="SVGID_5_" gradientUnits="userSpaceOnUse" x1="373.6211" y1="532.0693" x2="448.4115" y2="504.8478">
		<stop  offset="0.6882" style="stop-color:#65A2A3"/>
		<stop  offset="1" style="stop-color:#418683"/>
	</linearGradient>
	<path fill="url(#SVGID_5_)" d="M414.673,477.981c-3.134-2.34-43.59,47.004-43.619,47.034c0.094,0.154,0.185,0.325,0.278,0.471
		c0.486,0.803,1.636,2.627,3.413,4.904c7.014,8.743,18.227,16.783,31.316,19.425l0,0c11.717,1.328,20.599,1.428,28.601-0.688
		c4.371-1.291,8.758-3.159,13.13-5.708c3.722-2.262,7.507-5.058,11.569-8.487c0,0-15.339-17.106-25.047-31.688
		C424.606,488.702,417.47,480.028,414.673,477.981z"/>
	<path fill="#65A2A3" d="M533.194,425.333c-5.638-8.28-23.926-24.985-43.251-31.534c0,0,4.188,63.653,3.198,70.272
		c2.131-0.739,14.891-3.483,18.698-4.624c0.162,1.66-4.634,16.874-5.631,18.534c-14.734,2.98-39.897-3.979-39.897-3.979
		c-12.573-4.301-36.075-12.572-41.05-12.255l-2.525,2.323c0,0-5.962,1.661-16.675,4.473c0,0-8.765-17.377,1.168-37.914
		c5.336-10.402,15.206-19.687,18.449-22.56c0.472-7.83,0.883-13.516,1.105-14.271c-3.476,1.481-19.063,3.73-46.216,37.504
		c-27.141,33.767-22.166,69.525-10.258,92.369c0.249,0.448,0.496,0.896,0.743,1.344c0.029-0.03,40.485-49.374,43.619-47.034
		c2.797,2.047,9.934,10.704,19.642,25.264c9.708,14.572,25.047,31.68,25.047,31.68c10.271,9.269,46.276,35.604,84.098-7.291
		C575.58,491.228,538.816,433.611,533.194,425.333z"/>
	<linearGradient id="SVGID_6_" gradientUnits="userSpaceOnUse" x1="434.0732" y1="412.917" x2="402.983" y2="466.7668">
		<stop  offset="0.6429" style="stop-color:#65A2A3"/>
		<stop  offset="1" style="stop-color:#418683"/>
	</linearGradient>
	<path fill="url(#SVGID_6_)" d="M406.062,430.144c-9.978,20.498,0,38.4,0,38.4c10.713-2.812,16.675-4.473,16.675-4.473
		s1.7-35.434,2.942-56.001C422.436,410.943,412.188,417.57,406.062,430.144z"/>
	<polygon fill="#452016" points="512.125,465.855 537.397,429.981 542.246,426.97 543.143,431.927 517.054,466.521 	"/>
	<path fill="#EDB47C" d="M511.84,459.447c0,0-4.302,17.538-5.631,18.534c3.478,0.665,16.891,5.298,19.372-0.996
		c0.825-2.647-2.812-4.355-2.812-4.355s4.463-1.268,4.463-4.759c0-3.452-10.256-3.545-11.091-4.416
		c4.635-0.704,7.939-5.508,6.288-7.654C520.776,453.638,511.84,459.447,511.84,459.447z"/>
	<path fill="#EDB47C" d="M422.736,464.071c0,0-6.743,10.267-8.063,13.91c-3.475-2.155-7.938-6.619-8.611-9.438
		C410.534,465.895,418.211,461.926,422.736,464.071z"/>
	<polygon fill="#C69C6D" points="537.397,429.981 538.061,430.205 538.262,430.815 539.521,430.307 539.898,431.38 541.181,430.862 
		541.52,431.927 542.355,431.542 543.143,431.927 542.246,426.97 	"/>
	<polygon fill="#452016" points="540.648,427.974 542.246,426.97 542.54,428.515 	"/>
	<g id="TABLE">
		<path fill="#452016" d="M122,564.381c0,2.811,6.351-2.381,3.548-2.381H62.989C60.193,562,50,567.191,50,564.381v-0.238
			C50,561.346,60.193,562,62.989,562h62.559c2.803,0-3.548-0.654-3.548,2.143V564.381z"/>
		<path fill="#FB7F34" d="M122,563.763c0,2.796-1.441,4.237-4.246,4.237H56.726c-2.804,0-6.726-1.441-6.726-4.237v-5.684
			c0-2.795,3.922-5.079,6.726-5.079h61.028c2.805,0,4.246,2.284,4.246,5.079V563.763z"/>
		<path fill="#63836B" d="M121,549.925c0,2.803-2.272,5.075-5.074,5.075H55.074c-2.802,0-5.074-2.272-5.074-5.075v-6.85
			c0-2.803,2.272-5.075,5.074-5.075h60.852c2.802,0,5.074,2.272,5.074,5.075V549.925z"/>
		<path fill="#72291F" d="M122,533.218c0,2.811,6.351,4.782,3.548,4.782H62.989C60.193,538,50,536.028,50,533.218v-0.224
			C50,530.182,60.193,529,62.989,529h62.559c2.803,0-3.548,1.182-3.548,3.994V533.218z"/>
		<g>
			<path fill="#5C4B58" d="M581,583c0,2.762-2.238,5-5,5H17c-2.761,0-5-2.238-5-5v-7c0-2.762,2.239-5,5-5h559c2.762,0,5,2.238,5,5
				V583z"/>
		</g>
		<g>
			<g>
				<polygon fill="#452016" points="419.525,552.643 414.288,551.807 419.747,517.81 422.513,516.612 424.978,518.652 				"/>
				<polygon fill="#C69C6D" points="419.747,517.81 420.436,517.966 420.898,518.652 421.61,517.902 422.258,518.86 
					423.115,518.157 423.578,519.077 424.244,518.505 424.978,518.652 423.23,514.08 				"/>
				<polygon fill="#452016" points="423.85,515.508 422.15,515.238 423.23,514.08 				"/>
			</g>
			<g>
				<polygon fill="#2D140F" points="401.205,544.703 406.441,543.854 400.98,509.863 398.215,508.675 395.761,510.713 				"/>
				<polygon fill="#C69C6D" points="400.98,509.863 400.292,510.025 399.838,510.713 399.119,509.963 398.47,510.912 
					397.613,510.203 397.149,511.129 396.494,510.565 395.761,510.713 397.497,506.124 				"/>
				<polygon fill="#2D140F" points="396.879,507.555 398.579,507.284 397.497,506.124 				"/>
			</g>
			<g>
				<polygon fill="#3A121E" points="414.219,538.146 408.943,537.729 410.975,512.644 416.257,513.075 				"/>
				<g>
					<path fill="#591E2C" d="M412.142,494.149c-0.549-0.044-1.032,0.368-1.076,0.917l-0.05,0.631
						c-0.044,0.549-0.376,0.971-0.74,0.939c-0.363-0.031-0.636-0.353-0.605-0.714c0.029-0.361-0.242-0.677-0.604-0.702
						c-0.36-0.026-0.683,0.248-0.714,0.609c-0.031,0.36-0.095,1.104-0.14,1.652l-0.053,0.641c-0.045,0.549-0.118,1.445-0.162,1.994
						l-1.546,19.12c-0.044,0.549,0.219,1.021,0.584,1.052s0.7-0.394,0.744-0.942l1.539-19.113c0.044-0.549,0.377-0.975,0.74-0.947
						s0.624,0.498,0.579,1.047l-1.228,15.167c-0.045,0.549,0.367,1.033,0.916,1.078l5.922,0.479
						c0.549,0.045,1.033-0.367,1.078-0.916l1.652-20.442c0.045-0.549-0.367-1.033-0.916-1.077L412.142,494.149z"/>
				</g>
			</g>
			<path fill="#FFB03D" d="M423.054,562c0.872,0,4.441-33.626,2.834-34.365c-1.823-0.82-13.856,0.563-13.856,0.563
				s-12.124-2.521-13.947-1.679c-1.59,0.724,1.901,35.481,2.765,35.481H423.054z"/>
		</g>
		<g>
			<g>
				<path fill="#B3B3B3" d="M370,558c0,1.657-1.343,3-3,3H231c-1.657,0-3-1.343-3-3v-79c0-1.657,1.343-3,3-3h136
					c1.657,0,3,1.343,3,3V558z"/>
			</g>
			<g>
				<path fill="#999999" d="M372,568c0,1.657-1.343,3-3,3H227c-1.657,0-3-1.343-3-3v-5c0-1.657,1.343-3,3-3h142c1.657,0,3,1.343,3,3
					V568z"/>
			</g>
			<path fill="#F2F2F2" d="M304.518,517.486l2.618-4.085l-4.341,1.25l-2.811-6.363l-2.812,6.363l-4.324-1.25l2.749,4.292
				c-1.127,1.26-1.815,2.958-1.815,4.851c0,3.847,2.866,6.968,6.371,6.968c3.515,0,6.364-3.121,6.364-6.968
				C306.518,520.552,305.745,518.753,304.518,517.486z"/>
		</g>
		<path fill="#3A121E" d="M549,571.664c0,2.804-1.379,4.336-4.189,4.336h-61.014c-2.812,0-5.797-1.532-5.797-4.336v-5.668
			c0-2.804,2.985-3.996,5.797-3.996h61.014c2.811,0,4.189,1.192,4.189,3.996V571.664z"/>
		<path fill="#452016" d="M566,557.276c0,1.251,0.042,4.724-3.857,4.724h-64.706c-3.909,0-3.437-3.473-3.437-4.724v-2.619
			c0-1.251-0.473-1.657,3.437-1.657h64.706c3.899,0,3.857,0.406,3.857,1.657V557.276z"/>
	</g>
	<path fill="#FFB03D" d="M329.232,121.199c0,19.239-14.837,45.042-34.872,46.556c-18.704-2.981-34.831-27.317-34.831-46.556
		c0-19.254,15.585-34.863,34.831-34.863C313.616,86.336,329.232,101.945,329.232,121.199z"/>
	<path fill="#F18338" d="M290.794,149c0,0,2.455-22.786,0-28.347c-2.472-5.576-18.537,3.019-11.331,10.641
		c7.199,7.616,5.284-7.706,5.284-7.706S288.322,119,288.322,149C289.142,149,290.794,149,290.794,149z"/>
	<path fill="#F18338" d="M300.124,149c0,0-2.464-22.786,0-28.347c2.478-5.576,18.542,3.019,11.337,10.641
		c-7.214,7.616-5.299-7.706-5.299-7.706S302.602,119,302.602,149C301.791,149,300.124,149,300.124,149z"/>
	<rect x="265" y="149" fill="#333333" width="64" height="24"/>
	<rect x="265.739" y="149" fill="#1A1A1A" width="55.593" height="0"/>
	<rect x="265.739" y="173" fill="#1A1A1A" width="55.593" height="0"/>
	<rect x="265.739" y="173" fill="#1A1A1A" width="55.593" height="0"/>
	<g>
		<rect x="289" y="47" fill="#65A2A3" width="8" height="23"/>
	</g>
	<g>
		<polygon fill="#65A2A3" points="328.236,89.912 323.23,84.9 346.601,61.514 351.606,66.534 		"/>
	</g>
	<g>
		<polygon fill="#65A2A3" points="261.584,89.912 238.183,66.534 243.203,61.514 266.582,84.9 		"/>
	</g>
	<g>
		<rect x="336" y="119" fill="#65A2A3" width="32" height="8"/>
	</g>
	<g>
		<rect x="218" y="119" fill="#65A2A3" width="32" height="8"/>
	</g>
	<rect x="275.671" y="179.332" fill="#1A1A1A" width="45.074" height="8.897"/>
</g>
</svg>
