<?xml version="1.0" encoding="utf-8"?>
<!-- Generator: Adobe Illustrator 16.0.3, SVG Export Plug-In . SVG Version: 6.00 Build 0)  -->
<!DOCTYPE svg PUBLIC "-//W3C//DTD SVG 1.1//EN" "http://www.w3.org/Graphics/SVG/1.1/DTD/svg11.dtd">
<svg version="1.1" id="Capa_1" xmlns="http://www.w3.org/2000/svg" xmlns:xlink="http://www.w3.org/1999/xlink" x="0px" y="0px"
	 width="600px" height="600px" viewBox="0 0 600 600" enable-background="new 0 0 600 600" xml:space="preserve">
<g>
	<path fill="#EBBB9E" d="M7.203,347.112c-13.794,59.767,165.339,183.434,230.598,139.73c65.253-43.708,40.379-248.629,4.268-263.053
		C182.554,200.042,22.577,280.46,7.203,347.112z"/>
	<path fill="none" stroke="#FFFDDF" stroke-miterlimit="10" d="M6.825,360.962c-7.627,60.871,183.21,165.602,243.651,115.453
		c60.475-50.115,14.789-251.456-22.615-262.077C166.227,196.771,15.315,293.101,6.825,360.962z"/>
	<path fill="#92BDC1" d="M592.797,347.112c13.813,59.767-165.328,183.434-230.602,139.73
		c-65.253-43.708-40.381-248.629-4.268-263.053C417.459,200.042,577.416,280.46,592.797,347.112z"/>
	<path fill="none" stroke="#FFFDDF" stroke-miterlimit="10" d="M593.09,364.067c6.207,61.035-186.942,161.373-246.244,109.876
		c-59.308-51.521-9.044-251.762,28.6-261.56C437.459,196.259,586.15,296.032,593.09,364.067z"/>
	<path fill="#DE5C5D" d="M48.904,377.467c-2.685-10.848-3.286-22.119-1.416-33.113c3.988-23.391,17.74-37.627,35.825-51.173
		c17.537-13.108,17.344-33.718,27.006-51.818c10.538-19.767,35.134-28.64,57.479-27.024c22.346,1.575,43.08,11.625,63.183,21.489
		c3.878,1.901,7.773,3.842,10.917,6.78c3.141,2.944,5.457,7.085,5.164,11.378c-0.631,9.539-12.519,14.171-16.248,22.964
		c-5.291,12.437,7.6,25.936,5.699,39.342c-1.635,11.593-14.622,18.604-19.448,29.33c-4.849,10.768-6.6,22.833-7.72,34.479
		c-1.927,20.485-3.389,42.915-17.474,57.91c-15.739,16.771-42.216,18.18-64.496,12.558c-23.626-5.978-45.798-18.832-61.017-37.867
		C58.129,402.392,52.074,390.255,48.904,377.467z"/>
	<path fill="#E2938E" d="M127.566,338.165c-1.764-2.638-1.349-6.147-0.315-9.132c2.257-6.454,7.215-11.951,13.443-14.789
		c2.994-1.389,6.527-2.147,9.578-0.917c4.546,1.88,6.271,7.252,9.245,11.145c-1.246,7.997-2.472,15.939-3.719,23.923
		c-6.852-2.002-13.718-3.942-20.591-5.942C132.349,341.615,129.245,340.649,127.566,338.165z"/>
	<path fill="#E7BCA8" d="M203.963,327.445c-2.449,6.679-6.945,13.982-14.164,16.463c-9.817,3.368-20.089-2.293-27.823-7.931
		c-8.079-5.903-17.128-13.379-21.07-22.837c-3.31-7.963-2.775-17.075-0.764-25.509c3.403-14.237,10.917-27.438,21.409-37.673
		c6.115-5.923,13.417-10.94,21.721-12.815c8.315-1.848,17.72-0.126,23.808,5.849c4.188,4.114,6.484,9.871,7.355,15.692
		c0.857,5.796,0.396,11.745-0.24,17.587c-1.369,12.382-3.562,24.473-6.267,36.603C206.978,317.161,205.784,322.419,203.963,327.445z
		"/>
	<path fill="#DE5C5D" d="M134.719,330.035c-3.014,3.064-6.61,5.638-10.887,7.617c-8.385,3.822-19.654,2.906-25.197-4.491
		c-5.404-7.172-3.689-17.323-0.788-25.844c2.442-7.165,5.556-14.137,9.285-20.764c3.297-5.869,6.212-12.283,9.731-17.879
		c7.624-12.191,19.153-22.811,31.641-29.784c15.853-8.86,35.098-12.196,52.601-7.351c5.119,1.41,10.359,3.756,13.233,8.188
		c3.586,5.477,2.39,13.42-2.366,17.906c-4.719,4.434-11.754,5.318-18.232,5.191c-6.487-0.153-13.104-1.077-19.351,0.631
		c-8.793,2.439-15.507,9.791-19.552,17.959c-4.071,8.156-5.912,17.222-8.202,26.048
		C144.419,316.038,140.694,323.987,134.719,330.035z"/>
	<path fill="#E2938E" d="M271.964,356.631c-2.236-0.673-17.344,12.155-17.344,12.155c3.822-4.801,18.906-21.408,15.935-21.999
		c-3.001-0.613-19.275,15.008-19.275,15.008s15.616-21.63,15.108-23.099c-0.512-1.482-6.507,2.395-13.064,10.826
		c-5.211,6.701-12.572,18.853-14.4,22.021c1.409-4.088-3.311-21.799-4.922-20.656c-1.655,1.162-3.29,21.772-2.728,35.989
		c0.172,4.235-0.532,8.72-2.021,13.613c4.36,2.833,8.744,5.592,13.08,8.436c1-3.317,1.974-6.216,2.901-8.501
		c6.384-15.606,26.168-32.39,24.533-33.027c-1.625-0.631-14.832,10.7-14.832,10.7C257.103,374.442,274.208,357.348,271.964,356.631z
		"/>
	<path fill="#7B404F" d="M166.473,354.15c13.911,2.332,25.094,13.398,31.346,26.075c6.237,12.641,5.483,24.001,7.504,37.952
		c1.196,8.314,2.39,16.623,3.586,24.898c6.188-16.338,13.961-32.358,20.149-48.673l19.372,8.92
		c-7.554,22.371-10.598,41.792-19.471,62.365c-2.778,6.471-6.477,13.479-13.207,15.505c-7.578,2.287-13.888-1.487-19.518-7.071
		c-13.144-13.108-18.089-31.332-21.951-49.45c-2.409-11.313-4.217-18.811-4.556-30.37
		C169.321,381.095,166.858,367.357,166.473,354.15z"/>
	<path fill="#7B404F" d="M180.384,365.621c-6.905-10.501-15.649-16.123-27.912-18.882c-12.545-2.851-25.221-5.159-37.966-6.958
		l0.715,1.263c-4.832-7.479-16.012-8.435-23.931-4.394c-7.903,4.065-13.234,11.744-17.972,19.248
		c-13.63,21.667-25.168,44.612-34.746,68.32c6.606,6.314,13.462,12.343,20.08,18.63c10.089-21.408,22.213-41.873,36.184-60.948
		c-1.326,11.964-0.442,24.2-0.911,36.23c-0.469,12.016-2.921,24.519-10.519,33.83c19.385,16.357,40.947,29.048,66.181,31.618
		c7.939-15.466,14.204-31.763,18.641-48.594c7.71-1.083,13.513-7.456,16.699-14.562c3.184-7.112,3.892-15.055,4.547-22.804
		C190.451,386.121,186.722,375.245,180.384,365.621z"/>
	<path fill="#ADA446" d="M107.284,430.314c7.804,3.974,15.597,7.949,23.39,11.943c-2.728-28.966,0.562-58.484,9.591-86.14
		c-6.015-2.062-12.034-4.162-18.039-6.256C114.885,376.177,109.877,403.124,107.284,430.314z"/>
	<g>
		<path fill="#4A5552" d="M178.706,279.315c1.98,0.491,4.188-0.02,5.762-1.328c-0.867,2.085-3.177,3.455-5.437,3.255
			C178.922,280.605,178.809,279.947,178.706,279.315z"/>
		<path fill="#4F6F4C" d="M180.118,283.484c-0.562,3.874-3.024,6.759-5.497,6.393c-2.472-0.345-4.004-3.801-3.433-7.703
			c0.562-3.901,3.024-6.78,5.493-6.414C179.145,276.133,180.687,279.588,180.118,283.484z"/>
		<path fill="#4A5552" d="M178.556,283.244c-0.379,2.526-1.971,4.388-3.569,4.141c-1.608-0.227-2.606-2.453-2.244-5.005
			c0.366-2.493,1.961-4.373,3.572-4.161C177.922,278.465,178.922,280.705,178.556,283.244z"/>
		<path fill="#FFFFFF" d="M179.434,281.336c-0.033,0.492-0.462,0.885-0.964,0.857c-0.511-0.02-0.887-0.466-0.847-0.951
			c0.02-0.538,0.461-0.903,0.96-0.883C179.084,280.419,179.47,280.851,179.434,281.336z"/>
	</g>
	<g>
		<path fill="#4A5552" d="M208.173,283.828c2.001,0.485,4.194,0,5.779-1.322c-0.88,2.101-3.197,3.47-5.433,3.243
			C208.396,285.118,208.293,284.46,208.173,283.828z"/>
		<path fill="#4F6F4C" d="M209.593,287.997c-0.564,3.861-3.024,6.746-5.487,6.414c-2.473-0.406-4.021-3.835-3.449-7.705
			c0.572-3.901,3.035-6.772,5.494-6.434C208.609,280.658,210.151,284.095,209.593,287.997z"/>
		<path fill="#4A5552" d="M208.028,287.771c-0.366,2.539-1.971,4.393-3.583,4.146c-1.592-0.239-2.592-2.492-2.23-4.998
			c0.369-2.539,1.964-4.413,3.569-4.167C207.396,282.991,208.396,285.245,208.028,287.771z"/>
		<path fill="#FFFFFF" d="M208.908,285.876c-0.03,0.486-0.472,0.871-0.954,0.83c-0.508-0.033-0.896-0.444-0.874-0.957
			c0.047-0.504,0.489-0.897,0.971-0.851C208.563,284.932,208.932,285.338,208.908,285.876z"/>
	</g>
	<path fill="#6F2738" d="M185.109,271.699c0.03-2.293-1.532-4.374-3.493-5.537c-1.964-1.164-4.267-1.576-6.543-1.881
		c-2.217-0.239-4.51-0.385-6.664,0.18c-2.173,0.578-4.217,1.968-5.044,4.067C170.617,266.388,178.779,267.571,185.109,271.699z"/>
	<path fill="#6F2738" d="M215.9,276.025c-0.781-3.595-4.095-6.5-7.75-6.799c-3.676-0.313-7.424,2.06-8.75,5.491
		C204.618,272.224,211.145,272.762,215.9,276.025z"/>
	<g>
		<path fill="#E2938E" d="M182.332,317.985c0.797,0.485,1.648,0.958,2.585,1.057c0.931,0.066,1.951-0.246,2.459-1.037
			c0.778-1.188,0.083-2.844-0.96-3.821c-1.041-0.977-2.389-1.607-3.34-2.653c-0.97-1.103-1.445-2.558-2.273-3.78
			c-0.831-1.189-2.333-2.187-3.709-1.675c-1.043,0.392-1.645,1.528-1.645,2.652c0,1.13,0.479,2.173,1.04,3.13
			C177.901,314.324,179.936,316.451,182.332,317.985z"/>
		<path fill="#E2938E" d="M186.07,322.419c-5.626,1.303-11.938-2.087-13.971-7.497c-0.306-0.838-0.522-1.715-0.389-2.579
			c0.146-0.878,0.714-1.716,1.572-1.96c1-0.287,2.034,0.345,2.871,0.957C179.434,313.751,184.139,318.815,186.07,322.419z"/>
		<path fill="#8C205C" d="M176.489,318.882c1.934,1.616,4.237,2.82,6.68,3.497c1.153,0.286,2.356,0.485,3.526,0.22
			c1.163-0.267,2.243-1.076,2.559-2.228c0.369-1.31-0.326-2.679-1.306-3.595c-0.986-0.938-2.236-1.47-3.39-2.199
			c-2.256-1.392-4.174-3.356-5.503-5.677c-0.837-1.456-1.605-3.191-3.201-3.723c-1.529-0.491-3.256,0.426-4.061,1.795
			c-0.787,1.409-0.797,3.123-0.472,4.679C172.139,315.552,173.425,316.35,176.489,318.882z"/>
		<path fill="#F2F3D4" d="M179.055,308.9c1.329,2.32,3.247,4.285,5.503,5.677c1.153,0.729,2.403,1.261,3.39,2.199
			c0.392,0.385,0.748,0.825,1,1.31c-3.858,0.146-7.783-1.557-10.179-4.601c-1.821-2.299-2.718-5.25-2.616-8.168
			C177.542,305.948,178.277,307.557,179.055,308.9z"/>
		<path fill="#BA5075" d="M179.716,321.01c-1.143-0.579-2.246-1.296-3.227-2.128c-3.064-2.532-4.351-3.33-5.167-7.23
			c-0.326-1.556-0.315-3.27,0.472-4.679c0.149-0.246,0.335-0.465,0.542-0.678c0.193,0.252,0.396,0.49,0.578,0.724
			C176.061,311.187,178.36,315.985,179.716,321.01z"/>
	</g>
	<path fill="#E2938E" d="M158.147,292.31c-1.594-0.046-3.35,0.551-4.024,2.001c-0.642,1.329-0.083,3.017,1.053,3.987
		c1.133,0.978,2.695,1.296,4.178,1.216c1.04-0.039,2.144-0.305,2.877-1.043c1.104-1.117,1.024-3.071,0.06-4.307
		C161.332,292.92,159.709,292.33,158.147,292.31z"/>
	<path fill="#E2938E" d="M203.691,304.321c-1.585-0.027-3.35,0.564-4.035,2.021c-0.618,1.308-0.054,3.023,1.07,4
		c1.126,0.938,2.694,1.263,4.161,1.211c1.046-0.041,2.17-0.332,2.894-1.064c1.097-1.123,1.024-3.07,0.054-4.288
		C206.884,304.925,205.249,304.34,203.691,304.321z"/>
	<g>
		<path fill="#5D5D5D" d="M191.075,310.707c0.093-0.151,0.512,0.021,1.126-0.119c0.608-0.16,1.509-0.711,1.781-1.814
			c0.379-1.063,0.256-2.698,0.144-4.52c-0.07-1.815-0.292-3.808-0.479-5.956c-0.396-4.233-0.396-8.242,0.173-11.061
			c0.196-1.409,0.615-2.512,0.868-3.263c0.279-0.757,0.501-1.143,0.644-1.123c0.144,0.059,0.207,0.485,0.196,1.29
			c0,0.791-0.186,1.874-0.172,3.243c-0.157,2.752,0.063,6.514,0.479,10.741c0.173,2.126,0.335,4.167,0.302,6.068
			c0,0.964-0.007,1.861-0.096,2.712c-0.093,0.844-0.243,1.721-0.635,2.479c-0.316,0.758-0.941,1.37-1.509,1.655
			c-0.598,0.325-1.18,0.425-1.645,0.365C191.278,311.306,190.982,310.774,191.075,310.707z"/>
	</g>
	<path fill="#C6BD56" d="M172.578,365.503c-0.492,2.141-0.848,3.689-0.888,3.955c-9.498-0.492-18.864-2.366-27.842-5.473
		c-7.87-2.719-15.973-3.74-23.755-7.19c-1.124-0.504-14.636-6.146-14.44-6.698c0.645-1.796,8.199-21.224,10.08-20.612
		c20.315,6.614,40.647,13.214,60.982,19.842C176.436,349.178,173.938,359.573,172.578,365.503z"/>
	<g>
		<path fill="#E7BCA8" d="M412.249,310.774c4.041,6.698,8.082,13.399,12.109,20.078c17.973-3.356,34.788-14.542,43.342-30.7
			c-7.364-14.057-14.575-28.845-21.927-42.876C434.296,274.59,423.746,293.447,412.249,310.774z"/>
		<path fill="#E2938E" d="M434.926,307.118c7.213-10.029,10.821-23.043,9.944-35.766l-8.946,1.41
			c-7.87,12.721-15.54,25.729-23.675,38.012c2.14,3.55,4.307,7.145,6.446,10.72C424.982,318.06,430.594,313.167,434.926,307.118z"/>
		<path fill="#E7BCA8" d="M365.506,229.273c-2.947,6.148-3.164,13.234-2.848,20.053c0.606,12.768,2.95,25.416,5.995,37.812
			c1.582,6.389,3.264,12.722,5.138,19.017c1.316,4.272,1.734,9.863,5.729,12.582c2.897,1.979,6.5,2.472,10.01,2.618
			c13.253,0.531,27.563-2.925,38.237-11.014c10.642-8.128,15.281-21.787,18.173-34.316c3.144-13.566,6.606-29.092,3.875-42.937
			c-2.142-10.88-8.967-21.428-19.369-25.33c-9.111-3.41-19.275-1.362-28.772,0.778c-7.026,1.555-14.138,3.17-20.626,6.314
			C374.576,217.954,368.626,222.773,365.506,229.273z"/>
		<path fill="#7B404F" d="M447.528,257.608c-1.05,1.895-3.023,3.263-5.171,3.549c-2.168,0.305-4.428-0.505-5.942-2.068
			c-1.7-1.767-2.366-4.306-2.459-6.739c-0.226-4.859,1.482-9.744,4.652-13.4c-2.412,0.798-4.506-1.303-5.51-3.636
			c-1.017-2.307-0.844-4.978-0.632-7.51c-2.192,1.688-4.945,1.568-7.576,0.731c-2.639-0.797-4.8-2.964-5.65-5.577
			c-2.34,2.878-6.413,3.803-10.116,3.637c-3.682-0.18-7.237-2.228-9.277-5.311c-3.032,4.919-9.951,6.919-15.547,5.497
			c-0.486,2.366-2.513,4.367-4.898,4.758c-2.394,0.385-4.945-0.831-6.169-2.897c-1.29,2.897-2.945,5.815-5.703,7.431
			c-2.729,1.635-6.188,2.14-9.143,0.963c-2.97-1.143-5.256-4.087-5.28-7.258c-3.316,0.678-6.695-1.063-8.8-3.695
			c-2.137-2.632-2.606-6.487-1.217-9.578c1.42-3.104,4.63-5.271,8.02-5.391c-1.586-3.655-1.486-8.627,1.683-11.014
			c3.188-2.406,8.014-2.313,11.082,0.207c-0.339-3.882,0.582-7.61,4.041-9.412c3.464-1.761,7.996-1.217,10.939,1.343
			c0.294-0.1,0.593-0.186,0.912-0.266c-0.759-3.024,1.974-5.411,5.045-6.088c3.043-0.711,6.208,0.332,9.105,1.496
			c3.881-1.967,9.165-0.512,12.282,2.532c-0.026-0.292-0.073-0.598-0.093-0.924c-0.611-6.009,6.574-9.944,12.643-10.03
			c6.062-0.06,11.816,4.779,12.814,10.768c2.604-2.393,7.777-3.164,10.94-1.615c3.163,1.567,5.19,5.171,4.872,8.726
			c3.41-1.189,7.53,0.147,9.631,3.098c2.101,2.945,1.993,7.278-0.226,10.116c3.469-0.372,5.755,2.486,6.997,5.723
			c1.271,3.237,0.121,7.225-2.684,9.332c3.316,1.43,5.337,5.384,4.565,8.928c-0.784,3.548-4.293,6.273-7.896,6.181
			c1.603,1.435,2.187,3.888,1.43,5.889c-0.751,2.048-2.799,3.496-4.965,3.509c-0.153,3.802-4.36,6.846-8.017,5.802"/>
		<path fill="#E7BCA8" d="M443.966,251.373c-0.054-2.678-0.093-5.437,0.831-7.942c0.95-2.539,3.064-4.779,5.749-5.045
			c1.875-0.172,3.756,0.651,5.145,1.974c1.389,1.27,2.34,2.965,3.071,4.7c1.435,3.416,2.139,7.191,1.574,10.867
			c-0.53,3.682-2.459,7.185-5.503,9.292c-3.463,2.414-8.621,3.617-10.136-1.083C443.381,260.047,444.065,255.514,443.966,251.373z"
			/>
		<path fill="#E2938E" d="M450.819,261.828c-1.031-3.954-1.489-8.147-2.2-12.169c-0.294-1.555-0.532-3.25,0.199-4.64
			c0.512-1.004,1.582-1.741,2.705-1.694c1.123,0.059,2.167,1.003,2.199,2.126c0,1.164-1.037,2.127-1.176,3.284
			c-0.192,1.416,0.87,2.612,1.921,3.563c1.488,1.362,2.651,2.917,1.588,5.025C455.836,257.78,450.911,262.288,450.819,261.828z"/>
		<path fill="#7B404F" d="M369.988,240.752c2.273-1.23,4.925-2.047,7.393-1.323c1.873,0.544,3.429,1.954,4.141,3.754
			c0.724,1.776,0.585,3.902-0.399,5.551c-5.749-1.895-12.688,1.37-14.908,6.964c-2.117-0.79-4.527-1.94-5.046-4.139
			c-0.411-1.801,0.632-3.604,1.781-5.006C364.875,244.162,367.29,242.2,369.988,240.752z"/>
		<path fill="#7B404F" d="M395.406,244.162c-2.168-1.489-2.898-4.534-2.068-7.019c0.825-2.479,2.972-4.34,5.378-5.344
			c2.439-0.998,5.104-1.157,7.703-1.043c3.343,0.146,6.706,0.738,9.624,2.333c2.918,1.616,5.338,4.321,6.068,7.557
			c-1.051,0.412-1.88,1.369-2.146,2.439c-1.441-2.698-4.965-3.456-8.035-3.456C406.147,239.628,400.377,241.185,395.406,244.162z"/>
		<g>
			<path fill="#7B404F" d="M381.028,258.978c1.151,2.891,0.604,5.816-1.223,6.547c-1.848,0.717-4.26-1.044-5.402-3.916
				c-1.124-2.884-0.56-5.802,1.262-6.54C377.5,254.344,379.886,256.093,381.028,258.978z"/>
			<path fill="#3C1227" d="M379.886,259.436c0.752,1.881,0.393,3.782-0.804,4.274c-1.197,0.452-2.758-0.691-3.51-2.572
				c-0.73-1.874-0.393-3.781,0.805-4.26C377.566,256.438,379.148,257.562,379.886,259.436z"/>
			<path fill="#FFFFFF" d="M379.733,257.808c0.172,0.345,0.033,0.777-0.313,0.937c-0.366,0.186-0.778,0.04-0.978-0.307
				c-0.173-0.344-0.021-0.776,0.319-0.976C379.128,257.295,379.573,257.435,379.733,257.808z"/>
		</g>
		<g>
			<path fill="#7B404F" d="M407.25,253.474c0.758,3.01-0.174,5.842-2.073,6.334c-1.901,0.492-4.068-1.569-4.853-4.593
				c-0.757-2.983,0.173-5.841,2.073-6.326C404.299,248.395,406.472,250.449,407.25,253.474z"/>
			<path fill="#3C1227" d="M406.033,253.759c0.485,1.968-0.1,3.803-1.349,4.148c-1.236,0.286-2.658-1.03-3.138-2.979
				c-0.519-1.946,0.093-3.801,1.344-4.127C404.099,250.496,405.516,251.805,406.033,253.759z"/>
			<path fill="#FFFFFF" d="M406.106,252.124c0.12,0.373-0.073,0.784-0.466,0.905c-0.364,0.145-0.783-0.047-0.903-0.433
				c-0.146-0.366,0.074-0.792,0.439-0.937C405.562,251.56,405.954,251.76,406.106,252.124z"/>
		</g>
		<path fill="#E7BCA8" d="M389.775,424.563l-32.817-51.185c0,0,2.34-10.269-5.044-17.136c0,0-2.49-17.221-1.973-18.81
			c0.513-1.562,3.92-8.627,3.215-10.355c-0.711-1.723-9.405,2.753-10.066,5.184c-0.654,2.448-3.362,18.524-3.362,18.524
			s-45.859-17.202-47.683-15.892c-1.851,1.317,0.143,7.358,2.124,9.26c1.971,1.934,17.099,2.896,17.099,2.896
			s10.548,9.047,18.937,10.111c0,0-7.897,2.392-8.625,5.189c-0.757,2.819,1.901,5.53,1.901,5.53s-6.291,3.717-5.291,6.434
			c1.001,2.719,5.484,6.05,5.484,6.05s-3.973,5.701-2.095,7.289c1.871,1.557,13.646,7.14,15.547,6.15
			c1.87-0.965,4.483-3.353,4.483-3.353s10.867,18.082,17.417,41.044c6.583,22.917,24.828,47.937,38.601,44.341
			c13.758-3.657,30.986-43.742,30.986-43.742L389.775,424.563z"/>
		<polygon fill="#E7BCA8" points="544.45,341.939 583.292,386.453 555.815,414.649 521.797,372.706 		"/>
		<path fill="#C6BD56" d="M529.229,436.288c10.256-7.676,20.777-15.524,30.694-24.053l-27.724-34.788l22.978-30.396
			c0,0-25.776-39.792-46.199-41.733c-20.439-1.94-37.481,2.366-37.481,2.366l-35.792,22.047l-22.612,4.659
			c0,0-11.472,9.479-19.395,25.55c-7.89,16.092-3.922,64.624-3.922,64.624l40.989,15.347l4.308-9.377l21.47,53
			C482.59,470.918,506.071,453.658,529.229,436.288z"/>
		<path fill="#DCD89A" d="M432.832,326.221l31.824-31.97c0,0,2.533-3.456,5.843-1.209c3.316,2.24,14.528,13.586,14.528,13.586
			s-24.95,26.613-28.293,29.784c-3.317,3.182-23.509-5.604-23.509-5.604s-6.143,15.832-7.797,16.936
			c-1.669,1.091-18.353-12.848-18.353-12.848l11.605-13.83L432.832,326.221z"/>
		<g>
			<path fill="#E2938E" d="M407.616,291.473c-0.731,0.491-1.543,0.876-2.387,0.976c-0.858,0.1-1.781-0.219-2.273-0.917
				c-0.704-1.129-0.065-2.639,0.904-3.516c0.951-0.923,2.173-1.489,3.043-2.453c0.905-0.998,1.344-2.346,2.103-3.449
				c0.77-1.124,2.139-2.042,3.415-1.569c0.943,0.366,1.502,1.422,1.502,2.446s-0.438,2.001-0.943,2.885
				C411.663,288.116,409.803,290.057,407.616,291.473z"/>
			<path fill="#E2938E" d="M404.152,295.573c5.171,1.17,10.993-1.954,12.842-6.919c0.266-0.738,0.49-1.562,0.365-2.333
				c-0.139-0.817-0.659-1.569-1.441-1.814c-0.918-0.246-1.868,0.299-2.653,0.877C410.268,287.631,405.954,292.264,404.152,295.573z"
				/>
			<path fill="#8C205C" d="M412.979,292.31c-1.809,1.508-3.902,2.573-6.147,3.183c-1.044,0.299-2.167,0.473-3.237,0.227
				c-1.05-0.246-2.048-0.978-2.367-2.041c-0.312-1.17,0.319-2.473,1.225-3.297c0.896-0.85,2.04-1.362,3.097-2.02
				c2.087-1.27,3.842-3.098,5.059-5.225c0.776-1.33,1.494-2.918,2.957-3.409c1.381-0.473,2.965,0.405,3.695,1.668
				c0.758,1.263,0.758,2.845,0.438,4.287C416.967,289.239,415.777,289.996,412.979,292.31z"/>
			<path fill="#F2F3D4" d="M410.607,283.138c-1.217,2.126-2.972,3.955-5.059,5.225c-1.057,0.657-2.2,1.17-3.097,2.02
				c-0.374,0.333-0.692,0.758-0.932,1.191c3.563,0.145,7.139-1.436,9.358-4.215c1.661-2.113,2.485-4.818,2.386-7.504
				C411.996,280.439,411.317,281.907,410.607,283.138z"/>
			<path fill="#BA5075" d="M410.001,294.25c1.051-0.532,2.048-1.17,2.979-1.94c2.798-2.314,3.987-3.071,4.719-6.627
				c0.319-1.442,0.319-3.024-0.438-4.287c-0.119-0.246-0.293-0.445-0.459-0.632c-0.191,0.206-0.392,0.432-0.564,0.678
				C413.364,285.245,411.244,289.631,410.001,294.25z"/>
		</g>
		<g>
			<path fill="#E2938E" d="M407.131,279.588c0.119,0.046-0.08,1.017-0.932,2.605c-0.85,1.576-2.485,3.703-5.171,5.577
				c-1.31,0.923-2.892,1.801-4.719,2.413c-0.903,0.325-1.861,0.591-2.952,0.757c-1.05,0.12-2.338,0.139-3.582-0.571
				c-1.269-0.797-1.828-2.227-1.993-3.417c-0.193-1.223-0.153-2.387-0.054-3.568c0.273-2.333,0.638-4.534,0.852-6.866
				c1.003-9.379,0.791-17.933,0.312-24.101c-0.451-6.168-1.037-9.99-0.698-10.057c0.294-0.06,1.417,3.656,2.32,9.891
				c0.891,6.187,1.383,14.929,0.358,24.492c-0.22,2.353-0.63,4.74-0.877,6.866c-0.271,2.093-0.172,4.307,0.903,4.945
				c0.538,0.338,1.384,0.465,2.248,0.365c0.863-0.105,1.747-0.266,2.579-0.558c1.674-0.486,3.163-1.177,4.432-1.961
				c2.559-1.549,4.261-3.349,5.285-4.699C406.492,280.36,406.983,279.521,407.131,279.588z"/>
		</g>
		<path fill="#E2938E" d="M407.076,266.528c0,0.431-0.364,0.823-0.829,0.823c-0.459,0-0.832-0.393-0.832-0.823
			c0-0.466,0.373-0.831,0.832-0.831C406.712,265.697,407.076,266.063,407.076,266.528z M412.335,262.773
			c-0.844,0-1.556,0.71-1.556,1.568c0,0.876,0.712,1.575,1.556,1.575c0.884,0,1.588-0.699,1.588-1.575
			C413.923,263.483,413.219,262.773,412.335,262.773z M409.537,269.492c-0.679,0-1.25,0.552-1.25,1.223
			c0,0.678,0.571,1.269,1.25,1.269c0.685,0,1.242-0.591,1.242-1.269C410.779,270.043,410.222,269.492,409.537,269.492z
			 M418.063,266.528c-0.531,0-0.97,0.431-0.97,0.943c0,0.546,0.438,0.957,0.97,0.957c0.513,0,0.951-0.411,0.951-0.957
			C419.015,266.959,418.576,266.528,418.063,266.528z M424.378,262.773c-0.445,0-0.778,0.338-0.778,0.776
			c0,0.446,0.333,0.792,0.778,0.792c0.433,0,0.805-0.346,0.805-0.792C425.183,263.111,424.811,262.773,424.378,262.773z
			 M383.953,273.181c-0.565,0-1.004,0.458-1.004,0.998c0,0.538,0.438,0.976,1.004,0.976c0.539,0,0.978-0.438,0.978-0.976
			C384.931,273.639,384.492,273.181,383.953,273.181z M377.553,275.926c-0.665,0-1.176,0.552-1.176,1.203
			c0,0.659,0.511,1.164,1.176,1.164c0.651,0,1.164-0.505,1.164-1.164C378.717,276.478,378.204,275.926,377.553,275.926z
			 M383.682,278.292c-0.579,0-1.064,0.472-1.064,1.043c0,0.598,0.485,1.083,1.064,1.083c0.584,0,1.05-0.485,1.05-1.083
			C384.731,278.764,384.266,278.292,383.682,278.292z M375.399,280.951c-0.877,0-1.581,0.671-1.581,1.555
			c0,0.878,0.704,1.589,1.581,1.589c0.878,0,1.582-0.71,1.582-1.589C376.981,281.622,376.277,280.951,375.399,280.951z"/>
		<polygon fill="#ADA446" points="410.001,384.799 425.011,429.391 389.775,424.563 430.765,439.91 435.072,430.533 423.6,399.712 
					"/>
		<path fill="#ADA446" d="M529.229,436.288c10.256-7.676,20.777-15.524,30.694-24.053l-27.724-34.788l-24.387-24.083l36.638,59.012
			l-54.284,49.271l-41.96,1.323l8.336,20.563C482.59,470.918,506.071,453.658,529.229,436.288z"/>
	</g>
	<path fill="#EBBB9E" d="M46.189,413.538c49.574,50.554,120.015,74.674,189.252,89.638c-47.902-2.109-95.362-13.549-138.941-33.488
		c-20.621-9.452-40.69-20.997-56.347-37.401c-15.666-16.396-26.629-38.169-26.384-60.887
		C22.843,386.678,33.759,400.835,46.189,413.538z"/>
	<path fill="#EBBB9E" d="M288.169,432.435c-8.577-74.85-23.05-149.05-43.226-221.625c20.341,32.33,31.967,69.584,37.839,107.322
		C288.681,355.853,289.049,394.255,288.169,432.435z"/>
	<path fill="#92BDC1" d="M528.132,449.156c-23.563,17.201-48.349,33.055-75.292,44.274c-26.953,11.153-56.265,17.586-85.377,15.353
		c85.814-23.362,164.291-72.934,222.29-140.349c-2.485,17.2-11.187,33.078-22.466,46.333
		C556.002,428.021,542.19,438.895,528.132,449.156z"/>
	<path fill="#C6BD56" d="M400.861,174.06c-10.772-5.044-20.317-12.708-27.722-22c6.062-0.691,12.057-1.569,17.858-2.593
		c3.649-21.801,3.265-44.659,1.483-66.659c-33.164-5.795-67.175-6.427-100.511-1.9c-3.533,22.532-3.872,45.902,0.319,68.313
		c23.268,4.779,49.072,5.71,73.705,3.536C374.741,163.498,387.243,171.175,400.861,174.06z"/>
	<path fill="#DE5C5D" d="M186.163,202.534c10.778-5.012,20.332-12.662,27.717-21.98c-6.075-0.678-12.041-1.549-17.853-2.572
		c-3.655-21.814-3.264-44.666-1.459-66.672c33.12-5.802,67.161-6.434,100.497-1.894c3.533,22.545,3.872,45.908-0.315,68.321
		c-23.277,4.779-49.075,5.676-73.731,3.529C212.291,192.013,199.779,199.696,186.163,202.534z"/>
</g>
</svg>
