<?xml version="1.0" encoding="utf-8"?>
<!-- Generator: Adobe Illustrator 16.0.3, SVG Export Plug-In . SVG Version: 6.00 Build 0)  -->
<!DOCTYPE svg PUBLIC "-//W3C//DTD SVG 1.1//EN" "http://www.w3.org/Graphics/SVG/1.1/DTD/svg11.dtd">
<svg version="1.1" id="Capa_1" xmlns="http://www.w3.org/2000/svg" xmlns:xlink="http://www.w3.org/1999/xlink" x="0px" y="0px"
	 width="600px" height="600px" viewBox="0 0 600 600" enable-background="new 0 0 600 600" xml:space="preserve">
<g>
	<g>
		<path opacity="0.1" fill="#FFFFFF" d="M548.242,303.282c0,141.555-114.753,256.299-256.299,256.299
			c-141.544,0-256.297-114.744-256.297-256.299c0-141.543,114.753-256.287,256.297-256.287
			C433.489,46.995,548.242,161.739,548.242,303.282z"/>
		<path opacity="0.1" fill="#FFFFFF" d="M508.122,303.282c0,119.396-96.792,216.173-216.179,216.173
			c-119.384,0-216.167-96.776-216.167-216.173c0-119.385,96.782-216.167,216.167-216.167
			C411.33,87.116,508.122,183.897,508.122,303.282z"/>
		<path opacity="0.1" fill="#FFFFFF" d="M441.704,303.282c0,82.716-67.05,149.766-149.761,149.766
			c-82.71,0-149.76-67.05-149.76-149.766c0-82.705,67.05-149.754,149.76-149.754C374.654,153.528,441.704,220.577,441.704,303.282z"
			/>
		<g>
			<path fill="#E8F8FC" d="M458.51,314.726h-29.318c-8.132,0-14.748-6.616-14.748-14.749v-25.06c0-6.971-5.671-12.642-12.642-12.642
				h-29.408c-0.582,0-1.054-0.471-1.054-1.053c0-0.582,0.472-1.054,1.054-1.054h29.408c8.132,0,14.749,6.616,14.749,14.749v25.06
				c0,6.972,5.67,12.642,12.641,12.642h29.318c0.584,0,1.054,0.473,1.054,1.054C459.563,314.254,459.094,314.726,458.51,314.726z"/>
		</g>
		<g>
			<g>
				<path fill="#E8F8FC" d="M164.125,142.582c-4.029-8.058-12.363-13.607-21.96-13.607c-12.532,0-22.89,9.45-24.362,21.596h6.083
					c1.423-8.818,9.076-15.563,18.279-15.563c7.969,0,14.782,5.056,17.388,12.136l-3.416,3.427h4.314h6.083h1.126v-11.534
					L164.125,142.582z"/>
			</g>
			<g>
				<path fill="#E8F8FC" d="M142.165,172.048c-7.959,0-14.763-5.051-17.37-12.117l3.446-3.446h-4.356h-6.083l0,0h-1.097v11.528
					l3.517-3.521c4.039,8.048,12.354,13.578,21.942,13.578c12.541,0,22.898-9.44,24.37-21.586h-6.083
					C159.031,165.293,151.369,172.048,142.165,172.048z"/>
			</g>
		</g>
		<g>
			<g>
				<path fill="#E8F8FC" d="M448.34,455.768c0,2.006-1.62,3.624-3.613,3.624c-2.006,0-3.625-1.618-3.625-3.624
					c0-1.994,1.619-3.608,3.625-3.608C446.72,452.159,448.34,453.773,448.34,455.768z"/>
			</g>
			<g>
				<path fill="#E8F8FC" d="M441.102,444.278c8.334,0,15.108,6.78,15.108,15.113h4.956c0-11.059-8.995-20.064-20.064-20.064V444.278
					z"/>
				<path fill="#E8F8FC" d="M441.102,431.397c15.443,0,27.994,12.551,27.994,27.994l0,0h5.659l0,0
					c0-18.559-15.089-33.652-33.653-33.652V431.397z"/>
				<path fill="#E8F8FC" d="M441.102,418.649c22.465,0,40.742,18.277,40.742,40.742l0,0h6.094l0,0
					c0-25.821-21.015-46.83-46.836-46.83V418.649z"/>
			</g>
		</g>
		<g>
			<path fill="#E8F8FC" d="M513.514,182.802c-0.95,0.424-1.917,0.8-2.924,1.091c0.967-0.864,1.866-1.802,2.706-2.81l-0.524-4.059
				c-1.945,2.933-4.443,5.421-7.415,7.258v-11.099c2.479,0.148,4.879,0.691,7.128,1.57l-0.373-3.002
				c-2.173-0.71-4.435-1.145-6.755-1.269v-7.717h11.998c-0.089,2.202-0.436,4.345-0.998,6.389l2.379,1.955
				c0.852-2.646,1.354-5.451,1.472-8.344h7.14c-0.258,4.444-1.757,8.561-4.166,12.013l2.104,1.718
				c3.011-4.266,4.798-9.47,4.798-15.083c0-6.75-2.577-12.906-6.784-17.552l0.031-0.035l-0.969-0.958
				c-4.267-4.236-9.737-6.829-15.633-7.45c-0.048-0.005-0.089-0.015-0.137-0.015c-0.354-0.039-0.723-0.059-1.087-0.083
				c-0.088-0.005-0.157-0.015-0.246-0.015c-0.148-0.009-0.297-0.009-0.455-0.009c-0.593-0.055-1.195-0.089-1.807-0.089
				c-0.188,0-0.365,0.04-0.543,0.108c-0.028,0-0.06,0.005-0.089,0.005c-0.365,0.024-0.722,0.044-1.086,0.083
				c-0.04,0-0.089,0.01-0.129,0.015c-5.905,0.622-11.386,3.214-15.65,7.45l-0.959,0.958l0.03,0.035
				c-4.218,4.646-6.785,10.803-6.785,17.552c0,6.749,2.567,12.912,6.785,17.557l-0.03,0.03l0.959,0.958
				c4.265,4.246,9.745,6.828,15.65,7.455c0.04,0,0.089,0.011,0.129,0.015c0.364,0.035,0.721,0.064,1.086,0.084
				c0.029,0,0.061,0.005,0.089,0.01c0.178,0.059,0.345,0.108,0.522,0.108h0.021c0.611-0.01,1.214-0.045,1.807-0.089
				c0.158-0.01,0.307-0.01,0.455-0.015c0.089-0.004,0.158-0.01,0.246-0.015c0.364-0.02,0.732-0.049,1.087-0.084
				c0.048-0.004,0.089-0.015,0.137-0.015c2.469-0.261,4.869-0.873,7.14-1.807L513.514,182.802z M527.347,160.065h-7.14
				c-0.168-4.074-1.097-7.969-2.666-11.495c1.354-0.824,2.617-1.762,3.802-2.834C524.809,149.583,527.031,154.575,527.347,160.065z
				 M519.438,143.836c-0.979,0.859-2.024,1.629-3.111,2.311c-1.51-2.72-3.447-5.165-5.737-7.213
				C513.898,139.916,516.899,141.614,519.438,143.836z M505.356,138.543c3.524,2.193,6.418,5.289,8.473,8.957
				c-2.637,1.234-5.501,1.965-8.473,2.143V138.543z M505.356,152.348c3.397-0.177,6.664-1.007,9.677-2.419
				c1.354,3.111,2.173,6.547,2.321,10.137h-11.998V152.348z M497.268,138.938c-2.29,2.043-4.216,4.483-5.735,7.204
				c-1.087-0.677-2.115-1.447-3.092-2.306C490.96,141.614,493.951,139.916,497.268,138.938z M486.515,145.737
				c1.187,1.062,2.459,2.01,3.792,2.83c-1.569,3.52-2.479,7.416-2.646,11.499h-7.129
				C480.836,154.575,483.049,149.583,486.515,145.737z M480.531,162.766h7.129c0.168,4.078,1.077,7.979,2.646,11.499
				c-1.333,0.825-2.605,1.763-3.792,2.829C483.049,173.248,480.836,168.256,480.531,162.766z M488.44,178.99
				c0.977-0.859,2.005-1.629,3.092-2.3c1.52,2.715,3.445,5.154,5.735,7.198C493.951,182.91,490.96,181.222,488.44,178.99z
				 M502.513,184.283c-3.536-2.187-6.42-5.283-8.492-8.956c2.646-1.234,5.521-1.965,8.492-2.143V184.283z M502.513,170.483
				c-3.397,0.182-6.676,1.012-9.688,2.424c-1.352-3.111-2.151-6.547-2.321-10.141h12.01V170.483z M502.513,160.065h-12.01
				c0.17-3.595,0.97-7.031,2.321-10.142c3.013,1.417,6.291,2.247,9.688,2.424V160.065z M502.513,149.642
				c-2.972-0.177-5.846-0.908-8.492-2.143c2.072-3.673,4.956-6.764,8.492-8.957V149.642z"/>
			<polygon fill="#E8F8FC" points="526.902,180.165 513.602,169.214 515.774,186.317 519.685,184.15 523.349,190.781 
				526.646,188.963 522.992,182.328 			"/>
		</g>
		<path fill="#E8F8FC" d="M138.195,495.573c-0.256,0-0.513,0.029-0.77,0.039c0.493-1.614,0.77-3.328,0.77-5.11
			c0-9.523-7.722-17.255-17.261-17.255c-7.969,0-14.673,5.411-16.659,12.758c-2.092-1.165-4.492-1.837-7.05-1.837
			c-8.027,0-14.535,6.502-14.535,14.525c0,0.464,0.029,0.919,0.069,1.372c-0.03,0-0.05-0.01-0.069-0.01
			c-6.784,0-12.284,5.501-12.284,12.284c0,6.784,5.5,12.284,12.284,12.284c3.14,0,14.14,0,25.645,0v-13.351h-5.757l10.21-16.145
			l10.398,16.145h-5.756v13.351c9.292,0,17.596,0,20.766,0c8.027,0,14.525-6.497,14.525-14.525
			C152.72,502.08,146.222,495.573,138.195,495.573z"/>
		<g>
			<g>
				<g>
					<path fill="#FF931E" d="M411.31,80.332c0,25.501-20.668,46.174-46.165,46.174c-25.506,0-46.174-20.672-46.174-46.174
						c0-25.497,20.668-46.169,46.174-46.169C390.642,34.163,411.31,54.835,411.31,80.332z"/>
					<path fill="#E8F8FC" d="M365.145,128.975c-26.829,0-48.641-21.818-48.641-48.643c0-26.82,21.812-48.638,48.641-48.638
						c26.82,0,48.634,21.818,48.634,48.638C413.778,107.156,391.965,128.975,365.145,128.975z M365.145,36.636
						c-24.094,0-43.694,19.601-43.694,43.696c0,24.099,19.601,43.705,43.694,43.705c24.095,0,43.695-19.606,43.695-43.705
						C408.84,56.237,389.239,36.636,365.145,36.636z"/>
				</g>
			</g>
			<g>
				<g>
					<path fill="#FF931E" d="M399.874,80.332c0,19.186-15.552,34.739-34.729,34.739c-19.177,0-34.738-15.553-34.738-34.739
						c0-19.182,15.562-34.729,34.738-34.729C384.322,45.603,399.874,61.15,399.874,80.332z"/>
					<path fill="#FFFFFF" d="M365.145,117.54c-20.519,0-37.207-16.688-37.207-37.208c0-20.51,16.688-37.203,37.207-37.203
						c20.52,0,37.198,16.693,37.198,37.203C402.343,100.852,385.664,117.54,365.145,117.54z M365.145,48.071
						c-17.793,0-32.271,14.477-32.271,32.261c0,17.794,14.478,32.27,32.271,32.27c17.785,0,32.262-14.476,32.262-32.27
						C397.406,62.547,382.93,48.071,365.145,48.071z"/>
				</g>
			</g>
			<g>
				<g>
					<path fill="#FF931E" d="M386.396,80.332c0,11.741-9.51,21.26-21.252,21.26c-11.739,0-21.261-9.519-21.261-21.26
						c0-11.731,9.521-21.25,21.261-21.25C376.887,59.082,386.396,68.601,386.396,80.332z"/>
					<path fill="#FFFFFF" d="M365.145,104.061c-13.074,0-23.728-10.645-23.728-23.729c0-13.074,10.653-23.719,23.728-23.719
						c13.075,0,23.719,10.645,23.719,23.719C388.863,93.416,378.22,104.061,365.145,104.061z M365.145,61.55
						c-10.358,0-18.781,8.433-18.781,18.782c0,10.358,8.423,18.781,18.781,18.781c10.35,0,18.772-8.423,18.772-18.781
						C383.917,69.983,375.494,61.55,365.145,61.55z"/>
				</g>
			</g>
		</g>
		<path fill="#B3B3B3" d="M409.266,100.763L365.64,79.675c-0.495-0.242-1.098-0.035-1.335,0.459
			c-0.236,0.504-0.028,1.097,0.465,1.343l43.616,21.082C408.693,101.967,408.988,101.37,409.266,100.763z"/>
		<g>
			<polygon fill="#F2F2F2" points="407.459,61.105 402.226,70.294 420.048,65.411 425.291,56.228 			"/>
			<polygon fill="#B3B3B3" points="411.397,75.533 402.226,70.294 420.048,65.411 429.242,70.65 			"/>
			
				<line fill="none" stroke="#05293D" stroke-width="1.5" stroke-linecap="round" stroke-miterlimit="10" x1="365.145" y1="80.435" x2="422.793" y2="64.661"/>
		</g>
		<polygon fill="#FFFFFF" points="447.995,169.939 445.842,166.005 443.688,169.939 439.759,172.088 443.688,174.24 445.842,178.18 
			447.995,174.24 451.934,172.088 		"/>
		<polygon fill="#FFFFFF" points="174.771,272.82 172.618,268.889 170.464,272.82 166.535,274.977 170.464,277.129 172.618,281.064 
			174.771,277.129 178.701,274.977 		"/>
		<polygon fill="#FFFFFF" points="279.7,542.922 277.546,538.991 275.394,542.922 271.454,545.08 275.394,547.227 277.546,551.162 
			279.7,547.227 283.629,545.08 		"/>
		<polygon fill="#FFFFFF" points="308.296,428.247 306.145,424.308 303.991,428.247 300.061,430.4 303.991,432.543 306.145,436.482 
			308.296,432.543 312.226,430.4 		"/>
		<polygon fill="#FFFFFF" points="242.915,421.079 240.763,417.144 238.611,421.079 234.681,423.23 238.611,425.384 
			240.763,429.314 242.915,425.384 246.846,423.23 		"/>
		<polygon fill="#FFFFFF" points="316.128,175.924 313.975,171.989 311.821,175.924 307.892,178.072 311.821,180.224 
			313.975,184.165 316.128,180.224 320.067,178.072 		"/>
		<polygon fill="#FFFFFF" points="411.417,321.63 409.266,317.701 407.124,321.63 403.192,323.782 407.124,325.935 409.266,329.866 
			411.417,325.935 415.358,323.782 		"/>
		<polygon fill="#FFFFFF" points="408.119,154.338 405.956,150.398 403.814,154.338 399.874,156.486 403.814,158.638 
			405.956,162.569 408.119,158.638 412.049,156.486 		"/>
		<polygon fill="#FFFFFF" points="589.646,269.018 587.483,265.078 585.342,269.018 581.4,271.165 585.342,273.318 587.483,277.253 
			589.646,273.318 593.576,271.165 		"/>
		<polygon fill="#FFFFFF" points="402.027,457.238 399.874,453.304 397.722,457.238 393.793,459.392 397.722,461.545 
			399.874,465.476 402.027,461.545 405.956,459.392 		"/>
		<polygon fill="#FFFFFF" points="70.415,230.674 68.252,226.739 66.109,230.674 62.169,232.827 66.109,234.98 68.252,238.915 
			70.415,234.98 74.345,232.827 		"/>
		<polygon fill="#FFFFFF" points="431.396,112.918 429.232,108.979 427.09,112.918 423.149,115.071 427.09,117.224 429.232,121.154 
			431.396,117.224 435.324,115.071 		"/>
		<polygon fill="#FFFFFF" points="294.097,63.258 291.935,59.328 289.791,63.258 285.861,65.411 289.791,67.563 291.935,71.499 
			294.097,67.563 298.027,65.411 		"/>
		<polygon fill="#FFFFFF" points="144.89,63.258 142.737,59.328 140.585,63.258 136.655,65.411 140.585,67.563 142.737,71.499 
			144.89,67.563 148.811,65.411 		"/>
		<polygon fill="#FFFFFF" points="14.988,264.465 12.825,260.525 10.672,264.465 6.743,266.614 10.672,268.766 12.825,272.701 
			14.988,268.766 18.918,266.614 		"/>
		<polygon fill="#FFFFFF" points="37.809,457.238 35.646,453.304 33.503,457.238 29.574,459.392 33.503,461.545 35.646,465.476 
			37.809,461.545 41.739,459.392 		"/>
		<polygon fill="#FFFFFF" points="474.458,533.956 472.314,530.016 470.163,533.956 466.231,536.104 470.163,538.262 
			472.314,542.191 474.458,538.262 478.407,536.104 		"/>
		<polygon fill="#FFFFFF" points="580.049,327.776 577.896,323.842 575.744,327.776 571.803,329.924 575.744,332.077 
			577.896,336.013 580.049,332.077 583.979,329.924 		"/>
		<polygon fill="#FFFFFF" points="181.594,557.429 179.452,553.493 177.289,557.429 173.358,559.581 177.289,561.733 
			179.452,565.664 181.594,561.733 185.534,559.581 		"/>
		<polygon fill="#FFFFFF" points="160.957,198.32 158.813,194.385 156.65,198.32 152.72,200.478 156.65,202.625 158.813,206.56 
			160.957,202.625 164.886,200.478 		"/>
		<polygon fill="#FF931E" points="50.942,302.3 48.789,298.365 46.637,302.3 42.707,304.447 46.637,306.602 48.789,310.536 
			50.942,306.602 54.881,304.447 		"/>
		<polygon fill="#FF931E" points="296.269,496.787 294.117,492.853 291.963,496.787 288.034,498.94 291.963,501.093 
			294.117,505.022 296.269,501.093 300.209,498.94 		"/>
		<polygon fill="#FF931E" points="454.58,265.206 452.427,261.276 450.275,265.206 446.335,267.359 450.275,269.516 
			452.427,273.447 454.58,269.516 458.51,267.359 		"/>
		<polygon fill="#05293D" points="160.957,428.247 158.813,424.308 156.65,428.247 152.72,430.4 156.65,432.543 158.813,436.482 
			160.957,432.543 164.886,430.4 		"/>
		<polygon fill="#05293D" points="174.771,98.166 172.618,94.235 170.464,98.166 166.535,100.318 170.464,102.471 172.618,106.406 
			174.771,102.471 178.701,100.318 		"/>
		<polygon fill="#05293D" points="522.398,259.123 520.257,255.193 518.105,259.123 514.164,261.276 518.105,263.429 
			520.257,267.359 522.398,263.429 526.34,261.276 		"/>
		<polygon fill="#05293D" points="366.36,476.643 364.207,472.704 362.054,476.643 358.124,478.796 362.054,480.948 
			364.207,484.879 366.36,480.948 370.29,478.796 		"/>
		<polygon fill="#FF931E" points="239.115,119.007 236.962,115.071 234.809,119.007 230.878,121.154 234.809,123.307 
			236.962,127.242 239.115,123.307 243.054,121.154 		"/>
		<polygon fill="#FF931E" points="490.08,105.423 487.928,101.494 485.774,105.423 481.844,107.581 485.774,109.734 
			487.928,113.669 490.08,109.734 494.011,107.581 		"/>
		<g>
			<path fill="#E8F8FC" d="M430.209,440.381h-77.231c-8.133,0-14.749-6.616-14.749-14.749v-36.538c0-0.583,0.473-1.054,1.054-1.054
				c0.584,0,1.054,0.471,1.054,1.054v36.538c0,6.971,5.671,12.642,12.642,12.642h77.231c0.583,0,1.054,0.471,1.054,1.054
				C431.263,439.909,430.792,440.381,430.209,440.381z"/>
		</g>
		<g>
			<path fill="#E8F8FC" d="M234.681,222.969c-0.582,0-1.053-0.472-1.053-1.054v-54.692c0-6.971-5.67-12.642-12.642-12.642h-41.534
				c-0.583,0-1.054-0.472-1.054-1.053c0-0.582,0.471-1.054,1.054-1.054h41.534c8.133,0,14.749,6.616,14.749,14.749v54.692
				C235.734,222.497,235.264,222.969,234.681,222.969z"/>
		</g>
		<g>
			<path fill="#E8F8FC" d="M360.682,223.265c-0.581,0-1.053-0.472-1.053-1.053v-82.434c0-0.582,0.472-1.054,1.053-1.054
				c0.582,0,1.054,0.472,1.054,1.054v82.434C361.735,222.793,361.264,223.265,360.682,223.265z"/>
		</g>
		<g>
			<path fill="#E8F8FC" d="M490.239,246.051H361.927c-0.584,0-1.054-0.472-1.054-1.054c0-0.582,0.47-1.053,1.054-1.053h128.313
				c6.971,0,12.642-5.671,12.642-12.642v-30.825c0-0.582,0.47-1.054,1.054-1.054c0.582,0,1.054,0.472,1.054,1.054v30.825
				C504.988,239.435,498.372,246.051,490.239,246.051z"/>
		</g>
		<g>
			<path fill="#E8F8FC" d="M105.479,460.445c-0.582,0-1.053-0.471-1.053-1.054v-71.716c0-8.132,6.616-14.748,14.749-14.748h60.277
				c0.582,0,1.053,0.471,1.053,1.054c0,0.581-0.471,1.054-1.053,1.054h-60.277c-6.971,0-12.642,5.67-12.642,12.641v71.716
				C106.533,459.975,106.062,460.445,105.479,460.445z"/>
		</g>
		<g>
			<g>
				<line fill="#FF931E" x1="70.474" y1="277.915" x2="87.201" y2="261.187"/>
				<path fill="#05293D" d="M68.243,280.137c-1.226-1.225-1.226-3.219,0-4.453l16.727-16.718c1.235-1.234,3.229-1.234,4.454,0
					c1.234,1.23,1.234,3.219,0,4.453l-16.718,16.718C71.471,281.371,69.477,281.371,68.243,280.137z"/>
			</g>
			<g>
				<line fill="#FF931E" x1="88.852" y1="259.538" x2="105.579" y2="242.81"/>
				<path fill="#05293D" d="M87.518,260.871c-0.74-0.736-0.74-1.936,0-2.676l16.718-16.723c0.741-0.735,1.944-0.735,2.676,0
					c0.73,0.741,0.73,1.94,0,2.676l-16.718,16.723C89.454,261.611,88.259,261.611,87.518,260.871z"/>
			</g>
			<g>
				<path fill="#FFA94B" d="M133.356,246.77c-8.769,8.764-22.968,8.764-31.738,0c-8.759-8.769-8.759-22.979,0-31.738
					c8.77-8.763,22.979-8.763,31.738,0C142.125,223.792,142.125,238.001,133.356,246.77z"/>
				<path fill="#FF931E" d="M101.619,246.77c8.77,8.764,22.969,8.764,31.738,0c4.385-4.384,6.576-10.131,6.576-15.869H95.052
					C95.052,236.639,97.234,242.386,101.619,246.77z"/>
				<path fill="#05293D" d="M99.841,248.548c-9.736-9.727-9.736-25.566,0-35.297c9.727-9.731,25.566-9.731,35.303,0
					s9.736,25.57,0,35.297C125.407,258.284,109.568,258.284,99.841,248.548z M131.568,216.811c-7.761-7.762-20.4-7.762-28.162,0
					c-7.771,7.771-7.771,20.405,0,28.172c7.761,7.771,20.401,7.771,28.162,0C139.34,237.221,139.34,224.582,131.568,216.811z"/>
			</g>
			<g>
				<g>
					<path fill="#FFFFFF" d="M104.295,220.379c-0.74-0.74-0.74-1.935,0-2.676c7.268-7.272,19.107-7.272,26.384,0
						c0.741,0.736,0.741,1.936,0,2.676c-0.73,0.741-1.936,0.736-2.675,0c-5.797-5.801-15.237-5.801-21.034,0
						C106.23,221.121,105.035,221.121,104.295,220.379z M132.734,234.723c-0.415-0.404-0.633-1.001-0.543-1.619
						c0.424-2.785,0.049-5.619-1.087-8.191c-0.415-0.953,0.03-2.068,0.979-2.483c0.957-0.42,2.073,0.02,2.487,0.973
						c1.422,3.213,1.887,6.769,1.363,10.255c-0.148,1.037-1.116,1.748-2.143,1.6C133.376,235.192,133,235,132.734,234.723z"/>
				</g>
			</g>
		</g>
		<g>
			<path fill="#E8F8FC" d="M517.878,298.824h-43.113c-1.68,0-3.031,1.368-3.031,3.037v24.592c0,1.685,1.352,3.037,3.031,3.037
				h29.723l7.069,7.07v-7.07h6.321c1.678,0,3.039-1.353,3.039-3.037v-24.592C520.917,300.192,519.556,298.824,517.878,298.824z"/>
			<g>
				<path fill="#05293D" d="M490.841,315.227c0,0.953-0.78,1.733-1.739,1.733c-0.968,0-1.729-0.78-1.729-1.733
					c0-0.963,0.761-1.743,1.729-1.743C490.061,313.483,490.841,314.264,490.841,315.227z"/>
				<path fill="#05293D" d="M498.058,315.227c0,0.953-0.778,1.733-1.737,1.733c-0.957,0-1.737-0.78-1.737-1.733
					c0-0.963,0.78-1.743,1.737-1.743C497.279,313.483,498.058,314.264,498.058,315.227z"/>
				<path fill="#05293D" d="M505.268,315.227c0,0.953-0.771,1.733-1.728,1.733c-0.96,0-1.738-0.78-1.738-1.733
					c0-0.963,0.778-1.743,1.738-1.743C504.497,313.483,505.268,314.264,505.268,315.227z"/>
			</g>
		</g>
		<g>
			<path fill="#E8F8FC" d="M242.008,302.104H130.402c-8.132,0-14.749-6.616-14.749-14.748v-19.978c0-0.582,0.471-1.054,1.053-1.054
				c0.583,0,1.054,0.472,1.054,1.054v19.978c0,6.97,5.671,12.642,12.642,12.642h111.606c0.582,0,1.054,0.472,1.054,1.054
				S242.59,302.104,242.008,302.104z"/>
		</g>
		<g>
			<g>
				<path fill="#E8F8FC" d="M245.928,518.566v-10.686h-4.878c-0.454-1.638-1.096-3.193-1.925-4.646l3.446-3.446l-7.554-7.554
					l-3.447,3.445c-1.452-0.828-3.012-1.476-4.641-1.924v-4.879h-10.685v4.879c-1.649,0.448-3.208,1.096-4.651,1.924l-3.446-3.445
					l-7.553,7.554l3.446,3.446c-0.82,1.452-1.482,3.008-1.937,4.646h-4.868v10.686h4.868c0.455,1.645,1.116,3.194,1.937,4.646
					l-3.446,3.446l7.553,7.563l3.446-3.456c1.442,0.829,3.002,1.48,4.651,1.931v4.873h10.685v-4.873
					c1.629-0.45,3.189-1.102,4.641-1.931l3.447,3.456l7.554-7.563l-3.446-3.446c0.829-1.452,1.471-3.002,1.925-4.646H245.928z
					 M221.587,522.732c-5.244,0-9.52-4.26-9.52-9.508c0-5.244,4.275-9.506,9.52-9.506c5.243,0,9.51,4.262,9.51,9.506
					C231.097,518.473,226.83,522.732,221.587,522.732z"/>
			</g>
			<g>
				<path fill="#E8F8FC" d="M204.089,491.622v-3.188c1.066-0.297,2.084-0.722,3.031-1.265l2.251,2.263l4.948-4.947l-2.261-2.252
					c0.543-0.947,0.967-1.966,1.273-3.041h3.179v-6.986h-3.179c-0.307-1.071-0.73-2.094-1.273-3.038l2.261-2.261l-4.948-4.938
					l-2.251,2.252c-0.947-0.538-1.964-0.968-3.031-1.259v-3.185h-6.991v3.185c-1.086,0.291-2.103,0.721-3.041,1.259l-2.261-2.252
					l-4.938,4.938l2.251,2.261c-0.533,0.944-0.968,1.967-1.264,3.038h-3.179v6.986h3.179c0.296,1.075,0.73,2.094,1.264,3.041
					l-2.251,2.252l4.938,4.947l2.261-2.263c0.938,0.543,1.955,0.968,3.041,1.265v3.188H204.089z M194.362,475.701
					c0-3.433,2.795-6.222,6.232-6.222c3.425,0,6.21,2.789,6.21,6.222c0,3.43-2.785,6.215-6.21,6.215
					C197.157,481.916,194.362,479.131,194.362,475.701z"/>
			</g>
		</g>
		<g>
			<path fill="#E8F8FC" d="M257.759,472.75h-24.312c-0.583,0-1.054-0.471-1.054-1.054s0.471-1.054,1.054-1.054h24.312
				c6.971,0,12.641-5.671,12.641-12.642v-68.907c0-0.583,0.472-1.054,1.054-1.054s1.054,0.471,1.054,1.054v68.907
				C272.507,466.134,265.891,472.75,257.759,472.75z"/>
		</g>
		<g>
			<g>
				<g>
					<path fill="#E8F8FC" d="M561.661,371.009v-1.056c0-0.352-0.296-0.638-0.65-0.638h-5.284c-0.347,0-0.631,0.286-0.631,0.638
						v1.056H561.661z"/>
				</g>
				<g>
					<polygon fill="#E8F8FC" points="552.43,371.009 547.777,364.852 532.77,364.852 528.107,371.009 					"/>
				</g>
			</g>
			<path fill="#E8F8FC" d="M517.177,372.465v29.16h46.193v-29.16H517.177z M526.773,376.475c0,0.35-0.275,0.637-0.63,0.637h-6.342
				c-0.345,0-0.632-0.287-0.632-0.637v-1.313c0-0.351,0.287-0.632,0.632-0.632h6.342c0.354,0,0.63,0.281,0.63,0.632V376.475z
				 M540.273,399.176c-6.705,0-12.137-5.432-12.137-12.131c0-6.695,5.432-12.131,12.137-12.131c6.693,0,12.125,5.436,12.125,12.131
				C552.398,393.744,546.967,399.176,540.273,399.176z"/>
			<path fill="#E8F8FC" d="M540.273,378.063c-4.958,0-8.985,4.02-8.985,8.981s4.027,8.982,8.985,8.982
				c4.956,0,8.976-4.021,8.976-8.982S545.229,378.063,540.273,378.063z M546.307,387.84c-0.445,0-0.8-0.355-0.8-0.795
				c0-2.889-2.341-5.237-5.233-5.237c-0.445,0-0.8-0.356-0.8-0.796s0.354-0.796,0.8-0.796c3.762,0,6.822,3.062,6.822,6.829
				C547.096,387.484,546.741,387.84,546.307,387.84z"/>
		</g>
		<g>
			<polygon fill="#E8F8FC" points="323.831,529.044 333.29,558.563 386.603,558.563 377.143,529.044 			"/>
			<g>
				<polygon fill="#E8F8FC" points="377.143,527.28 378.428,527.28 378.82,528.506 386.603,552.797 386.603,523.262 
					344.478,523.262 342.196,519.421 333.29,519.421 333.29,527.28 				"/>
			</g>
		</g>
		<g>
			<path fill="#E8F8FC" d="M284.172,115.298c2.922,0,5.313-2.38,5.313-5.323c0-2.933-2.39-5.322-5.313-5.322
				c-2.953,0-5.332,2.39-5.332,5.322C278.84,112.918,281.22,115.298,284.172,115.298z"/>
			<path fill="#E8F8FC" d="M297.503,120.937c-0.632-4.463-6.369-4.167-6.369-4.167h-14.012c0,0-6.152-0.321-6.429,4.67
				c-0.009,0.088-0.02,0.173-0.02,0.256v16.57c0,1.333,1.086,2.415,2.429,2.415c1.333,0,2.409-1.081,2.409-2.415v-15.093h2.291
				v40.166c0,1.333,1.086,2.409,2.41,2.409c1.333,0,2.399-1.076,2.399-2.409V140.41h3.141v22.929c0,1.333,1.076,2.409,2.41,2.409
				c1.333,0,2.409-1.076,2.409-2.409v-40.166h2.252v15.093c0,1.333,1.085,2.415,2.409,2.415c1.323,0,2.41-1.081,2.41-2.415v-16.57
				C297.642,121.43,297.602,121.173,297.503,120.937z"/>
		</g>
		<g>
			<path fill="#FF931E" d="M66.455,383.9l7.712-9.993c-4.749-4.385-10.961-7.16-17.843-7.495v12.55
				C60.313,379.308,63.868,381.146,66.455,383.9z"/>
			<path fill="#05293D" d="M83.301,394.061c-0.178-6.941-2.834-13.252-7.12-18.101l-7.909,10.26c1.59,2.475,2.519,5.407,2.519,8.563
				c0,0.464-0.03,0.918-0.07,1.383L83.301,394.061z"/>
			<path fill="#E8F8FC" d="M70.177,399.151c-1.905,6.651-8.018,11.529-15.285,11.529c-8.779,0-15.889-7.12-15.889-15.898
				c0-8.296,6.36-15.099,14.467-15.82v-12.55c-15.049,0.745-27.018,13.143-27.018,28.37c0,15.71,12.738,28.448,28.439,28.448
				c14.971,0,27.215-11.583,28.341-26.257L70.177,399.151z"/>
		</g>
		<g>
			<path fill="#E8F8FC" d="M57.717,354.56c-0.583,0-1.054-0.471-1.054-1.054v-14.073c0-8.132,6.616-14.749,14.749-14.749h149.217
				c0.582,0,1.054,0.472,1.054,1.054s-0.472,1.054-1.054,1.054H71.412c-6.971,0-12.641,5.671-12.641,12.642v14.073
				C58.771,354.089,58.299,354.56,57.717,354.56z"/>
		</g>
		<g>
			<polyline fill="none" stroke="#FFFFFF" stroke-miterlimit="10" points="427.139,508.237 444.715,491.436 464.514,510.785 
				482.13,491.436 495.877,506.198 528.107,472.704 			"/>
			<path fill="#FF931E" d="M430.91,509.226c0,2.088-1.688,3.776-3.771,3.776c-2.082,0-3.771-1.688-3.771-3.776
				c0-2.089,1.689-3.778,3.771-3.778C429.223,505.447,430.91,507.137,430.91,509.226z"/>
			<path fill="#FF931E" d="M448.498,491.747c0,2.088-1.689,3.776-3.783,3.776c-2.082,0-3.781-1.688-3.781-3.776
				c0-2.089,1.699-3.777,3.781-3.777C446.809,487.97,448.498,489.658,448.498,491.747z"/>
			<path fill="#FF931E" d="M468.297,510.785c0,2.083-1.699,3.777-3.783,3.777c-2.082,0-3.771-1.694-3.771-3.777
				c0-2.089,1.689-3.776,3.771-3.776C466.598,507.009,468.297,508.696,468.297,510.785z"/>
			<path fill="#FF931E" d="M486.101,491.747c0,2.088-1.699,3.776-3.781,3.776c-2.094,0-3.783-1.688-3.783-3.776
				c0-2.089,1.689-3.777,3.783-3.777C484.401,487.97,486.101,489.658,486.101,491.747z"/>
			<path fill="#FF931E" d="M499.678,505.447c0,2.089-1.688,3.778-3.771,3.778s-3.771-1.689-3.771-3.778
				c0-2.083,1.688-3.776,3.771-3.776S499.678,503.364,499.678,505.447z"/>
			<path fill="#FF931E" d="M531.889,472.704c0,2.083-1.698,3.781-3.781,3.781c-2.094,0-3.782-1.698-3.782-3.781
				c0-2.085,1.688-3.772,3.782-3.772C530.19,468.932,531.889,470.619,531.889,472.704z"/>
		</g>
		<polygon fill="#FF931E" points="435.473,208.337 422.252,187.803 409.266,208.337 416.583,208.337 416.583,225.312 
			428.155,225.312 428.155,208.337 		"/>
		<g>
			<polygon fill="#E8F8FC" points="32.25,136.943 64.352,153.227 92.1,109.215 			"/>
			<polygon fill="#04659B" points="92.1,109.215 44.602,143.214 44.602,161.191 52.789,147.362 			"/>
			<polygon fill="#68A3C3" points="92.1,109.215 44.602,143.214 44.602,161.191 52.789,147.362 			"/>
		</g>
		<g>
			<path fill="#FFFFFF" d="M265.134,79.601c0,1.782-1.441,3.229-3.219,3.229h-42.421c-1.776,0-3.219-1.447-3.219-3.229V37.185
				c0-1.778,1.443-3.215,3.219-3.215h42.421c1.778,0,3.219,1.437,3.219,3.215V79.601z"/>
			<path fill="#05293D" d="M216.274,37.185v9.411h48.86v-9.411c0-1.778-1.441-3.215-3.219-3.215h-42.421
				C217.717,33.97,216.274,35.407,216.274,37.185z"/>
			<g>
				<path fill="#04659B" d="M228.134,40.28c0,1.506-1.215,2.73-2.726,2.73c-1.521,0-2.735-1.224-2.735-2.73
					c0-1.511,1.214-2.736,2.735-2.736C226.919,37.544,228.134,38.77,228.134,40.28z"/>
				<path fill="#04659B" d="M258.726,40.28c0,1.506-1.215,2.73-2.726,2.73c-1.511,0-2.735-1.224-2.735-2.73
					c0-1.511,1.224-2.736,2.735-2.736C257.511,37.544,258.726,38.77,258.726,40.28z"/>
			</g>
			<g>
				<g>
					<path fill="#FF931E" d="M225.408,41.89c-0.898,0-1.62-0.721-1.62-1.609v-9.045c0-0.889,0.722-1.61,1.62-1.61
						c0.879,0,1.601,0.721,1.601,1.61v9.045C227.008,41.169,226.287,41.89,225.408,41.89z"/>
				</g>
				<g>
					<path fill="#FF931E" d="M256,41.89c-0.888,0-1.609-0.721-1.609-1.609v-9.045c0-0.889,0.721-1.61,1.609-1.61
						c0.889,0,1.61,0.721,1.61,1.61v9.045C257.609,41.169,256.889,41.89,256,41.89z"/>
				</g>
			</g>
			<g>
				<path fill="#04659B" d="M241.85,61.166c0,1.036-0.751,1.826-1.768,1.994v0.055c1.017,0.167,1.768,0.953,1.768,1.989v5.16
					c0,2.637-1.432,4.039-4.068,4.039h-3.259c-2.547,0-3.919-1.372-3.919-3.925v-0.928c0-0.366,0.197-0.558,0.562-0.558h2.697
					c0.365,0,0.552,0.192,0.552,0.558v1.155h3.15c0.366,0,0.553-0.197,0.553-0.563v-3.979c0-0.73-0.366-1.125-1.116-1.125h-3.318
					c-0.365,0-0.553-0.198-0.553-0.563v-2.578c0-0.366,0.188-0.563,0.553-0.563h3.318c0.721,0,1.116-0.385,1.116-1.096v-4.004
					c0-0.366-0.188-0.558-0.553-0.558h-3.15v1.146c0,0.365-0.188,0.563-0.552,0.563h-2.697c-0.364,0-0.562-0.197-0.562-0.563v-1.146
					c0-2.419,1.373-3.703,3.919-3.703h3.259c2.636,0,4.068,1.397,4.068,4.034V61.166z"/>
				<path fill="#04659B" d="M250.352,51.972c0.286,0,0.444,0.168,0.444,0.445v21.537c0,0.281-0.159,0.449-0.444,0.449h-2.923
					c-0.306,0-0.444-0.167-0.444-0.449v-17.72l-1.749,0.222c-0.355,0.059-0.583-0.138-0.583-0.504v-2.695
					c0-0.361,0.167-0.558,0.533-0.583L250.352,51.972z"/>
			</g>
		</g>
		<path fill="#FFFFFF" d="M185.534,153.227c0,3.357-2.726,6.083-6.082,6.083c-3.369,0-6.094-2.725-6.094-6.083
			c0-3.362,2.725-6.088,6.094-6.088C182.809,147.139,185.534,149.865,185.534,153.227z"/>
		<path fill="#FFFFFF" d="M366.765,141.259c0,3.357-2.716,6.082-6.083,6.082c-3.356,0-6.082-2.725-6.082-6.082
			c0-3.363,2.726-6.083,6.082-6.083C364.049,135.176,366.765,137.896,366.765,141.259z"/>
		<path fill="#FFFFFF" d="M510.018,200.478c0,3.357-2.716,6.083-6.083,6.083c-3.357,0-6.093-2.725-6.093-6.083
			c0-3.368,2.735-6.093,6.093-6.093C507.302,194.385,510.018,197.11,510.018,200.478z"/>
		<path fill="#FFFFFF" d="M464.603,313.672c0,3.356-2.733,6.082-6.093,6.082c-3.357,0-6.083-2.726-6.083-6.082
			c0-3.363,2.726-6.088,6.083-6.088C461.869,307.584,464.603,310.309,464.603,313.672z"/>
		<path fill="#FFFFFF" d="M437.004,439.327c0,3.367-2.728,6.093-6.094,6.093c-3.357,0-6.081-2.726-6.081-6.093
			c0-3.358,2.724-6.084,6.081-6.084C434.276,433.243,437.004,435.969,437.004,439.327z"/>
		<path fill="#FFFFFF" d="M240.763,471.696c0,3.362-2.725,6.093-6.083,6.093c-3.368,0-6.092-2.73-6.092-6.093
			c0-3.358,2.725-6.083,6.092-6.083C238.038,465.613,240.763,468.338,240.763,471.696z"/>
		<path fill="#FFFFFF" d="M111.563,459.392c0,3.357-2.727,6.084-6.083,6.084c-3.367,0-6.092-2.727-6.092-6.084
			c0-3.366,2.726-6.082,6.092-6.082C108.836,453.31,111.563,456.025,111.563,459.392z"/>
		<path fill="#FFFFFF" d="M63.799,353.506c0,3.362-2.726,6.088-6.082,6.088c-3.369,0-6.094-2.726-6.094-6.088
			c0-3.363,2.725-6.083,6.094-6.083C61.073,347.423,63.799,350.143,63.799,353.506z"/>
		<path fill="#FFFFFF" d="M122.8,267.378c0,3.357-2.736,6.083-6.094,6.083c-3.366,0-6.082-2.726-6.082-6.083
			c0-3.362,2.716-6.093,6.082-6.093C120.064,261.286,122.8,264.016,122.8,267.378z"/>
		<g>
			<path fill="#E8F8FC" d="M508.122,390.147h-36.873c-10.137,0-18.383-8.251-18.383-18.394v-6.241
				c0-8.979-7.308-16.286-16.288-16.286H377.38c-0.582,0-1.054-0.472-1.054-1.054s0.472-1.053,1.054-1.053h59.198
				c10.144,0,18.394,8.251,18.394,18.393v6.241c0,8.979,7.302,16.286,16.277,16.286h36.873c0.582,0,1.052,0.471,1.052,1.054
				C509.174,389.676,508.704,390.147,508.122,390.147z"/>
		</g>
		<g>
			<polygon fill="#FF931E" points="387.324,315.616 196.574,315.616 168.392,396.382 415.497,396.382 			"/>
			<rect x="168.392" y="396.382" fill="#05293D" width="247.105" height="7.08"/>
			<g>
				<polygon fill="#04659B" points="349.988,327.698 361.927,327.698 360.948,323.782 349.208,323.782 				"/>
				<polygon fill="#04659B" points="364.227,327.698 376.136,327.698 374.971,323.782 363.259,323.782 				"/>
				<polygon fill="#04659B" points="321.52,327.698 333.486,327.698 332.914,323.782 321.134,323.782 				"/>
				<polygon fill="#04659B" points="335.748,327.698 347.707,327.698 346.926,323.782 335.176,323.782 				"/>
				<polygon fill="#04659B" points="368.916,355.737 355.578,355.737 357.71,366.412 371.572,366.412 				"/>
				<polygon fill="#04659B" points="364.791,329.924 367.446,340.599 379.998,340.599 376.806,329.924 				"/>
				<polygon fill="#04659B" points="374.783,379.318 372.127,368.644 358.155,368.644 360.277,379.318 				"/>
				<polygon fill="#04659B" points="391.58,379.318 388.38,368.644 374.437,368.644 377.093,379.318 				"/>
				<polygon fill="#04659B" points="215.523,353.506 228.746,353.506 230.878,342.836 218.189,342.836 				"/>
				<polygon fill="#04659B" points="218.752,340.599 231.323,340.599 233.447,329.924 221.409,329.924 				"/>
				<polygon fill="#04659B" points="307.289,327.698 319.277,327.698 318.892,323.782 307.093,323.782 				"/>
				<polygon fill="#04659B" points="200.03,353.506 213.223,353.506 215.889,342.836 203.22,342.836 				"/>
				<polygon fill="#04659B" points="231.027,353.506 244.279,353.506 245.868,342.836 233.161,342.836 				"/>
				<polygon fill="#04659B" points="196.169,366.412 210.004,366.412 212.66,355.737 199.359,355.737 				"/>
				<polygon fill="#04659B" points="246.53,353.506 259.791,353.506 260.858,342.836 248.129,342.836 				"/>
				<polygon fill="#04659B" points="293.06,327.698 305.059,327.698 304.86,323.782 293.06,323.782 				"/>
				<polygon fill="#04659B" points="233.605,340.599 246.205,340.599 247.804,329.924 235.736,329.924 				"/>
				<polygon fill="#04659B" points="262.142,329.924 250.065,329.924 248.465,340.599 261.075,340.599 				"/>
				<polygon fill="#04659B" points="293.06,329.924 293.06,340.599 305.7,340.599 305.166,329.924 				"/>
				<polygon fill="#04659B" points="353.008,342.836 355.143,353.506 368.354,353.506 365.697,342.836 				"/>
				<polygon fill="#04659B" points="320.561,340.599 319.495,329.924 307.398,329.924 307.931,340.599 				"/>
				<polygon fill="#04659B" points="321.845,353.506 320.787,342.836 308.04,342.836 308.583,353.506 				"/>
				<polygon fill="#04659B" points="368.009,342.836 370.655,353.506 383.857,353.506 380.668,342.836 				"/>
				<polygon fill="#04659B" points="373.884,366.412 387.72,366.412 384.521,355.737 371.218,355.737 				"/>
				<polygon fill="#04659B" points="293.06,379.318 307.614,379.318 307.093,368.644 293.06,368.644 				"/>
				<polygon fill="#04659B" points="358.007,379.318 355.872,368.644 341.881,368.644 343.47,379.318 				"/>
				<polygon fill="#04659B" points="293.06,366.412 306.982,366.412 306.439,355.737 293.06,355.737 				"/>
				<polygon fill="#04659B" points="293.06,353.506 306.341,353.506 305.808,342.836 293.06,342.836 				"/>
				<polygon fill="#04659B" points="341.209,379.318 339.619,368.644 325.597,368.644 326.662,379.318 				"/>
				<polygon fill="#04659B" points="339.282,366.412 337.693,355.737 324.314,355.737 325.379,366.412 				"/>
				<polygon fill="#04659B" points="355.43,366.412 353.305,355.737 339.945,355.737 341.544,366.412 				"/>
				<polygon fill="#04659B" points="350.44,329.924 352.565,340.599 365.145,340.599 362.479,329.924 				"/>
				<polygon fill="#04659B" points="324.422,379.318 323.355,368.644 309.332,368.644 309.866,379.318 				"/>
				<polygon fill="#04659B" points="339.609,353.506 352.851,353.506 350.728,342.836 338.019,342.836 				"/>
				<polygon fill="#04659B" points="323.14,366.412 322.072,355.737 308.691,355.737 309.215,366.412 				"/>
				<polygon fill="#04659B" points="323.029,342.836 324.087,353.506 337.349,353.506 335.76,342.836 				"/>
				<polygon fill="#04659B" points="321.745,329.924 322.802,340.599 335.422,340.599 333.833,329.924 				"/>
				<polygon fill="#04659B" points="336.095,329.924 337.684,340.599 350.284,340.599 348.15,329.924 				"/>
				<polygon fill="#04659B" points="207.751,327.698 219.65,327.698 220.629,323.782 208.917,323.782 				"/>
				<polygon fill="#04659B" points="216.432,340.599 219.098,329.924 207.081,329.924 203.892,340.599 				"/>
				<polygon fill="#04659B" points="258.292,368.644 244.269,368.644 242.668,379.318 257.215,379.318 				"/>
				<polygon fill="#04659B" points="259.565,355.737 246.205,355.737 244.604,366.412 258.507,366.412 				"/>
				<polygon fill="#04659B" points="274.554,368.644 260.532,368.644 259.466,379.318 274.032,379.318 				"/>
				<polygon fill="#04659B" points="243.943,355.737 230.583,355.737 228.459,366.412 242.344,366.412 				"/>
				<polygon fill="#04659B" points="275.207,355.737 261.816,355.737 260.76,366.412 274.664,366.412 				"/>
				<polygon fill="#04659B" points="225.725,368.644 211.762,368.644 209.095,379.318 223.601,379.318 				"/>
				<polygon fill="#04659B" points="221.961,327.698 233.891,327.698 234.681,323.782 222.939,323.782 				"/>
				<polygon fill="#04659B" points="242.008,368.644 228.014,368.644 225.883,379.318 240.407,379.318 				"/>
				<polygon fill="#04659B" points="206.785,379.318 209.452,368.644 195.507,368.644 192.308,379.318 				"/>
				<polygon fill="#04659B" points="228.301,355.737 214.97,355.737 212.314,366.412 226.179,366.412 				"/>
				<polygon fill="#04659B" points="275.838,342.836 263.1,342.836 262.043,353.506 275.315,353.506 				"/>
				<polygon fill="#04659B" points="264.61,327.698 276.598,327.698 276.787,323.782 265.005,323.782 				"/>
				<polygon fill="#04659B" points="250.391,327.698 262.369,327.698 262.754,323.782 250.974,323.782 				"/>
				<polygon fill="#04659B" points="236.181,327.698 248.129,327.698 248.712,323.782 236.962,323.782 				"/>
				<polygon fill="#04659B" points="290.838,323.782 279.038,323.782 278.84,327.698 290.838,327.698 				"/>
				<polygon fill="#04659B" points="290.838,368.644 276.787,368.644 276.263,379.318 290.838,379.318 				"/>
				<polygon fill="#04659B" points="276.491,329.924 264.394,329.924 263.327,340.599 275.947,340.599 				"/>
				<polygon fill="#04659B" points="290.838,329.924 278.722,329.924 278.188,340.599 290.838,340.599 				"/>
				<polygon fill="#04659B" points="290.838,355.737 277.438,355.737 276.904,366.412 290.838,366.412 				"/>
				<polygon fill="#04659B" points="290.838,342.836 278.08,342.836 277.546,353.506 290.838,353.506 				"/>
			</g>
			<rect x="196.574" y="203.104" fill="#05293D" width="191.146" height="112.513"/>
			<rect x="206.903" y="212.712" fill="#04659B" width="170.477" height="97.019"/>
			<path fill="#04659B" d="M294.117,208.536c0,1.096-0.889,1.974-1.975,1.974c-1.096,0-1.975-0.878-1.975-1.974
				c0-1.092,0.878-1.976,1.975-1.976C293.228,206.56,294.117,207.444,294.117,208.536z"/>
		</g>
		<path fill="#FFFFFF" d="M512.26,389.094c0,3.358-2.735,6.083-6.095,6.083c-3.357,0-6.081-2.725-6.081-6.083
			c0-3.362,2.724-6.088,6.081-6.088C509.524,383.006,512.26,385.731,512.26,389.094z"/>
	</g>
	<g>
		<path fill="#FFFFFF" d="M218.984,243.748v11.615h-3.086v-18.374l9.259,8.035l9.259-8.035v18.374h-3.086v-11.615l-6.173,5.36
			L218.984,243.748z"/>
		<path fill="#FFFFFF" d="M239.622,252.277l-1.78,3.086h-3.57l8.652-14.979l1.78-3.086l1.78,3.086l8.652,14.979h-3.57l-1.78-3.086
			H239.622z M248.006,249.19l-3.302-5.72l-3.302,5.72H248.006z"/>
		<path fill="#FFFFFF" d="M258.077,245.199v10.164h-3.086v-17.489h12.345c1.419,0,2.632,0.502,3.638,1.507
			c1.004,1.005,1.506,2.217,1.506,3.637c0,1.419-0.502,2.632-1.506,3.637c-1.006,1.004-2.219,1.507-3.638,1.507h-1.934l7.202,7.201
			h-4.362L258.077,245.199z M258.077,240.96v4.115h9.259c0.57,0,1.056-0.2,1.457-0.602c0.402-0.401,0.601-0.886,0.601-1.456
			c0-0.57-0.199-1.055-0.601-1.456c-0.401-0.402-0.886-0.602-1.457-0.602H258.077z"/>
		<path fill="#FFFFFF" d="M287.799,237.874h4.084l-7.582,8.745l7.582,8.745h-4.084l-6.245-7.201h-4.958v7.201h-3.086v-17.489h3.086
			v7.201h4.958L287.799,237.874z"/>
		<path fill="#FFFFFF" d="M309.518,237.874v3.086h-14.404v4.115h14.404v3.087h-14.404v4.115h14.404v3.086h-17.49v-17.489H309.518z"
			/>
		<path fill="#FFFFFF" d="M320.834,240.96v14.403h-3.086V240.96h-7.202v-3.086h17.489v3.086H320.834z"/>
		<path fill="#FFFFFF" d="M332.149,255.363h-3.085v-17.489h3.085V255.363z"/>
		<path fill="#FFFFFF" d="M336.266,243.748v11.615h-3.087v-18.374l14.403,12.5v-11.615h3.086v18.374L336.266,243.748z"/>
		<path fill="#FFFFFF" d="M356.841,237.874h10.288v3.086h-10.288c-0.567,0-1.053,0.2-1.456,0.602
			c-0.4,0.401-0.601,0.886-0.601,1.456v7.202c0,0.569,0.2,1.054,0.601,1.456c0.403,0.401,0.889,0.602,1.456,0.602h7.202
			c0.568,0,1.054-0.201,1.456-0.602c0.401-0.402,0.602-0.887,0.602-1.456v-2.058h-6.174v-3.087h9.259v5.145
			c0,1.419-0.5,2.632-1.506,3.636c-1.006,1.005-2.217,1.507-3.637,1.507h-7.202c-1.419,0-2.631-0.502-3.636-1.507
			c-1.006-1.004-1.509-2.217-1.509-3.636v-7.202c0-1.42,0.503-2.632,1.509-3.637C354.21,238.376,355.422,237.874,356.841,237.874z"
			/>
		<path fill="#FFFFFF" d="M245.732,268.301v1.029h-3.086v-1.029c0-0.569-0.2-1.054-0.601-1.456
			c-0.401-0.401-0.887-0.602-1.457-0.602h-7.202c-0.569,0-1.053,0.201-1.455,0.602c-0.401,0.402-0.603,0.887-0.603,1.456v7.202
			c0,0.569,0.202,1.054,0.603,1.456c0.401,0.401,0.886,0.602,1.455,0.602h7.202c0.57,0,1.056-0.2,1.457-0.602
			c0.401-0.401,0.601-0.886,0.601-1.456v-1.029h3.086v1.029c0,1.419-0.502,2.632-1.506,3.637c-1.005,1.004-2.218,1.507-3.638,1.507
			h-7.202c-1.42,0-2.631-0.502-3.635-1.507c-1.006-1.005-1.508-2.217-1.508-3.637v-7.202c0-1.42,0.502-2.632,1.508-3.637
			c1.004-1.005,2.215-1.507,3.635-1.507h7.202c1.419,0,2.632,0.502,3.638,1.507C245.23,265.669,245.732,266.881,245.732,268.301z"/>
		<path fill="#FFFFFF" d="M251.905,280.646c-1.42,0-2.631-0.502-3.636-1.507c-1.005-1.005-1.508-2.217-1.508-3.637v-7.202
			c0-1.42,0.503-2.632,1.508-3.637c1.004-1.005,2.216-1.507,3.636-1.507h7.202c1.419,0,2.633,0.502,3.638,1.507
			c1.004,1.004,1.506,2.217,1.506,3.637v7.202c0,1.419-0.502,2.632-1.506,3.637c-1.005,1.004-2.218,1.507-3.638,1.507H251.905z
			 M249.847,275.503c0,0.569,0.202,1.054,0.603,1.456s0.886,0.602,1.455,0.602h7.202c0.57,0,1.056-0.2,1.457-0.602
			c0.401-0.401,0.601-0.886,0.601-1.456v-7.202c0-0.569-0.199-1.054-0.601-1.456c-0.401-0.401-0.887-0.602-1.457-0.602h-7.202
			c-0.569,0-1.053,0.201-1.455,0.602c-0.401,0.402-0.603,0.887-0.603,1.456V275.503z"/>
		<path fill="#FFFFFF" d="M268.365,269.031v11.615h-3.086v-18.374l14.403,12.5v-11.615h3.087v18.374L268.365,269.031z"/>
		<path fill="#FFFFFF" d="M294.084,266.244v14.403h-3.086v-14.403h-7.202v-3.086h17.49v3.086H294.084z"/>
		<path fill="#FFFFFF" d="M319.805,263.157v3.086h-14.403v4.115h14.403v3.087h-14.403v4.115h14.403v3.086h-17.489v-17.489H319.805z"
			/>
		<path fill="#FFFFFF" d="M323.921,269.031v11.615h-3.087v-18.374l14.403,12.5v-11.615h3.086v18.374L323.921,269.031z"/>
		<path fill="#FFFFFF" d="M349.64,266.244v14.403h-3.086v-14.403h-7.202v-3.086h17.489v3.086H349.64z"/>
	</g>
	<polygon opacity="0.2" fill="#0E384B" points="377.38,212.712 206.903,309.731 377.38,309.731 	"/>
</g>
</svg>
