<?xml version="1.0" encoding="utf-8"?>
<!-- Generator: Adobe Illustrator 16.0.3, SVG Export Plug-In . SVG Version: 6.00 Build 0)  -->
<!DOCTYPE svg PUBLIC "-//W3C//DTD SVG 1.1//EN" "http://www.w3.org/Graphics/SVG/1.1/DTD/svg11.dtd">
<svg version="1.1" id="Capa_1" xmlns="http://www.w3.org/2000/svg" xmlns:xlink="http://www.w3.org/1999/xlink" x="0px" y="0px"
	 width="600px" height="600px" viewBox="0 0 600 600" enable-background="new 0 0 600 600" xml:space="preserve">
<g id="_x31_0_1_">
	<g id="_x35__10_">
		<g>
			<g>
				<g>
					<polygon fill="#90A4AE" points="304.962,426.246 259.436,420.256 213.916,426.246 210.765,444.08 308.103,444.08 					"/>
					<polygon fill="#B0BEC5" points="308.103,444.08 210.765,444.08 201.417,497.182 317.471,497.182 					"/>
					<path fill="#CFD8DC" d="M367.463,514.903l-5.527-8.45c-6.525-4.286-43.817-6.694-43.817-6.694h-0.202l-0.445-2.577H201.417
						l-0.461,2.577h-0.191c0,0-37.309,2.408-43.823,6.694l-5.527,8.45c-2.276,1.503,0.042,4.049,3.67,4.049h104.351h104.367
						C367.421,518.952,369.744,516.406,367.463,514.903z"/>
				</g>
				<g>
					<g>
						<path fill="#CFD8DC" d="M503.901,115.395H14.975c-1.061,0-1.92,0.859-1.92,1.92v308.644c0,1.061,0.859,1.92,1.92,1.92h488.938
							c1.051,0,1.909-0.859,1.909-1.92V117.315C505.822,116.254,504.964,115.395,503.901,115.395z"/>
						<rect x="39.504" y="137.028" fill="#68787A" width="439.878" height="269.217"/>
					</g>
				</g>
			</g>
			<polygon fill="#2A445D" points="355.071,142.311 45.944,142.311 45.944,144.789 45.944,399.551 286.31,399.551 355.071,399.551 
				471.596,399.551 471.596,142.311 			"/>
		</g>
	</g>
	<polygon opacity="0.41" fill="#BDBDBD" points="45.944,146.205 45.944,399.551 286.31,399.551 355.071,399.551 471.596,399.551 
		471.596,397.728 	"/>
	<path fill="#17C5CC" d="M413.36,98.483l-1.646-18.143l-13.653-1.076c-1.029-2.944,4.233-14.636,2.578-17.406l1.263-2.313
		l-12.913-12.848l-11.044,7.872c-2.78-1.655-5.698-3.013-8.732-4.053L368.1,37.085l-18.153-1.549l-3.362,13.018
		c-3.184,0.515-6.335,1.358-9.4,2.541l-9.411-9.49l-0.435,0.308l-14.472,10.174l5.771,12.106c-2.144,2.498-4,5.193-5.549,8.021
		l-13.315-1.221L295.095,88.6l12.297,5.597c-0.032,3.215,0.265,6.44,0.901,9.623l-11.076,7.681l7.745,16.487l13.146-3.639
		c2.058,2.494,4.328,4.727,6.779,6.673l-3.586,13.145l16.529,7.666l7.81-11.347c3.076,0.552,6.217,0.817,9.368,0.758l5.75,12.466
		l17.58-4.748l-0.679-7.023l-0.658-6.748c1.315-0.754,2.61-1.56,3.862-2.44c1.326-0.933,2.577-1.92,3.776-2.96l12.466,5.889
		l10.409-14.949l-9.846-9.691c1.104-2.923,1.898-5.968,2.397-9.045L413.36,98.483z M370.73,118.36
		c-1.23,0.865-2.503,1.576-3.809,2.223c-12.625,6.296-28.285,2.626-36.667-9.263c-9.209-13.113-6.079-31.224,7.056-40.475
		c1.136-0.796,2.334-1.475,3.543-2.096c12.68-6.466,28.487-2.838,36.911,9.14C386.995,91.003,383.845,109.119,370.73,118.36z"/>
	<path fill="#F62F48" d="M528.379,95.513l-3.268-17.92l-13.708,0.169c-1.283-2.838-2.875-5.575-4.774-8.185l6.812-11.792
		l-14.026-11.628l-10.281,8.837c-2.916-1.4-5.95-2.477-9.07-3.247l-2.323-13.272l-18.229,0.106l-2.152,13.268
		c-3.13,0.801-6.186,1.925-9.146,3.39l-10.228-8.604l-0.402,0.34l-13.484,11.447l6.842,11.539c-1.909,2.679-3.511,5.533-4.795,8.493
		l-13.379-0.011l-3.044,17.957l12.73,4.461c0.266,3.204,0.86,6.387,1.793,9.506l-10.345,8.647l9.21,15.723l12.752-4.817
		c2.281,2.287,4.754,4.308,7.363,6.026l-2.376,13.416l17.155,6.138l6.737-12.01c3.119,0.276,6.281,0.255,9.4-0.095l6.864,11.893
		l17.082-6.323l-1.316-6.928l-1.262-6.663c1.229-0.87,2.45-1.804,3.617-2.78c1.23-1.05,2.388-2.153,3.491-3.289l12.954,4.727
		l9.008-15.83l-10.694-8.758c0.848-3.013,1.357-6.117,1.58-9.23L528.379,95.513z M487.732,119.183
		c-1.145,0.965-2.354,1.787-3.596,2.557c-12,7.411-27.925,5.177-37.347-5.91c-10.376-12.217-8.89-30.54,3.343-40.937
		c1.071-0.907,2.186-1.682,3.353-2.409c12.032-7.591,28.104-5.417,37.579,5.756C501.451,90.462,499.956,108.785,487.732,119.183z"/>
	<path fill="#F4CD25" d="M511.88,215.666l-2.228-24.71l-18.609-1.464c-1.39-4.01-3.214-7.926-5.463-11.692l10.694-15.161
		l-17.591-17.496L463.66,155.86c-3.788-2.255-7.767-4.095-11.904-5.518l-1.518-18.296l-24.719-2.106l-4.573,17.729
		c-4.329,0.701-8.626,1.846-12.806,3.459l-12.816-12.922l-0.584,0.408l-19.713,13.867l7.861,16.482
		c-2.917,3.406-5.442,7.077-7.553,10.922l-18.154-1.655l-6.354,23.973l16.742,7.617c-0.053,4.388,0.36,8.774,1.23,13.114
		l-15.076,10.461l10.546,22.45l17.888-4.949c2.811,3.379,5.909,6.424,9.241,9.087l-4.881,17.898l22.503,10.435l10.631-15.453
		c4.191,0.753,8.467,1.114,12.753,1.029l7.841,16.986l23.945-6.472l-0.912-9.559l-0.902-9.199c1.783-1.019,3.544-2.127,5.252-3.321
		c1.793-1.273,3.502-2.61,5.136-4.021l16.985,8.011l14.174-20.36l-13.41-13.198c1.496-3.979,2.578-8.127,3.268-12.318
		L511.88,215.666z M453.825,242.731c-1.666,1.178-3.416,2.143-5.188,3.029c-17.199,8.567-38.514,3.57-49.93-12.62
		c-12.551-17.856-8.266-42.523,9.592-55.106c1.569-1.104,3.193-2.016,4.837-2.859c17.263-8.806,38.8-3.868,50.269,12.45
		C475.988,205.481,471.691,230.148,453.825,242.731z"/>
	<g id="_x31_6_2_">
		<g>
			<g>
				<g>
					<g>
						<path fill="#B0BEC5" d="M407.854,315.132v234.057c0,15.098,10.515,27.446,23.341,27.446h136.238
							c12.838,0,23.33-12.353,23.33-27.446V315.126c-0.01-15.092-10.504-27.447-23.341-27.447l-136.237,0.005
							C418.357,287.684,407.854,300.034,407.854,315.132z"/>
					</g>
					<polygon fill="#2A445D" points="432.68,319.486 429.836,319.486 429.836,518.039 568.779,518.039 568.779,516.925 
						568.779,516.586 568.779,319.491 					"/>
				</g>
				<g>
					<path fill="#D8E0E7" d="M498.884,541.041c7.108,0,12.87,5.761,12.87,12.859c0,7.107-5.762,12.869-12.87,12.869
						c-7.098,0-12.859-5.762-12.859-12.86C486.024,546.802,491.786,541.041,498.884,541.041z"/>
				</g>
				<g>
					<path fill="#929497" d="M492.029,303.519c-1.389-0.017-2.514-1.151-2.492-2.541c0-1.395,1.146-2.52,2.535-2.504l23.776,0.117
						h0.021c1.39,0.016,2.504,1.151,2.493,2.537c0,1.4-1.146,2.524-2.536,2.514l-23.786-0.122H492.029z"/>
				</g>
				<g>
					<path fill="#929497" d="M480.508,311.593c-1.39-0.017-2.515-1.141-2.504-2.541s1.146-2.521,2.547-2.515l42.438,0.212H523
						c1.389,0.017,2.504,1.146,2.492,2.547c0,1.391-1.135,2.514-2.535,2.504l-42.438-0.207H480.508z"/>
				</g>
			</g>
			<g>
				<path fill="#929497" d="M461.475,299.906c3.385,0,6.122,2.742,6.122,6.132c0,3.385-2.737,6.133-6.122,6.133
					c-3.396,0-6.143-2.748-6.143-6.133C455.332,302.648,458.079,299.906,461.475,299.906z"/>
			</g>
		</g>
	</g>
	<g>
		<polygon fill="#0EC0C0" points="326.743,176.039 114.292,176.039 114.292,378.363 263.924,378.363 326.743,328.882 		"/>
		<polygon fill="#FFFFFF" points="313.799,188.357 127.214,188.357 127.214,366.057 258.64,366.057 313.799,322.589 		"/>
		<g>
			<g>
				<g>
					<rect x="137.404" y="275.896" fill="#306B88" width="160.205" height="21.283"/>
				</g>
				<g>
					<rect x="137.404" y="210.574" fill="#306B88" width="160.205" height="21.282"/>
				</g>
				<g>
					<rect x="137.404" y="243.24" fill="#306B88" width="160.205" height="21.278"/>
				</g>
				<g>
					<rect x="137.404" y="308.563" fill="#306B88" width="160.205" height="21.283"/>
				</g>
			</g>
		</g>
		<polygon fill="#22DDDD" points="326.743,328.882 263.924,378.363 263.924,328.882 		"/>
	</g>
	<g>
		<polygon fill="#0EC0C0" points="552.749,335.576 451.979,335.576 451.979,500.683 522.957,500.683 552.749,460.298 		"/>
		<polygon fill="#FFFFFF" points="546.617,345.628 458.111,345.628 458.111,490.631 520.453,490.631 546.617,455.166 		"/>
		<g>
			<g>
				<g>
					<rect x="462.938" y="417.068" fill="#306B88" width="75.997" height="17.368"/>
				</g>
				<g>
					<rect x="462.938" y="363.755" fill="#306B88" width="75.997" height="17.367"/>
				</g>
				<g>
					<rect x="462.938" y="390.411" fill="#306B88" width="75.997" height="17.363"/>
				</g>
				<g>
					<rect x="462.938" y="443.719" fill="#306B88" width="75.997" height="17.368"/>
				</g>
			</g>
		</g>
		<polygon fill="#22DDDD" points="552.749,460.298 522.957,500.683 522.957,460.298 		"/>
	</g>
	<path fill="#F62F48" d="M398.433,455.188l-51.425-29.685v21.907H81.571v-98.382c0-4.409-3.575-7.979-7.979-7.979
		c-4.414,0-7.979,3.569-7.979,7.979v106.361c0,4.402,3.565,7.973,7.979,7.973h273.415v21.521L398.433,455.188z"/>
</g>
</svg>
