<?xml version="1.0" encoding="utf-8"?>
<!-- Generator: Adobe Illustrator 16.0.3, SVG Export Plug-In . SVG Version: 6.00 Build 0)  -->
<!DOCTYPE svg PUBLIC "-//W3C//DTD SVG 1.1//EN" "http://www.w3.org/Graphics/SVG/1.1/DTD/svg11.dtd">
<svg version="1.1" id="Capa_1" xmlns="http://www.w3.org/2000/svg" xmlns:xlink="http://www.w3.org/1999/xlink" x="0px" y="0px"
	 width="600px" height="600px" viewBox="0 0 600 600" enable-background="new 0 0 600 600" xml:space="preserve">
<g>
	<g>
		<path fill-rule="evenodd" clip-rule="evenodd" fill="#013C5C" d="M99.714,169.909h403.287c8.248,0,14.983,6.736,14.983,14.983
			V439.67c0,8.248-6.735,14.983-14.983,14.983H99.714c-8.249,0-14.984-6.735-14.984-14.983V184.892
			C84.73,176.645,91.466,169.909,99.714,169.909z"/>
		<rect x="107.206" y="199.637" fill-rule="evenodd" clip-rule="evenodd" fill="#FFFFFF" width="388.292" height="208.46"/>
		<path fill-rule="evenodd" clip-rule="evenodd" fill="#5895CB" d="M301.352,190.75c3.013,0,5.444-2.438,5.444-5.45
			c0-3.007-2.432-5.444-5.444-5.444c-3.013,0-5.444,2.438-5.444,5.444C295.907,188.312,298.338,190.75,301.352,190.75z"/>
		<rect x="292.138" y="421.069" fill-rule="evenodd" clip-rule="evenodd" fill="#055A87" width="18.428" height="18.426"/>
		<polygon fill-rule="evenodd" clip-rule="evenodd" fill="#055A87" points="84.73,454.653 517.984,454.653 593.239,503.983 
			9.476,503.983 		"/>
		<path fill-rule="evenodd" clip-rule="evenodd" fill="#013C5C" d="M9.476,503.983h583.764v7.01c0,5.956-4.875,10.83-10.83,10.83
			H20.306c-5.957,0-10.831-4.868-10.831-10.83V503.983z"/>
		<rect x="9.476" y="503.983" fill-rule="evenodd" clip-rule="evenodd" fill="#013C5C" width="583.764" height="8.405"/>
	</g>
	<path fill-rule="evenodd" clip-rule="evenodd" fill="#8FBFEA" d="M494.985,482.899v-0.361l0.453,0.361H494.985L494.985,482.899z
		 M494.985,473.115c2.117,1.571,4.246,3.13,6.434,4.712c2.338,1.675,4.641,3.373,6.956,5.054c12.507-0.018,25.059-0.028,37.668-0.04
		c-2.745-1.675-5.502-3.35-8.236-5.032c-2.757-1.681-5.444-3.355-8.143-5.042c-11.599,0.006-23.196,0.006-34.679,0.006V473.115
		L494.985,473.115z M494.985,468.847v-10.086l11.773,0.023c2.803,1.686,5.502,3.361,8.247,5.036
		c2.746,1.676,5.491,3.362,8.236,5.037C513.796,468.847,504.385,468.847,494.985,468.847z M494.985,458.761v10.086l-5.897-0.006
		c-2.327-1.682-4.688-3.368-7.016-5.055c-1.942-1.42-3.861-2.839-5.863-4.258v-0.804L494.985,458.761L494.985,458.761z
		 M494.985,472.772v0.343l-0.453-0.343H494.985L494.985,472.772z M494.985,482.538c-2.013-1.569-4.071-3.123-6.118-4.699
		c-2.164-1.675-4.316-3.379-6.469-5.072h-6.189v10.15l18.776-0.018V482.538L494.985,482.538z M476.209,468.834h1.129l-1.129-0.866
		V468.834z M150.854,487.395h298.274l10.481,10.977H140.814L150.854,487.395L150.854,487.395z M476.209,458.725v0.804
		c-0.383-0.268-0.755-0.535-1.14-0.804H476.209L476.209,458.725z M476.209,467.968c-1.826-1.402-3.617-2.798-5.444-4.193
		c-2.209-1.687-4.315-3.374-6.584-5.072c-10.552-0.012-21.067-0.035-31.571-0.059c1.826,1.699,3.536,3.408,5.281,5.09
		c1.756,1.705,3.559,3.391,5.327,5.077l32.991,0.023V467.968L476.209,467.968z M476.209,472.767v10.15l-18.333,0.017
		c-1.769-1.692-3.548-3.385-5.329-5.084c-1.779-1.686-3.454-3.385-5.234-5.083C456.945,472.767,466.578,472.767,476.209,472.767
		L476.209,472.767z M123.178,483.289v-10.546c9.621,0,19.288,0,28.99,0.012c-1.722,1.75-3.49,3.524-5.235,5.259
		c-1.757,1.762-3.501,3.507-5.27,5.258L123.178,483.289L123.178,483.289z M123.178,468.648v-0.884
		c1.804-1.466,3.642-2.932,5.445-4.397c2.152-1.757,4.304-3.524,6.515-5.293c10.504,0.023,21.021,0.047,31.583,0.069
		c-1.733,1.751-3.49,3.525-5.235,5.258c-1.756,1.769-3.548,3.513-5.281,5.259C145.188,468.654,134.183,468.648,123.178,468.648
		L123.178,468.648z M123.178,458.883l1.07-0.821h-1.07V458.883L123.178,458.883z M164.243,472.755c11.691,0,23.382,0,35.132,0
		c-1.187,1.745-2.408,3.501-3.56,5.235c-1.164,1.751-2.373,3.489-3.548,5.224c-12.563,0.011-25.128,0.034-37.622,0.046
		c1.618-1.751,3.199-3.49,4.793-5.246C161.021,476.269,162.673,474.5,164.243,472.755L164.243,472.755z M211.393,472.755
		c11.691,0,23.44,0,35.132,0c-0.593,1.733-1.268,3.478-1.885,5.212c-0.616,1.733-1.245,3.466-1.884,5.194
		c-12.552,0.017-25.116,0.029-37.622,0.04c1.082-1.733,2.105-3.479,3.129-5.224C209.287,476.245,210.369,474.5,211.393,472.755
		L211.393,472.755z M258.6,472.755c11.691,0,23.383,0.006,35.075,0c-0.047,1.733-0.152,3.461-0.209,5.183
		c-0.059,1.728-0.105,3.449-0.164,5.171c-12.551,0.012-25.057,0.022-37.563,0.046c0.488-1.732,0.918-3.466,1.407-5.193
		C257.634,476.232,258.169,474.488,258.6,472.755L258.6,472.755z M305.807,472.761c11.633,0,23.336,0,35.086,0
		c0.477,1.716,0.942,3.438,1.454,5.147c0.513,1.71,0.966,3.433,1.454,5.142c-12.563,0.023-25.058,0.036-37.563,0.047
		c-0.058-1.722-0.14-3.443-0.221-5.165S305.865,474.481,305.807,472.761L305.807,472.761z M352.956,472.767
		c11.703,0,23.395,0,35.145,0c1.022,1.698,2.07,3.408,3.117,5.119c1.047,1.697,2.105,3.408,3.188,5.118
		c-12.563,0.012-25.116,0.022-37.622,0.035c-0.639-1.711-1.291-3.421-1.942-5.131C354.189,476.192,353.608,474.477,352.956,472.767
		L352.956,472.767z M400.105,472.767c11.703,0,23.452,0,35.145,0c1.616,1.698,3.176,3.397,4.792,5.096
		c1.617,1.698,3.233,3.396,4.852,5.083c-12.553,0.012-25.116,0.035-37.622,0.047c-1.175-1.711-2.385-3.396-3.606-5.106
		C402.455,476.187,401.292,474.465,400.105,472.767L400.105,472.767z M177.598,458.161c10.504,0.018,21.079,0.041,31.642,0.059
		c-1.187,1.751-2.385,3.496-3.56,5.24c-1.186,1.739-2.373,3.49-3.56,5.223c-11.366,0-22.79-0.011-34.167-0.011
		c1.617-1.758,3.257-3.49,4.851-5.252C174.387,461.68,175.981,459.918,177.598,458.161L177.598,458.161z M220.118,458.243
		c10.516,0.017,21.067,0.04,31.63,0.063c-0.64,1.733-1.256,3.478-1.885,5.199c-0.617,1.745-1.292,3.473-1.885,5.2
		c-11.365,0-22.789-0.011-34.167-0.011c1.024-1.745,2.152-3.462,3.188-5.224C218.012,461.75,219.047,459.981,220.118,458.243
		L220.118,458.243z M262.636,458.318c10.517,0.023,21.021,0.047,31.584,0.063c-0.058,1.728-0.105,3.461-0.163,5.184
		c-0.058,1.721-0.163,3.442-0.209,5.17c-11.377-0.006-22.754-0.006-34.12-0.017c0.489-1.734,0.978-3.468,1.454-5.194
		C261.671,461.797,262.148,460.057,262.636,458.318L262.636,458.318z M305.109,458.399c10.504,0.023,21.067,0.047,31.572,0.064
		c0.535,1.722,1.035,3.438,1.512,5.146c0.478,1.723,0.967,3.438,1.501,5.155c-11.424-0.013-22.731-0.013-34.107-0.023
		c-0.105-1.723-0.141-3.444-0.21-5.166C305.296,461.854,305.214,460.133,305.109,458.399L305.109,458.399z M347.617,458.48
		c10.516,0.023,21.079,0.047,31.642,0.064c1.07,1.717,2.117,3.408,3.176,5.125c1.048,1.698,2.106,3.408,3.188,5.117
		c-11.424-0.011-22.802-0.011-34.178-0.021c-0.64-1.711-1.292-3.421-1.931-5.137C348.861,461.919,348.269,460.202,347.617,458.48
		L347.617,458.48z M390.09,458.563c10.505,0.023,21.066,0.04,31.63,0.058c1.676,1.71,3.234,3.409,4.852,5.107
		c1.616,1.692,3.233,3.386,4.909,5.083c-11.436-0.011-22.801-0.011-34.167-0.023c-1.187-1.697-2.408-3.408-3.618-5.106
		C392.474,461.971,391.334,460.272,390.09,458.563z M123.178,458.062v0.821c-1.965,1.494-3.955,2.995-5.886,4.473
		c-2.304,1.769-4.63,3.519-6.945,5.281h-5.817v-10.615L123.178,458.062L123.178,458.062z M123.178,467.765
		c-0.36,0.296-0.721,0.587-1.081,0.884h1.081V467.765L123.178,467.765z M123.178,472.743v10.546l-18.648,0.017v-0.337
		c2.059-1.641,4.049-3.269,6.084-4.938c2.129-1.733,4.316-3.519,6.468-5.287H123.178L123.178,472.743z M104.53,473.081l0.431-0.338
		h-0.431V473.081z M104.53,458.021v10.615c-9.434-0.012-18.857-0.012-28.233-0.018c2.687-1.773,5.444-3.531,8.189-5.311
		c2.699-1.757,5.444-3.536,8.19-5.311L104.53,458.021L104.53,458.021z M104.53,472.743v0.338c-2.128,1.651-4.304,3.31-6.467,4.956
		c-2.315,1.767-4.583,3.524-6.899,5.286c-12.552,0.013-25.058,0.029-37.563,0.041c2.746-1.769,5.456-3.524,8.19-5.305
		c2.71-1.757,5.444-3.548,8.143-5.316C81.427,472.743,92.979,472.743,104.53,472.743L104.53,472.743z M104.53,482.969l-0.43,0.337
		h0.43V482.969z"/>
	<rect x="223.933" y="225.958" fill-rule="evenodd" clip-rule="evenodd" fill="#5895CB" width="154.837" height="26.768"/>
	<path opacity="0.2" fill-rule="evenodd" clip-rule="evenodd" d="M148.597,224.375c0,12.052,9.771,21.824,21.824,21.824
		c12.052,0,21.824-9.772,21.824-21.824c0,12.052,9.772,21.824,21.824,21.824c12.052,0,21.823-9.772,21.823-21.824
		c0,12.052,9.772,21.824,21.813,21.824c12.063,0,21.824-9.772,21.824-21.824c0,12.052,9.772,21.824,21.824,21.824
		c12.053,0,21.824-9.772,21.824-21.824c0,12.052,9.771,21.824,21.823,21.824s21.824-9.772,21.824-21.824
		c0,12.052,9.771,21.824,21.823,21.824c12.053,0,21.823-9.772,21.823-21.824c0,12.052,9.772,21.824,21.825,21.824
		c12.052,0,21.823-9.772,21.823-21.824c0,12.052,9.772,21.824,21.823,21.824c12.052,0,21.824-9.772,21.824-21.824
		c0,11.517,8.911,20.94,20.219,21.766v-61.249c0-8.248-6.735-14.983-14.983-14.983H99.714c-8.249,0-14.984,6.736-14.984,14.983
		v61.249c11.296-0.82,20.218-10.249,20.218-21.766c0,12.052,9.772,21.824,21.824,21.824
		C138.825,246.199,148.597,236.427,148.597,224.375z"/>
	<rect x="135.021" y="287.241" fill-rule="evenodd" clip-rule="evenodd" fill="#5895CB" width="332.674" height="120.857"/>
	<rect x="198.91" y="263.195" fill-rule="evenodd" clip-rule="evenodd" fill="#90BCE2" width="204.884" height="11.22"/>
	<g>
		<path fill="#DFEEFB" d="M446.73,339.218c-0.546-0.71-0.419-1.728,0.291-2.28c0.71-0.541,1.734-0.413,2.269,0.297l7.283,9.418
			c0.047,0.057,0.093,0.127,0.139,0.197v0.012l0.013,0.011l0.011,0.012c0.023,0.047,0.035,0.088,0.059,0.128l0.035,0.082
			l0.012,0.034l0.034,0.105l0.023,0.11c0.012,0.053,0.023,0.1,0.023,0.151v0.005v0.07l0.012,0.058v0.023v0.023v0.035l-0.012,0.046
			v0.07v0.012l-0.023,0.151l-0.023,0.117l-0.034,0.104l-0.012,0.034l-0.035,0.076l-0.059,0.129l-0.011,0.011l-0.013,0.019v0.011
			c-0.046,0.07-0.092,0.128-0.139,0.192l-7.283,9.417c-0.534,0.71-1.559,0.843-2.269,0.291c-0.71-0.547-0.837-1.559-0.291-2.269
			l6.526-8.452L446.73,339.218z"/>
		<path fill="#DFEEFB" d="M153.413,337.234c0.547-0.71,1.559-0.838,2.269-0.297c0.709,0.553,0.837,1.57,0.291,2.28l-6.526,8.451
			l6.526,8.452c0.546,0.71,0.418,1.722-0.291,2.269c-0.709,0.552-1.722,0.419-2.269-0.291l-7.282-9.417
			c-0.046-0.064-0.093-0.122-0.128-0.192l-0.012-0.011l-0.012-0.019v-0.011c-0.023-0.041-0.046-0.088-0.069-0.129l-0.023-0.076
			l-0.023-0.034l-0.023-0.104l-0.035-0.117c-0.012-0.047-0.012-0.099-0.012-0.151l-0.012-0.012v-0.07v-0.046v-0.035v-0.023v-0.023
			v-0.058v-0.07l0.012-0.005l0.012-0.151l0.035-0.11l0.023-0.105l0.023-0.034l0.023-0.082c0.023-0.04,0.046-0.081,0.069-0.128
			v-0.012l0.012-0.011l0.012-0.012c0.035-0.07,0.082-0.141,0.128-0.197L153.413,337.234z"/>
	</g>
	<rect x="242.395" y="509.737" fill-rule="evenodd" clip-rule="evenodd" fill="#055A87" width="117.913" height="5.496"/>
	<g>
		<path fill-rule="evenodd" clip-rule="evenodd" fill="#FFFFFF" d="M341.741,353.632h3.421c9.807,0,10.226-11.11,0-11.134h-3.421
			v0.89l0,0c2.583,0,4.666,2.089,4.666,4.659c0,2.577-2.083,4.666-4.666,4.666l0,0V353.632z M260.961,353.632h80.78v-0.919
			c-2.57,0-4.653-2.089-4.653-4.666c0-2.57,2.083-4.659,4.653-4.659v-0.89c-26.919-0.04-53.85-0.04-80.78,0v0.89l0,0
			c2.571,0,4.654,2.089,4.654,4.659c0,2.577-2.083,4.666-4.654,4.666l0,0V353.632z M257.541,353.632h3.42v-0.919
			c-2.582,0-4.665-2.089-4.665-4.666c0-2.57,2.083-4.659,4.665-4.659v-0.89h-3.42C247.315,342.521,247.734,353.632,257.541,353.632z
			"/>
		<path fill-rule="evenodd" clip-rule="evenodd" fill="#FFFFFF" d="M307.541,304.557c-2.572,0-4.665,2.089-4.665,4.659
			c0,2.577,2.093,4.665,4.665,4.665c2.57,0,4.664-2.088,4.664-4.665C312.205,306.646,310.111,304.557,307.541,304.557z"/>
		<path fill-rule="evenodd" clip-rule="evenodd" fill="#FFFFFF" d="M343.557,346.809l-31.805-35.579
			c-0.733-0.815-2.013-0.885-2.827-0.153l0,0c-0.826,0.734-0.896,2.008-0.163,2.827l31.806,35.575
			c0.744,0.826,2.012,0.896,2.838,0.163l0,0C344.22,348.902,344.29,347.628,343.557,346.809z"/>
		<path fill-rule="evenodd" clip-rule="evenodd" fill="#FFFFFF" d="M295.163,304.557c2.571,0,4.666,2.089,4.666,4.659
			c0,2.577-2.095,4.665-4.666,4.665c-2.57,0-4.665-2.088-4.665-4.665C290.498,306.646,292.592,304.557,295.163,304.557z"/>
		<path fill-rule="evenodd" clip-rule="evenodd" fill="#FFFFFF" d="M259.146,346.809l34.702-38.803
			c0.733-0.826,2.001-0.895,2.827-0.156l0,0c0.826,0.731,0.885,2.007,0.163,2.826l-34.701,38.803
			c-0.733,0.826-2.013,0.896-2.827,0.163l0,0C258.483,348.902,258.414,347.628,259.146,346.809z"/>
		<path fill-rule="evenodd" clip-rule="evenodd" fill="#FFFFFF" d="M328.294,356.946h16.298l-4.269,24.564
			c-0.92,5.286-3.502,9.266-11.634,9.266h-0.396v-7.405c1.163-0.564,2.059-1.715,2.245-3.042c0.372-2.804,0.768-5.607,1.152-8.41
			c0.383-2.798,0.768-5.607,1.15-8.41c0.269-1.88-1.197-3.421-3.244-3.421l0,0c-0.442,0-0.885,0.07-1.304,0.209V356.946z
			 M314.881,356.946h13.413v3.351c-1.466,0.488-2.629,1.745-2.78,3.212c-0.291,2.808-0.593,5.612-0.896,8.41
			c-0.291,2.803-0.593,5.606-0.884,8.41c-0.198,1.885,1.15,3.421,2.989,3.421l0,0c0.547,0,1.082-0.14,1.57-0.379v7.405h-13.413
			v-7.138c1.466-0.383,2.629-1.728,2.745-3.31c0.222-2.804,0.442-5.607,0.651-8.41c0.21-2.798,0.431-5.607,0.64-8.41
			c0.141-1.88-1.396-3.421-3.442-3.421l0,0c-0.198,0-0.396,0.011-0.594,0.047V356.946z M301.34,356.946h13.541v3.188
			c-1.78,0.255-3.211,1.675-3.292,3.374c-0.117,2.803-0.244,5.612-0.372,8.41c-0.117,2.803-0.256,5.606-0.372,8.41
			c-0.081,1.885,1.35,3.421,3.187,3.421l0,0c0.291,0,0.57-0.035,0.85-0.111v7.138H301.34v-7.026c1.838,0,3.362-1.536,3.396-3.421
			c0.047-2.804,0.082-5.607,0.128-8.41c0.047-2.798,0.094-5.607,0.141-8.41c0.022-1.88-1.618-3.421-3.653-3.421l0,0h-0.012V356.946z
			 M287.799,356.946h13.541v3.142c-2.036,0-3.688,1.541-3.652,3.421c0.046,2.803,0.082,5.612,0.127,8.41
			c0.046,2.803,0.081,5.606,0.128,8.41c0.036,1.885,1.571,3.421,3.397,3.421l0,0l0,0v7.026h-13.541v-7.138
			c0.28,0.076,0.57,0.111,0.861,0.111l0,0c1.826,0,3.257-1.536,3.187-3.421c-0.127-2.804-0.255-5.607-0.372-8.41
			c-0.128-2.798-0.255-5.607-0.383-8.41c-0.07-1.699-1.501-3.124-3.292-3.381V356.946z M274.398,356.946h13.401v3.182
			c-0.186-0.029-0.384-0.04-0.57-0.04l0,0c-2.047,0-3.606,1.541-3.467,3.421c0.221,2.808,0.43,5.612,0.651,8.41
			c0.209,2.803,0.419,5.606,0.64,8.41c0.117,1.582,1.292,2.92,2.746,3.31v7.138h-13.401v-7.398c0.488,0.232,1.023,0.372,1.57,0.372
			l0,0c1.838,0,3.176-1.536,2.978-3.421c-0.291-2.804-0.594-5.607-0.884-8.41c-0.303-2.798-0.605-5.603-0.884-8.41
			c-0.163-1.467-1.314-2.734-2.78-3.212V356.946z M274.014,390.776c-8.12,0-10.714-3.979-11.633-9.266l-4.27-24.564h16.287v3.351
			c-0.419-0.139-0.85-0.209-1.303-0.209l0,0c-2.036,0-3.501,1.541-3.246,3.421c0.384,2.803,0.768,5.612,1.164,8.41
			c0.384,2.803,0.768,5.606,1.151,8.41c0.175,1.327,1.082,2.478,2.234,3.049v7.398H274.014z"/>
	</g>
	<g>
		<g>
			<path fill-rule="evenodd" clip-rule="evenodd" fill="#013C5C" d="M224.003,351.037h1.931c5.538,0,5.771-6.271,0-6.282h-1.931v0.5
				l0,0c1.454,0,2.629,1.176,2.629,2.63s-1.175,2.629-2.629,2.629l0,0V351.037z M178.413,351.037h45.59v-0.523
				c-1.442,0-2.629-1.175-2.629-2.629s1.187-2.63,2.629-2.63v-0.5c-15.193-0.028-30.398-0.028-45.59,0v0.5
				c1.454,0,2.641,1.176,2.641,2.63s-1.187,2.629-2.641,2.629V351.037z M176.493,351.037h1.92v-0.523
				c-1.454,0-2.629-1.175-2.629-2.629s1.175-2.63,2.629-2.63v-0.5h-1.92C170.711,344.767,170.956,351.037,176.493,351.037z"/>
			<path fill-rule="evenodd" clip-rule="evenodd" fill="#013C5C" d="M204.703,323.339c-1.454,0-2.629,1.181-2.629,2.629
				c0,1.454,1.175,2.636,2.629,2.636c1.455,0,2.629-1.182,2.629-2.636C207.333,324.52,206.158,323.339,204.703,323.339z"/>
			<path fill-rule="evenodd" clip-rule="evenodd" fill="#013C5C" d="M225.026,347.187l-17.95-20.078
				c-0.419-0.466-1.128-0.5-1.594-0.088l0,0c-0.465,0.413-0.511,1.134-0.093,1.594l17.95,20.073c0.418,0.465,1.14,0.512,1.605,0.093
				l0,0C225.398,348.367,225.445,347.651,225.026,347.187z"/>
			<path fill-rule="evenodd" clip-rule="evenodd" fill="#013C5C" d="M197.724,323.339c1.442,0,2.629,1.181,2.629,2.629
				c0,1.454-1.187,2.636-2.629,2.636c-1.454,0-2.641-1.182-2.641-2.636C195.083,324.52,196.27,323.339,197.724,323.339z"/>
			<path fill-rule="evenodd" clip-rule="evenodd" fill="#013C5C" d="M177.4,347.187l19.579-21.899
				c0.407-0.46,1.128-0.506,1.593-0.088l0,0c0.465,0.408,0.5,1.129,0.093,1.594l-19.59,21.895c-0.407,0.465-1.129,0.512-1.594,0.093
				l0,0C177.017,348.367,176.981,347.651,177.4,347.187z"/>
			<path fill-rule="evenodd" clip-rule="evenodd" fill="#013C5C" d="M216.417,352.91h9.19l-2.408,13.855
				c-0.512,2.989-1.978,5.234-6.562,5.234h-0.221v-4.188c0.652-0.314,1.164-0.966,1.257-1.71c0.221-1.582,0.442-3.165,0.663-4.747
				c0.209-1.582,0.43-3.164,0.651-4.746c0.14-1.064-0.687-1.932-1.838-1.932l0,0c-0.256,0-0.5,0.041-0.733,0.117V352.91z
				 M208.845,352.91h7.573v1.885c-0.826,0.278-1.488,0.988-1.57,1.814c-0.163,1.582-0.337,3.164-0.5,4.746s-0.337,3.165-0.5,4.747
				c-0.117,1.059,0.64,1.931,1.687,1.931l0,0c0.302,0,0.604-0.081,0.883-0.221V372h-7.573v-4.031
				c0.826-0.215,1.478-0.971,1.547-1.866c0.128-1.582,0.256-3.165,0.373-4.747s0.244-3.164,0.361-4.746
				c0.082-1.064-0.791-1.932-1.943-1.932l0,0c-0.116,0-0.233,0.007-0.337,0.023V352.91z M201.202,352.91h7.643v1.791
				c-1,0.151-1.814,0.949-1.85,1.908c-0.07,1.582-0.151,3.164-0.221,4.746c-0.07,1.582-0.139,3.165-0.209,4.747
				c-0.046,1.059,0.768,1.931,1.803,1.931l0,0c0.163,0,0.326-0.023,0.477-0.064V372h-7.643v-3.967c1.047,0,1.896-0.872,1.92-1.931
				c0.022-1.582,0.046-3.165,0.081-4.747c0.023-1.582,0.046-3.164,0.07-4.746c0.012-1.064-0.908-1.932-2.071-1.932l0,0l0,0V352.91z
				 M193.559,352.91h7.643v1.768c-1.152,0-2.082,0.873-2.059,1.932c0.023,1.582,0.047,3.164,0.07,4.746
				c0.035,1.582,0.046,3.165,0.082,4.747c0.012,1.059,0.873,1.931,1.908,1.931l0,0l0,0V372h-7.643v-4.031
				c0.163,0.041,0.325,0.064,0.488,0.064l0,0c1.035,0,1.838-0.872,1.792-1.931c-0.07-1.582-0.14-3.165-0.209-4.747
				s-0.14-3.164-0.209-4.746c-0.047-0.959-0.85-1.763-1.861-1.908V352.91z M185.997,352.91h7.562v1.791
				c-0.105-0.017-0.209-0.023-0.326-0.023l0,0c-1.151,0-2.024,0.867-1.942,1.932c0.116,1.582,0.232,3.164,0.36,4.746
				c0.128,1.582,0.245,3.165,0.36,4.747c0.07,0.896,0.733,1.651,1.548,1.866V372h-7.562v-4.188c0.279,0.14,0.582,0.221,0.884,0.221
				l0,0c1.047,0,1.792-0.872,1.687-1.931c-0.163-1.582-0.338-3.165-0.5-4.747c-0.174-1.582-0.337-3.164-0.5-4.746
				c-0.093-0.832-0.745-1.542-1.571-1.814V352.91z M185.776,372c-4.583,0-6.038-2.245-6.549-5.234l-2.408-13.855h9.179v1.885
				c-0.233-0.076-0.477-0.117-0.732-0.117l0,0c-1.152,0-1.978,0.867-1.827,1.932c0.21,1.582,0.431,3.164,0.652,4.746
				c0.221,1.582,0.43,3.165,0.651,4.747c0.105,0.744,0.605,1.396,1.256,1.71V372H185.776z"/>
		</g>
		<g>
			<path fill-rule="evenodd" clip-rule="evenodd" fill="#013C5C" d="M424.291,351.037h1.931c5.537,0,5.771-6.271,0-6.282h-1.931v0.5
				l0,0c1.454,0,2.629,1.176,2.629,2.63s-1.175,2.629-2.629,2.629l0,0V351.037z M378.701,351.037h45.59v-0.523
				c-1.454,0-2.63-1.175-2.63-2.629s1.176-2.63,2.63-2.63v-0.5c-15.193-0.028-30.397-0.028-45.59,0v0.5
				c1.454,0,2.628,1.176,2.628,2.63s-1.174,2.629-2.628,2.629V351.037z M376.77,351.037h1.932v-0.523l0,0
				c-1.454,0-2.63-1.175-2.63-2.629s1.176-2.63,2.63-2.63l0,0v-0.5h-1.932C370.999,344.767,371.232,351.037,376.77,351.037z"/>
			<path fill-rule="evenodd" clip-rule="evenodd" fill="#013C5C" d="M404.991,323.339c-1.454,0-2.63,1.181-2.63,2.629
				c0,1.454,1.176,2.636,2.63,2.636c1.443,0,2.63-1.182,2.63-2.636C407.621,324.52,406.435,323.339,404.991,323.339z"/>
			<path fill-rule="evenodd" clip-rule="evenodd" fill="#013C5C" d="M425.314,347.187l-17.95-20.078
				c-0.419-0.466-1.14-0.5-1.605-0.088l0,0c-0.453,0.413-0.5,1.134-0.081,1.594l17.95,20.073c0.418,0.465,1.128,0.512,1.594,0.093
				l0,0C425.688,348.367,425.722,347.651,425.314,347.187z"/>
			<path fill-rule="evenodd" clip-rule="evenodd" fill="#013C5C" d="M398,323.339c1.454,0,2.641,1.181,2.641,2.629
				c0,1.454-1.187,2.636-2.641,2.636s-2.629-1.182-2.629-2.636C395.371,324.52,396.546,323.339,398,323.339z"/>
			<path fill-rule="evenodd" clip-rule="evenodd" fill="#013C5C" d="M377.677,347.187l19.578-21.899
				c0.419-0.46,1.141-0.506,1.595-0.088l0,0c0.465,0.408,0.512,1.129,0.093,1.594l-19.578,21.895
				c-0.408,0.465-1.129,0.512-1.595,0.093l0,0C377.305,348.367,377.258,347.651,377.677,347.187z"/>
			<path fill-rule="evenodd" clip-rule="evenodd" fill="#013C5C" d="M416.694,352.91h9.201l-2.407,13.855
				c-0.523,2.989-1.979,5.234-6.562,5.234h-0.232v-4.188c0.663-0.314,1.163-0.966,1.268-1.71c0.221-1.582,0.442-3.165,0.652-4.747
				c0.221-1.582,0.442-3.164,0.65-4.746c0.151-1.064-0.674-1.932-1.826-1.932l0,0c-0.255,0-0.5,0.041-0.744,0.117V352.91z
				 M409.133,352.91h7.562v1.885c-0.826,0.278-1.478,0.988-1.57,1.814c-0.163,1.582-0.326,3.164-0.489,4.746
				c-0.174,1.582-0.337,3.165-0.511,4.747c-0.105,1.059,0.65,1.931,1.687,1.931l0,0c0.314,0,0.616-0.081,0.884-0.221V372h-7.562
				v-4.031c0.826-0.215,1.478-0.971,1.547-1.866c0.128-1.582,0.245-3.165,0.361-4.747c0.128-1.582,0.244-3.164,0.372-4.746
				c0.081-1.064-0.791-1.932-1.955-1.932l0,0c-0.104,0-0.221,0.007-0.325,0.023V352.91z M401.489,352.91h7.644v1.791
				c-1.012,0.151-1.814,0.949-1.861,1.908c-0.069,1.582-0.14,3.164-0.21,4.746c-0.069,1.582-0.15,3.165-0.209,4.747
				c-0.046,1.059,0.756,1.931,1.804,1.931l0,0c0.162,0,0.325-0.023,0.477-0.064V372h-7.644v-3.967c1.036,0,1.896-0.872,1.909-1.931
				c0.034-1.582,0.058-3.165,0.081-4.747s0.047-3.164,0.069-4.746c0.023-1.064-0.907-1.932-2.06-1.932l0,0l0,0V352.91z
				 M393.847,352.91h7.643v1.768c-1.151,0-2.081,0.873-2.07,1.932c0.023,1.582,0.047,3.164,0.081,4.746
				c0.023,1.582,0.047,3.165,0.07,4.747c0.023,1.059,0.884,1.931,1.919,1.931l0,0l0,0V372h-7.643v-4.031
				c0.151,0.041,0.314,0.064,0.477,0.064l0,0c1.048,0,1.85-0.872,1.804-1.931c-0.069-1.582-0.14-3.165-0.21-4.747
				c-0.069-1.582-0.14-3.164-0.208-4.746c-0.047-0.959-0.851-1.763-1.862-1.908V352.91z M386.285,352.91h7.562v1.791
				c-0.104-0.017-0.209-0.023-0.325-0.023l0,0c-1.152,0-2.036,0.867-1.954,1.932c0.128,1.582,0.243,3.164,0.372,4.746
				c0.115,1.582,0.232,3.165,0.349,4.747c0.07,0.896,0.733,1.651,1.559,1.866V372h-7.562v-4.188c0.268,0.14,0.569,0.221,0.884,0.221
				l0,0c1.036,0,1.792-0.872,1.688-1.931c-0.174-1.582-0.338-3.165-0.512-4.747c-0.163-1.582-0.326-3.164-0.5-4.746
				c-0.082-0.832-0.733-1.542-1.56-1.814V352.91z M386.063,372c-4.583,0-6.037-2.245-6.561-5.234l-2.407-13.855h9.189v1.885
				c-0.232-0.076-0.477-0.117-0.732-0.117l0,0c-1.152,0-1.979,0.867-1.838,1.932c0.221,1.582,0.441,3.164,0.65,4.746
				c0.222,1.582,0.442,3.165,0.663,4.747c0.094,0.744,0.594,1.396,1.257,1.71V372H386.063z"/>
		</g>
	</g>
	<rect x="84.73" y="143.222" fill-rule="evenodd" clip-rule="evenodd" fill="#D32A13" width="433.254" height="26.687"/>
	<polygon fill-rule="evenodd" clip-rule="evenodd" fill="#F65741" points="17.654,199.352 585.05,199.352 517.984,169.909 
		84.73,169.909 	"/>
	<polygon fill-rule="evenodd" clip-rule="evenodd" fill="#FFD96B" points="541.401,199.352 497.766,199.352 451.326,169.909 
		484.655,169.909 	"/>
	<polygon fill-rule="evenodd" clip-rule="evenodd" fill="#F65741" points="454.118,199.352 497.766,199.352 451.326,169.909 
		418.009,169.909 	"/>
	<polygon fill-rule="evenodd" clip-rule="evenodd" fill="#FFD96B" points="454.118,199.352 410.47,199.352 384.669,169.909 
		418.009,169.909 	"/>
	<polygon fill-rule="evenodd" clip-rule="evenodd" fill="#F65741" points="366.823,199.352 410.47,199.352 384.669,169.909 
		351.351,169.909 	"/>
	<polygon fill-rule="evenodd" clip-rule="evenodd" fill="#FFD96B" points="366.823,199.352 323.176,199.352 318.021,169.909 
		351.351,169.909 	"/>
	<polygon fill-rule="evenodd" clip-rule="evenodd" fill="#F65741" points="279.528,199.352 323.176,199.352 318.021,169.909 
		284.693,169.909 	"/>
	<polygon fill-rule="evenodd" clip-rule="evenodd" fill="#FFD96B" points="279.528,199.352 235.892,199.352 251.364,169.909 
		284.693,169.909 	"/>
	<polygon fill-rule="evenodd" clip-rule="evenodd" fill="#F65741" points="192.244,199.352 235.892,199.352 251.364,169.909 
		218.035,169.909 	"/>
	<polygon fill-rule="evenodd" clip-rule="evenodd" fill="#FFD96B" points="192.244,199.352 148.597,199.352 184.706,169.909 
		218.035,169.909 	"/>
	<polygon fill-rule="evenodd" clip-rule="evenodd" fill="#F65741" points="104.949,199.352 148.597,199.352 184.706,169.909 
		151.377,169.909 	"/>
	<polygon fill-rule="evenodd" clip-rule="evenodd" fill="#FFD96B" points="104.949,199.352 61.301,199.352 118.048,169.909 
		151.377,169.909 	"/>
	<polygon fill-rule="evenodd" clip-rule="evenodd" fill="#F65741" points="17.654,199.352 61.301,199.352 118.048,169.909 
		84.73,169.909 	"/>
	<path fill-rule="evenodd" clip-rule="evenodd" fill="#DDAB14" d="M104.949,199.352c0,12.052-9.772,21.824-21.823,21.824
		c-12.052,0-21.824-9.772-21.824-21.824H104.949z"/>
	<path fill-rule="evenodd" clip-rule="evenodd" fill="#D32A13" d="M17.654,199.352c0,12.052,9.771,21.824,21.824,21.824
		c12.052,0,21.824-9.772,21.824-21.824H17.654z"/>
	<path fill-rule="evenodd" clip-rule="evenodd" fill="#DDAB14" d="M192.244,199.352c0,12.052-9.772,21.824-21.824,21.824
		c-12.052,0-21.824-9.772-21.824-21.824H192.244z"/>
	<path fill-rule="evenodd" clip-rule="evenodd" fill="#D32A13" d="M104.949,199.352c0,12.052,9.772,21.824,21.824,21.824
		c12.052,0,21.824-9.772,21.824-21.824H104.949z"/>
	<path fill-rule="evenodd" clip-rule="evenodd" fill="#DDAB14" d="M279.528,199.352c0,12.052-9.76,21.824-21.824,21.824
		c-12.041,0-21.813-9.772-21.813-21.824H279.528z"/>
	<path fill-rule="evenodd" clip-rule="evenodd" fill="#D32A13" d="M192.244,199.352c0,12.052,9.772,21.824,21.824,21.824
		c12.052,0,21.823-9.772,21.823-21.824H192.244z"/>
	<path fill-rule="evenodd" clip-rule="evenodd" fill="#DDAB14" d="M366.823,199.352c0,12.052-9.772,21.824-21.824,21.824
		s-21.823-9.772-21.823-21.824H366.823z"/>
	<path fill-rule="evenodd" clip-rule="evenodd" fill="#D32A13" d="M279.528,199.352c0,12.052,9.772,21.824,21.824,21.824
		c12.053,0,21.824-9.772,21.824-21.824H279.528z"/>
	<path fill-rule="evenodd" clip-rule="evenodd" fill="#DDAB14" d="M454.118,199.352c0,12.052-9.771,21.824-21.823,21.824
		c-12.053,0-21.825-9.772-21.825-21.824H454.118z"/>
	<path fill-rule="evenodd" clip-rule="evenodd" fill="#D32A13" d="M366.823,199.352c0,12.052,9.771,21.824,21.823,21.824
		c12.053,0,21.823-9.772,21.823-21.824H366.823z"/>
	<path fill-rule="evenodd" clip-rule="evenodd" fill="#DDAB14" d="M541.414,199.352c0,12.052-9.772,21.824-21.824,21.824
		c-12.053,0-21.824-9.772-21.824-21.824H541.414z"/>
	<path fill-rule="evenodd" clip-rule="evenodd" fill="#D32A13" d="M454.118,199.352c0,12.052,9.772,21.824,21.823,21.824
		c12.052,0,21.824-9.772,21.824-21.824H454.118z"/>
	<path fill-rule="evenodd" clip-rule="evenodd" fill="#D32A13" d="M541.414,199.352c0,12.052,9.759,21.824,21.812,21.824
		c12.052,0,21.835-9.772,21.835-21.824H541.414z"/>
</g>
</svg>
